<?xml version="1.0" encoding="UTF-8" standalone="no"?>
<!DOCTYPE svg PUBLIC "-//W3C//DTD SVG 1.1//EN"
 "http://www.w3.org/Graphics/SVG/1.1/DTD/svg11.dtd">
<!-- Generated by graphviz version 2.47.0 (20210316.0004)
 -->
<!-- Title: dependencies Pages: 1 -->
<svg width="504pt" height="211pt"
 viewBox="0.00 0.00 504.00 211.00" xmlns="http://www.w3.org/2000/svg" xmlns:xlink="http://www.w3.org/1999/xlink">
<g id="graph0" class="graph" transform="scale(1 1) rotate(0) translate(4 207)">
<title>dependencies</title>
<polygon fill="white" stroke="transparent" points="-4,4 -4,-207 500,-207 500,4 -4,4"/>
<text text-anchor="start" x="227.01" y="-42.4" font-family="Times-12" font-weight="bold" font-size="14.00">Legend</text>
<polygon fill="#ffffb3" stroke="transparent" points="14,-10 14,-30 34,-30 34,-10 14,-10"/>
<text text-anchor="start" x="37.63" y="-15.4" font-family="Times-12" font-size="14.00"> &#160;Declarations</text>
<polygon fill="#8dd3c7" stroke="transparent" points="127,-10 127,-30 147,-30 147,-10 127,-10"/>
<text text-anchor="start" x="150.73" y="-15.4" font-family="Times-12" font-size="14.00"> &#160;Module</text>
<polygon fill="#80b1d3" stroke="transparent" points="213,-10 213,-30 233,-30 233,-10 213,-10"/>
<text text-anchor="start" x="236.78" y="-15.4" font-family="Times-12" font-size="14.00"> &#160;Bootstrap</text>
<polygon fill="#fdb462" stroke="transparent" points="310,-10 310,-30 330,-30 330,-10 310,-10"/>
<text text-anchor="start" x="333.67" y="-15.4" font-family="Times-12" font-size="14.00"> &#160;Providers</text>
<polygon fill="#fb8072" stroke="transparent" points="406,-10 406,-30 426,-30 426,-10 406,-10"/>
<text text-anchor="start" x="429.73" y="-15.4" font-family="Times-12" font-size="14.00"> &#160;Exports</text>
<g id="clust1" class="cluster">
<title>cluster_RankingModule</title>
<polygon fill="none" stroke="black" stroke-dasharray="1,5" points="68.5,-70 68.5,-195 427.5,-195 427.5,-70 68.5,-70"/>
</g>
<g id="clust2" class="cluster">
<title>cluster_RankingModule_declarations</title>
<polygon fill="none" stroke="black" points="76.5,-78 76.5,-130 419.5,-130 419.5,-78 76.5,-78"/>
</g>
<!-- GRankLayoutComponent -->
<g id="node1" class="node">
<title>GRankLayoutComponent</title>
<polygon fill="#ffffb3" stroke="black" points="411.65,-122 251.35,-122 251.35,-86 411.65,-86 411.65,-122"/>
<text text-anchor="middle" x="331.5" y="-99.8" font-family="Times,serif" font-size="14.00">GRankLayoutComponent</text>
</g>
<!-- RankingModule -->
<g id="node3" class="node">
<title>RankingModule</title>
<polygon fill="#8dd3c7" stroke="black" points="297.99,-187 294.99,-191 273.99,-191 270.99,-187 191.01,-187 191.01,-151 297.99,-151 297.99,-187"/>
<text text-anchor="middle" x="244.5" y="-164.8" font-family="Times,serif" font-size="14.00">RankingModule</text>
</g>
<!-- GRankLayoutComponent&#45;&gt;RankingModule -->
<g id="edge1" class="edge">
<title>GRankLayoutComponent&#45;&gt;RankingModule</title>
<path fill="none" stroke="black" d="M274.59,-122.11C274.59,-122.11 274.59,-140.99 274.59,-140.99"/>
<polygon fill="black" stroke="black" points="271.09,-140.99 274.59,-150.99 278.09,-140.99 271.09,-140.99"/>
</g>
<!-- GlobalRankComponent -->
<g id="node2" class="node">
<title>GlobalRankComponent</title>
<polygon fill="#ffffb3" stroke="black" points="232.99,-122 84.01,-122 84.01,-86 232.99,-86 232.99,-122"/>
<text text-anchor="middle" x="158.5" y="-99.8" font-family="Times,serif" font-size="14.00">GlobalRankComponent</text>
</g>
<!-- GlobalRankComponent&#45;&gt;RankingModule -->
<g id="edge2" class="edge">
<title>GlobalRankComponent&#45;&gt;RankingModule</title>
<path fill="none" stroke="black" d="M212,-122.11C212,-122.11 212,-140.99 212,-140.99"/>
<polygon fill="black" stroke="black" points="208.5,-140.99 212,-150.99 215.5,-140.99 208.5,-140.99"/>
</g>
</g>
</svg>
