<?xml version="1.0" encoding="UTF-8" standalone="no"?>
<!DOCTYPE svg PUBLIC "-//W3C//DTD SVG 1.1//EN"
 "http://www.w3.org/Graphics/SVG/1.1/DTD/svg11.dtd">
<!-- Generated by graphviz version 2.47.0 (20210316.0004)
 -->
<!-- Title: dependencies Pages: 1 -->
<svg width="1653pt" height="284pt"
 viewBox="0.00 0.00 1653.00 284.00" xmlns="http://www.w3.org/2000/svg" xmlns:xlink="http://www.w3.org/1999/xlink">
<g id="graph0" class="graph" transform="scale(1 1) rotate(0) translate(4 280)">
<title>dependencies</title>
<polygon fill="white" stroke="transparent" points="-4,4 -4,-280 1649,-280 1649,4 -4,4"/>
<text text-anchor="start" x="801.51" y="-42.4" font-family="Times-12" font-weight="bold" font-size="14.00">Legend</text>
<polygon fill="#ffffb3" stroke="transparent" points="588.5,-10 588.5,-30 608.5,-30 608.5,-10 588.5,-10"/>
<text text-anchor="start" x="612.13" y="-15.4" font-family="Times-12" font-size="14.00"> &#160;Declarations</text>
<polygon fill="#8dd3c7" stroke="transparent" points="701.5,-10 701.5,-30 721.5,-30 721.5,-10 701.5,-10"/>
<text text-anchor="start" x="725.23" y="-15.4" font-family="Times-12" font-size="14.00"> &#160;Module</text>
<polygon fill="#80b1d3" stroke="transparent" points="787.5,-10 787.5,-30 807.5,-30 807.5,-10 787.5,-10"/>
<text text-anchor="start" x="811.28" y="-15.4" font-family="Times-12" font-size="14.00"> &#160;Bootstrap</text>
<polygon fill="#fdb462" stroke="transparent" points="884.5,-10 884.5,-30 904.5,-30 904.5,-10 884.5,-10"/>
<text text-anchor="start" x="908.17" y="-15.4" font-family="Times-12" font-size="14.00"> &#160;Providers</text>
<polygon fill="#fb8072" stroke="transparent" points="980.5,-10 980.5,-30 1000.5,-30 1000.5,-10 980.5,-10"/>
<text text-anchor="start" x="1004.23" y="-15.4" font-family="Times-12" font-size="14.00"> &#160;Exports</text>
<g id="clust1" class="cluster">
<title>cluster_SharedModule</title>
<polygon fill="none" stroke="black" stroke-dasharray="1,5" points="8,-70 8,-268 1637,-268 1637,-70 8,-70"/>
</g>
<g id="clust2" class="cluster">
<title>cluster_SharedModule_declarations</title>
<polygon fill="none" stroke="black" points="276,-78 276,-130 1629,-130 1629,-78 276,-78"/>
</g>
<g id="clust12" class="cluster">
<title>cluster_SharedModule_exports</title>
<polygon fill="none" stroke="black" points="607,-208 607,-260 1088,-260 1088,-208 607,-208"/>
</g>
<g id="clust14" class="cluster">
<title>cluster_SharedModule_providers</title>
<polygon fill="none" stroke="black" points="16,-78 16,-130 268,-130 268,-78 16,-78"/>
</g>
<!-- ConfirmationDialogComponent -->
<g id="node1" class="node">
<title>ConfirmationDialogComponent</title>
<polygon fill="#ffffb3" stroke="black" points="1621.37,-122 1426.63,-122 1426.63,-86 1621.37,-86 1621.37,-122"/>
<text text-anchor="middle" x="1524" y="-99.8" font-family="Times,serif" font-size="14.00">ConfirmationDialogComponent</text>
</g>
<!-- SharedModule -->
<g id="node9" class="node">
<title>SharedModule</title>
<polygon fill="#8dd3c7" stroke="black" points="902.42,-187 899.42,-191 878.42,-191 875.42,-187 803.58,-187 803.58,-151 902.42,-151 902.42,-187"/>
<text text-anchor="middle" x="853" y="-164.8" font-family="Times,serif" font-size="14.00">SharedModule</text>
</g>
<!-- ConfirmationDialogComponent&#45;&gt;SharedModule -->
<g id="edge1" class="edge">
<title>ConfirmationDialogComponent&#45;&gt;SharedModule</title>
<path fill="none" stroke="black" d="M1524,-122.28C1524,-143.32 1524,-175 1524,-175 1524,-175 912.34,-175 912.34,-175"/>
<polygon fill="black" stroke="black" points="912.34,-171.5 902.34,-175 912.34,-178.5 912.34,-171.5"/>
</g>
<!-- OrderHistoryComponent -->
<g id="node2" class="node">
<title>OrderHistoryComponent</title>
<polygon fill="#ffffb3" stroke="black" points="1408.97,-122 1253.03,-122 1253.03,-86 1408.97,-86 1408.97,-122"/>
<text text-anchor="middle" x="1331" y="-99.8" font-family="Times,serif" font-size="14.00">OrderHistoryComponent</text>
</g>
<!-- OrderHistoryComponent&#45;&gt;SharedModule -->
<g id="edge2" class="edge">
<title>OrderHistoryComponent&#45;&gt;SharedModule</title>
<path fill="none" stroke="black" d="M1331,-122.11C1331,-141.34 1331,-169 1331,-169 1331,-169 912.35,-169 912.35,-169"/>
<polygon fill="black" stroke="black" points="912.35,-165.5 902.35,-169 912.35,-172.5 912.35,-165.5"/>
</g>
<!-- PreventCharDirective -->
<g id="node3" class="node">
<title>PreventCharDirective</title>
<polygon fill="#ffffb3" stroke="black" points="1235.06,-122 1096.94,-122 1096.94,-86 1235.06,-86 1235.06,-122"/>
<text text-anchor="middle" x="1166" y="-99.8" font-family="Times,serif" font-size="14.00">PreventCharDirective</text>
</g>
<!-- PreventCharDirective&#45;&gt;SharedModule -->
<g id="edge3" class="edge">
<title>PreventCharDirective&#45;&gt;SharedModule</title>
<path fill="none" stroke="black" d="M1166,-122.02C1166,-139.37 1166,-163 1166,-163 1166,-163 912.25,-163 912.25,-163"/>
<polygon fill="black" stroke="black" points="912.25,-159.5 902.25,-163 912.25,-166.5 912.25,-159.5"/>
</g>
<!-- RegisteredComponent -->
<g id="node4" class="node">
<title>RegisteredComponent</title>
<polygon fill="#ffffb3" stroke="black" points="1078.7,-122 937.3,-122 937.3,-86 1078.7,-86 1078.7,-122"/>
<text text-anchor="middle" x="1008" y="-99.8" font-family="Times,serif" font-size="14.00">RegisteredComponent</text>
</g>
<!-- RegisteredComponent&#45;&gt;SharedModule -->
<g id="edge4" class="edge">
<title>RegisteredComponent&#45;&gt;SharedModule</title>
<path fill="none" stroke="black" d="M1031.81,-122.24C1031.81,-137.57 1031.81,-157 1031.81,-157 1031.81,-157 912.33,-157 912.33,-157"/>
<polygon fill="black" stroke="black" points="912.33,-153.5 902.33,-157 912.33,-160.5 912.33,-153.5"/>
</g>
<!-- RequestsComponent -->
<g id="node5" class="node">
<title>RequestsComponent</title>
<polygon fill="#ffffb3" stroke="black" points="918.88,-122 787.12,-122 787.12,-86 918.88,-86 918.88,-122"/>
<text text-anchor="middle" x="853" y="-99.8" font-family="Times,serif" font-size="14.00">RequestsComponent</text>
</g>
<!-- RequestsComponent&#45;&gt;SharedModule -->
<g id="edge5" class="edge">
<title>RequestsComponent&#45;&gt;SharedModule</title>
<path fill="none" stroke="black" d="M853,-122.11C853,-122.11 853,-140.99 853,-140.99"/>
<polygon fill="black" stroke="black" points="849.5,-140.99 853,-150.99 856.5,-140.99 849.5,-140.99"/>
</g>
<!-- SocialShareComponent -->
<g id="node6" class="node">
<title>SocialShareComponent</title>
<polygon fill="#ffffb3" stroke="black" points="769.2,-122 620.8,-122 620.8,-86 769.2,-86 769.2,-122"/>
<text text-anchor="middle" x="695" y="-99.8" font-family="Times,serif" font-size="14.00">SocialShareComponent</text>
</g>
<!-- SocialShareComponent&#45;&gt;SharedModule -->
<g id="edge6" class="edge">
<title>SocialShareComponent&#45;&gt;SharedModule</title>
<path fill="none" stroke="black" d="M718.2,-122.24C718.2,-137.57 718.2,-157 718.2,-157 718.2,-157 793.57,-157 793.57,-157"/>
<polygon fill="black" stroke="black" points="793.57,-160.5 803.57,-157 793.57,-153.5 793.57,-160.5"/>
</g>
<!-- SuccessPageComponent -->
<g id="node7" class="node">
<title>SuccessPageComponent</title>
<polygon fill="#ffffb3" stroke="black" points="602.36,-122 449.64,-122 449.64,-86 602.36,-86 602.36,-122"/>
<text text-anchor="middle" x="526" y="-99.8" font-family="Times,serif" font-size="14.00">SuccessPageComponent</text>
</g>
<!-- SuccessPageComponent&#45;&gt;SharedModule -->
<g id="edge7" class="edge">
<title>SuccessPageComponent&#45;&gt;SharedModule</title>
<path fill="none" stroke="black" d="M526,-122.02C526,-139.37 526,-163 526,-163 526,-163 793.69,-163 793.69,-163"/>
<polygon fill="black" stroke="black" points="793.69,-166.5 803.69,-163 793.69,-159.5 793.69,-166.5"/>
</g>
<!-- UserDetailsComponent -->
<g id="node8" class="node">
<title>UserDetailsComponent</title>
<polygon fill="#ffffb3" stroke="black" points="431.91,-122 284.09,-122 284.09,-86 431.91,-86 431.91,-122"/>
<text text-anchor="middle" x="358" y="-99.8" font-family="Times,serif" font-size="14.00">UserDetailsComponent</text>
</g>
<!-- UserDetailsComponent&#45;&gt;SharedModule -->
<g id="edge8" class="edge">
<title>UserDetailsComponent&#45;&gt;SharedModule</title>
<path fill="none" stroke="black" d="M358,-122.11C358,-141.34 358,-169 358,-169 358,-169 793.73,-169 793.73,-169"/>
<polygon fill="black" stroke="black" points="793.73,-172.5 803.73,-169 793.73,-165.5 793.73,-172.5"/>
</g>
<!-- PreventCharDirective  -->
<g id="node10" class="node">
<title>PreventCharDirective </title>
<polygon fill="#fb8072" stroke="black" points="1079.56,-252 938.44,-252 938.44,-216 1079.56,-216 1079.56,-252"/>
<text text-anchor="middle" x="1009" y="-229.8" font-family="Times,serif" font-size="14.00">PreventCharDirective </text>
</g>
<!-- SharedModule&#45;&gt;PreventCharDirective  -->
<g id="edge9" class="edge">
<title>SharedModule&#45;&gt;PreventCharDirective </title>
<path fill="none" stroke="black" stroke-dasharray="5,2" d="M902.53,-181C939.99,-181 985.01,-181 985.01,-181 985.01,-181 985.01,-205.76 985.01,-205.76"/>
<polygon fill="black" stroke="black" points="981.51,-205.76 985.01,-215.76 988.51,-205.76 981.51,-205.76"/>
</g>
<!-- RequestsComponent  -->
<g id="node11" class="node">
<title>RequestsComponent </title>
<polygon fill="#fb8072" stroke="black" points="920.88,-252 785.12,-252 785.12,-216 920.88,-216 920.88,-252"/>
<text text-anchor="middle" x="853" y="-229.8" font-family="Times,serif" font-size="14.00">RequestsComponent </text>
</g>
<!-- SharedModule&#45;&gt;RequestsComponent  -->
<g id="edge10" class="edge">
<title>SharedModule&#45;&gt;RequestsComponent </title>
<path fill="none" stroke="black" stroke-dasharray="5,2" d="M853,-187.11C853,-187.11 853,-205.99 853,-205.99"/>
<polygon fill="black" stroke="black" points="849.5,-205.99 853,-215.99 856.5,-205.99 849.5,-205.99"/>
</g>
<!-- SocialShareComponent  -->
<g id="node12" class="node">
<title>SocialShareComponent </title>
<polygon fill="#fb8072" stroke="black" points="766.7,-252 615.3,-252 615.3,-216 766.7,-216 766.7,-252"/>
<text text-anchor="middle" x="691" y="-229.8" font-family="Times,serif" font-size="14.00">SocialShareComponent </text>
</g>
<!-- SharedModule&#45;&gt;SocialShareComponent  -->
<g id="edge11" class="edge">
<title>SharedModule&#45;&gt;SocialShareComponent </title>
<path fill="none" stroke="black" stroke-dasharray="5,2" d="M803.36,-181C749.03,-181 669.55,-181 669.55,-181 669.55,-181 669.55,-205.76 669.55,-205.76"/>
<polygon fill="black" stroke="black" points="666.05,-205.76 669.55,-215.76 673.05,-205.76 666.05,-205.76"/>
</g>
<!-- ConfirmationDialogService -->
<g id="node13" class="node">
<title>ConfirmationDialogService</title>
<ellipse fill="#fdb462" stroke="black" cx="142" cy="-104" rx="118.12" ry="18"/>
<text text-anchor="middle" x="142" y="-99.8" font-family="Times,serif" font-size="14.00">ConfirmationDialogService</text>
</g>
<!-- ConfirmationDialogService&#45;&gt;SharedModule -->
<g id="edge12" class="edge">
<title>ConfirmationDialogService&#45;&gt;SharedModule</title>
<path fill="none" stroke="black" d="M142,-122.28C142,-143.32 142,-175 142,-175 142,-175 793.57,-175 793.57,-175"/>
<polygon fill="black" stroke="black" points="793.57,-178.5 803.57,-175 793.57,-171.5 793.57,-178.5"/>
</g>
</g>
</svg>
