<?xml version="1.0" encoding="UTF-8" standalone="no"?>
<!DOCTYPE svg PUBLIC "-//W3C//DTD SVG 1.1//EN"
 "http://www.w3.org/Graphics/SVG/1.1/DTD/svg11.dtd">
<!-- Generated by graphviz version 2.47.0 (20210316.0004)
 -->
<!-- Title: dependencies Pages: 1 -->
<svg width="635pt" height="211pt"
 viewBox="0.00 0.00 635.00 211.00" xmlns="http://www.w3.org/2000/svg" xmlns:xlink="http://www.w3.org/1999/xlink">
<g id="graph0" class="graph" transform="scale(1 1) rotate(0) translate(4 207)">
<title>dependencies</title>
<polygon fill="white" stroke="transparent" points="-4,4 -4,-207 631,-207 631,4 -4,4"/>
<text text-anchor="start" x="292.51" y="-42.4" font-family="Times-12" font-weight="bold" font-size="14.00">Legend</text>
<polygon fill="#ffffb3" stroke="transparent" points="79.5,-10 79.5,-30 99.5,-30 99.5,-10 79.5,-10"/>
<text text-anchor="start" x="103.13" y="-15.4" font-family="Times-12" font-size="14.00"> &#160;Declarations</text>
<polygon fill="#8dd3c7" stroke="transparent" points="192.5,-10 192.5,-30 212.5,-30 212.5,-10 192.5,-10"/>
<text text-anchor="start" x="216.23" y="-15.4" font-family="Times-12" font-size="14.00"> &#160;Module</text>
<polygon fill="#80b1d3" stroke="transparent" points="278.5,-10 278.5,-30 298.5,-30 298.5,-10 278.5,-10"/>
<text text-anchor="start" x="302.28" y="-15.4" font-family="Times-12" font-size="14.00"> &#160;Bootstrap</text>
<polygon fill="#fdb462" stroke="transparent" points="375.5,-10 375.5,-30 395.5,-30 395.5,-10 375.5,-10"/>
<text text-anchor="start" x="399.17" y="-15.4" font-family="Times-12" font-size="14.00"> &#160;Providers</text>
<polygon fill="#fb8072" stroke="transparent" points="471.5,-10 471.5,-30 491.5,-30 491.5,-10 471.5,-10"/>
<text text-anchor="start" x="495.23" y="-15.4" font-family="Times-12" font-size="14.00"> &#160;Exports</text>
<g id="clust1" class="cluster">
<title>cluster_UttModule</title>
<polygon fill="none" stroke="black" stroke-dasharray="1,5" points="8,-70 8,-195 619,-195 619,-70 8,-70"/>
</g>
<g id="clust2" class="cluster">
<title>cluster_UttModule_declarations</title>
<polygon fill="none" stroke="black" points="168,-78 168,-130 611,-130 611,-78 168,-78"/>
</g>
<g id="clust6" class="cluster">
<title>cluster_UttModule_imports</title>
<polygon fill="none" stroke="black" points="16,-78 16,-130 160,-130 160,-78 16,-78"/>
</g>
<!-- CreateTieComponent -->
<g id="node1" class="node">
<title>CreateTieComponent</title>
<polygon fill="#ffffb3" stroke="black" points="603.02,-122 466.98,-122 466.98,-86 603.02,-86 603.02,-122"/>
<text text-anchor="middle" x="535" y="-99.8" font-family="Times,serif" font-size="14.00">CreateTieComponent</text>
</g>
<!-- UttModule -->
<g id="node4" class="node">
<title>UttModule</title>
<polygon fill="#8dd3c7" stroke="black" points="356.94,-187 353.94,-191 332.94,-191 329.94,-187 279.06,-187 279.06,-151 356.94,-151 356.94,-187"/>
<text text-anchor="middle" x="318" y="-164.8" font-family="Times,serif" font-size="14.00">UttModule</text>
</g>
<!-- CreateTieComponent&#45;&gt;UttModule -->
<g id="edge1" class="edge">
<title>CreateTieComponent&#45;&gt;UttModule</title>
<path fill="none" stroke="black" d="M535,-122.11C535,-141.34 535,-169 535,-169 535,-169 366.8,-169 366.8,-169"/>
<polygon fill="black" stroke="black" points="366.8,-165.5 356.8,-169 366.8,-172.5 366.8,-165.5"/>
</g>
<!-- SquadComponent -->
<g id="node2" class="node">
<title>SquadComponent</title>
<polygon fill="#ffffb3" stroke="black" points="449.33,-122 332.67,-122 332.67,-86 449.33,-86 449.33,-122"/>
<text text-anchor="middle" x="391" y="-99.8" font-family="Times,serif" font-size="14.00">SquadComponent</text>
</g>
<!-- SquadComponent&#45;&gt;UttModule -->
<g id="edge2" class="edge">
<title>SquadComponent&#45;&gt;UttModule</title>
<path fill="none" stroke="black" d="M344.78,-122.11C344.78,-122.11 344.78,-140.99 344.78,-140.99"/>
<polygon fill="black" stroke="black" points="341.28,-140.99 344.78,-150.99 348.28,-140.99 341.28,-140.99"/>
</g>
<!-- UttLayoutComponent -->
<g id="node3" class="node">
<title>UttLayoutComponent</title>
<polygon fill="#ffffb3" stroke="black" points="314.38,-122 175.62,-122 175.62,-86 314.38,-86 314.38,-122"/>
<text text-anchor="middle" x="245" y="-99.8" font-family="Times,serif" font-size="14.00">UttLayoutComponent</text>
</g>
<!-- UttLayoutComponent&#45;&gt;UttModule -->
<g id="edge3" class="edge">
<title>UttLayoutComponent&#45;&gt;UttModule</title>
<path fill="none" stroke="black" d="M296.86,-122.11C296.86,-122.11 296.86,-140.99 296.86,-140.99"/>
<polygon fill="black" stroke="black" points="293.36,-140.99 296.86,-150.99 300.36,-140.99 293.36,-140.99"/>
</g>
<!-- AppRoutingModule -->
<g id="node5" class="node">
<title>AppRoutingModule</title>
<polygon fill="#8dd3c7" stroke="black" points="152.27,-122 149.27,-126 128.27,-126 125.27,-122 23.73,-122 23.73,-86 152.27,-86 152.27,-122"/>
<text text-anchor="middle" x="88" y="-99.8" font-family="Times,serif" font-size="14.00">AppRoutingModule</text>
</g>
<!-- AppRoutingModule&#45;&gt;UttModule -->
<g id="edge4" class="edge">
<title>AppRoutingModule&#45;&gt;UttModule</title>
<path fill="none" stroke="black" d="M88,-122.11C88,-141.34 88,-169 88,-169 88,-169 269.24,-169 269.24,-169"/>
<polygon fill="black" stroke="black" points="269.24,-172.5 279.24,-169 269.24,-165.5 269.24,-172.5"/>
</g>
</g>
</svg>
