<?xml version="1.0" encoding="UTF-8" standalone="no"?>
<!DOCTYPE svg PUBLIC "-//W3C//DTD SVG 1.1//EN"
 "http://www.w3.org/Graphics/SVG/1.1/DTD/svg11.dtd">
<!-- Generated by graphviz version 2.47.0 (20210316.0004)
 -->
<!-- Title: dependencies Pages: 1 -->
<svg width="1421pt" height="211pt"
 viewBox="0.00 0.00 1421.00 211.00" xmlns="http://www.w3.org/2000/svg" xmlns:xlink="http://www.w3.org/1999/xlink">
<g id="graph0" class="graph" transform="scale(1 1) rotate(0) translate(4 207)">
<title>dependencies</title>
<polygon fill="white" stroke="transparent" points="-4,4 -4,-207 1417,-207 1417,4 -4,4"/>
<text text-anchor="start" x="685.51" y="-42.4" font-family="Times-12" font-weight="bold" font-size="14.00">Legend</text>
<polygon fill="#ffffb3" stroke="transparent" points="472.5,-10 472.5,-30 492.5,-30 492.5,-10 472.5,-10"/>
<text text-anchor="start" x="496.13" y="-15.4" font-family="Times-12" font-size="14.00"> &#160;Declarations</text>
<polygon fill="#8dd3c7" stroke="transparent" points="585.5,-10 585.5,-30 605.5,-30 605.5,-10 585.5,-10"/>
<text text-anchor="start" x="609.23" y="-15.4" font-family="Times-12" font-size="14.00"> &#160;Module</text>
<polygon fill="#80b1d3" stroke="transparent" points="671.5,-10 671.5,-30 691.5,-30 691.5,-10 671.5,-10"/>
<text text-anchor="start" x="695.28" y="-15.4" font-family="Times-12" font-size="14.00"> &#160;Bootstrap</text>
<polygon fill="#fdb462" stroke="transparent" points="768.5,-10 768.5,-30 788.5,-30 788.5,-10 768.5,-10"/>
<text text-anchor="start" x="792.17" y="-15.4" font-family="Times-12" font-size="14.00"> &#160;Providers</text>
<polygon fill="#fb8072" stroke="transparent" points="864.5,-10 864.5,-30 884.5,-30 884.5,-10 864.5,-10"/>
<text text-anchor="start" x="888.23" y="-15.4" font-family="Times-12" font-size="14.00"> &#160;Exports</text>
<g id="clust1" class="cluster">
<title>cluster_RegistrationModule</title>
<polygon fill="none" stroke="black" stroke-dasharray="1,5" points="8,-70 8,-195 1405,-195 1405,-70 8,-70"/>
</g>
<g id="clust2" class="cluster">
<title>cluster_RegistrationModule_declarations</title>
<polygon fill="none" stroke="black" points="378,-78 378,-130 1397,-130 1397,-78 378,-78"/>
</g>
<g id="clust9" class="cluster">
<title>cluster_RegistrationModule_imports</title>
<polygon fill="none" stroke="black" points="16,-78 16,-130 370,-130 370,-78 16,-78"/>
</g>
<!-- OpenRegistrationComponent -->
<g id="node1" class="node">
<title>OpenRegistrationComponent</title>
<polygon fill="#ffffb3" stroke="black" points="1389.09,-122 1208.91,-122 1208.91,-86 1389.09,-86 1389.09,-122"/>
<text text-anchor="middle" x="1299" y="-99.8" font-family="Times,serif" font-size="14.00">OpenRegistrationComponent</text>
</g>
<!-- RegistrationModule -->
<g id="node7" class="node">
<title>RegistrationModule</title>
<polygon fill="#8dd3c7" stroke="black" points="745.98,-187 742.98,-191 721.98,-191 718.98,-187 618.02,-187 618.02,-151 745.98,-151 745.98,-187"/>
<text text-anchor="middle" x="682" y="-164.8" font-family="Times,serif" font-size="14.00">RegistrationModule</text>
</g>
<!-- OpenRegistrationComponent&#45;&gt;RegistrationModule -->
<g id="edge1" class="edge">
<title>OpenRegistrationComponent&#45;&gt;RegistrationModule</title>
<path fill="none" stroke="black" d="M1299,-122.29C1299,-144.21 1299,-178 1299,-178 1299,-178 755.99,-178 755.99,-178"/>
<polygon fill="black" stroke="black" points="755.99,-174.5 745.99,-178 755.99,-181.5 755.99,-174.5"/>
</g>
<!-- RegDoublesComponent -->
<g id="node2" class="node">
<title>RegDoublesComponent</title>
<polygon fill="#ffffb3" stroke="black" points="1191.04,-122 1040.96,-122 1040.96,-86 1191.04,-86 1191.04,-122"/>
<text text-anchor="middle" x="1116" y="-99.8" font-family="Times,serif" font-size="14.00">RegDoublesComponent</text>
</g>
<!-- RegDoublesComponent&#45;&gt;RegistrationModule -->
<g id="edge2" class="edge">
<title>RegDoublesComponent&#45;&gt;RegistrationModule</title>
<path fill="none" stroke="black" d="M1116,-122.11C1116,-141.34 1116,-169 1116,-169 1116,-169 756.04,-169 756.04,-169"/>
<polygon fill="black" stroke="black" points="756.04,-165.5 746.04,-169 756.04,-172.5 756.04,-165.5"/>
</g>
<!-- RegMixDoublesComponent -->
<g id="node3" class="node">
<title>RegMixDoublesComponent</title>
<polygon fill="#ffffb3" stroke="black" points="1022.88,-122 849.12,-122 849.12,-86 1022.88,-86 1022.88,-122"/>
<text text-anchor="middle" x="936" y="-99.8" font-family="Times,serif" font-size="14.00">RegMixDoublesComponent</text>
</g>
<!-- RegMixDoublesComponent&#45;&gt;RegistrationModule -->
<g id="edge3" class="edge">
<title>RegMixDoublesComponent&#45;&gt;RegistrationModule</title>
<path fill="none" stroke="black" d="M936,-122.03C936,-138.4 936,-160 936,-160 936,-160 756.09,-160 756.09,-160"/>
<polygon fill="black" stroke="black" points="756.09,-156.5 746.09,-160 756.09,-163.5 756.09,-156.5"/>
</g>
<!-- RegSingleComponent -->
<g id="node4" class="node">
<title>RegSingleComponent</title>
<polygon fill="#ffffb3" stroke="black" points="830.66,-122 691.34,-122 691.34,-86 830.66,-86 830.66,-122"/>
<text text-anchor="middle" x="761" y="-99.8" font-family="Times,serif" font-size="14.00">RegSingleComponent</text>
</g>
<!-- RegSingleComponent&#45;&gt;RegistrationModule -->
<g id="edge4" class="edge">
<title>RegSingleComponent&#45;&gt;RegistrationModule</title>
<path fill="none" stroke="black" d="M718.58,-122.11C718.58,-122.11 718.58,-140.99 718.58,-140.99"/>
<polygon fill="black" stroke="black" points="715.08,-140.99 718.58,-150.99 722.08,-140.99 715.08,-140.99"/>
</g>
<!-- RegTeamsComponent -->
<g id="node5" class="node">
<title>RegTeamsComponent</title>
<polygon fill="#ffffb3" stroke="black" points="673.7,-122 532.3,-122 532.3,-86 673.7,-86 673.7,-122"/>
<text text-anchor="middle" x="603" y="-99.8" font-family="Times,serif" font-size="14.00">RegTeamsComponent</text>
</g>
<!-- RegTeamsComponent&#45;&gt;RegistrationModule -->
<g id="edge5" class="edge">
<title>RegTeamsComponent&#45;&gt;RegistrationModule</title>
<path fill="none" stroke="black" d="M645.8,-122.11C645.8,-122.11 645.8,-140.99 645.8,-140.99"/>
<polygon fill="black" stroke="black" points="642.3,-140.99 645.8,-150.99 649.3,-140.99 642.3,-140.99"/>
</g>
<!-- RegisterComponent -->
<g id="node6" class="node">
<title>RegisterComponent</title>
<polygon fill="#ffffb3" stroke="black" points="513.98,-122 386.02,-122 386.02,-86 513.98,-86 513.98,-122"/>
<text text-anchor="middle" x="450" y="-99.8" font-family="Times,serif" font-size="14.00">RegisterComponent</text>
</g>
<!-- RegisterComponent&#45;&gt;RegistrationModule -->
<g id="edge6" class="edge">
<title>RegisterComponent&#45;&gt;RegistrationModule</title>
<path fill="none" stroke="black" d="M450,-122.03C450,-138.4 450,-160 450,-160 450,-160 607.99,-160 607.99,-160"/>
<polygon fill="black" stroke="black" points="607.99,-163.5 617.99,-160 607.99,-156.5 607.99,-163.5"/>
</g>
<!-- CommonSvgMsgComponent -->
<g id="node8" class="node">
<title>CommonSvgMsgComponent</title>
<polygon fill="#8dd3c7" stroke="black" points="362.12,-122 359.12,-126 338.12,-126 335.12,-122 181.88,-122 181.88,-86 362.12,-86 362.12,-122"/>
<text text-anchor="middle" x="272" y="-99.8" font-family="Times,serif" font-size="14.00">CommonSvgMsgComponent</text>
</g>
<!-- CommonSvgMsgComponent&#45;&gt;RegistrationModule -->
<g id="edge7" class="edge">
<title>CommonSvgMsgComponent&#45;&gt;RegistrationModule</title>
<path fill="none" stroke="black" d="M272,-122.11C272,-141.34 272,-169 272,-169 272,-169 607.94,-169 607.94,-169"/>
<polygon fill="black" stroke="black" points="607.94,-172.5 617.94,-169 607.94,-165.5 607.94,-172.5"/>
</g>
<!-- GifLoaderComponent -->
<g id="node9" class="node">
<title>GifLoaderComponent</title>
<polygon fill="#8dd3c7" stroke="black" points="163.63,-122 160.63,-126 139.63,-126 136.63,-122 24.37,-122 24.37,-86 163.63,-86 163.63,-122"/>
<text text-anchor="middle" x="94" y="-99.8" font-family="Times,serif" font-size="14.00">GifLoaderComponent</text>
</g>
<!-- GifLoaderComponent&#45;&gt;RegistrationModule -->
<g id="edge8" class="edge">
<title>GifLoaderComponent&#45;&gt;RegistrationModule</title>
<path fill="none" stroke="black" d="M94,-122.29C94,-144.21 94,-178 94,-178 94,-178 607.95,-178 607.95,-178"/>
<polygon fill="black" stroke="black" points="607.95,-181.5 617.95,-178 607.95,-174.5 607.95,-181.5"/>
</g>
</g>
</svg>
