<?xml version="1.0" encoding="UTF-8" standalone="no"?>
<!DOCTYPE svg PUBLIC "-//W3C//DTD SVG 1.1//EN"
 "http://www.w3.org/Graphics/SVG/1.1/DTD/svg11.dtd">
<!-- Generated by graphviz version 2.47.0 (20210316.0004)
 -->
<!-- Title: dependencies Pages: 1 -->
<svg width="2519pt" height="211pt"
 viewBox="0.00 0.00 2519.00 211.00" xmlns="http://www.w3.org/2000/svg" xmlns:xlink="http://www.w3.org/1999/xlink">
<g id="graph0" class="graph" transform="scale(1 1) rotate(0) translate(4 207)">
<title>dependencies</title>
<polygon fill="white" stroke="transparent" points="-4,4 -4,-207 2515,-207 2515,4 -4,4"/>
<text text-anchor="start" x="1234.51" y="-42.4" font-family="Times-12" font-weight="bold" font-size="14.00">Legend</text>
<polygon fill="#ffffb3" stroke="transparent" points="1021.5,-10 1021.5,-30 1041.5,-30 1041.5,-10 1021.5,-10"/>
<text text-anchor="start" x="1045.13" y="-15.4" font-family="Times-12" font-size="14.00"> &#160;Declarations</text>
<polygon fill="#8dd3c7" stroke="transparent" points="1134.5,-10 1134.5,-30 1154.5,-30 1154.5,-10 1134.5,-10"/>
<text text-anchor="start" x="1158.23" y="-15.4" font-family="Times-12" font-size="14.00"> &#160;Module</text>
<polygon fill="#80b1d3" stroke="transparent" points="1220.5,-10 1220.5,-30 1240.5,-30 1240.5,-10 1220.5,-10"/>
<text text-anchor="start" x="1244.28" y="-15.4" font-family="Times-12" font-size="14.00"> &#160;Bootstrap</text>
<polygon fill="#fdb462" stroke="transparent" points="1317.5,-10 1317.5,-30 1337.5,-30 1337.5,-10 1317.5,-10"/>
<text text-anchor="start" x="1341.17" y="-15.4" font-family="Times-12" font-size="14.00"> &#160;Providers</text>
<polygon fill="#fb8072" stroke="transparent" points="1413.5,-10 1413.5,-30 1433.5,-30 1433.5,-10 1413.5,-10"/>
<text text-anchor="start" x="1437.23" y="-15.4" font-family="Times-12" font-size="14.00"> &#160;Exports</text>
<g id="clust1" class="cluster">
<title>cluster_DashboardModule</title>
<polygon fill="none" stroke="black" stroke-dasharray="1,5" points="8,-70 8,-195 2503,-195 2503,-70 8,-70"/>
</g>
<g id="clust2" class="cluster">
<title>cluster_DashboardModule_declarations</title>
<polygon fill="none" stroke="black" points="378,-78 378,-130 2495,-130 2495,-78 378,-78"/>
</g>
<g id="clust15" class="cluster">
<title>cluster_DashboardModule_imports</title>
<polygon fill="none" stroke="black" points="16,-78 16,-130 370,-130 370,-78 16,-78"/>
</g>
<!-- CreateDoublesComponent -->
<g id="node1" class="node">
<title>CreateDoublesComponent</title>
<polygon fill="#ffffb3" stroke="black" points="2487.02,-122 2322.98,-122 2322.98,-86 2487.02,-86 2487.02,-122"/>
<text text-anchor="middle" x="2405" y="-99.8" font-family="Times,serif" font-size="14.00">CreateDoublesComponent</text>
</g>
<!-- DashboardModule -->
<g id="node13" class="node">
<title>DashboardModule</title>
<polygon fill="#8dd3c7" stroke="black" points="1267.19,-187 1264.19,-191 1243.19,-191 1240.19,-187 1146.81,-187 1146.81,-151 1267.19,-151 1267.19,-187"/>
<text text-anchor="middle" x="1207" y="-164.8" font-family="Times,serif" font-size="14.00">DashboardModule</text>
</g>
<!-- CreateDoublesComponent&#45;&gt;DashboardModule -->
<g id="edge1" class="edge">
<title>CreateDoublesComponent&#45;&gt;DashboardModule</title>
<path fill="none" stroke="black" d="M2405,-122.09C2405,-145.13 2405,-182 2405,-182 2405,-182 1277.23,-182 1277.23,-182"/>
<polygon fill="black" stroke="black" points="1277.23,-178.5 1267.23,-182 1277.23,-185.5 1277.23,-178.5"/>
</g>
<!-- CreateMixDouble -->
<g id="node2" class="node">
<title>CreateMixDouble</title>
<polygon fill="#ffffb3" stroke="black" points="2304.58,-122 2187.42,-122 2187.42,-86 2304.58,-86 2304.58,-122"/>
<text text-anchor="middle" x="2246" y="-99.8" font-family="Times,serif" font-size="14.00">CreateMixDouble</text>
</g>
<!-- CreateMixDouble&#45;&gt;DashboardModule -->
<g id="edge2" class="edge">
<title>CreateMixDouble&#45;&gt;DashboardModule</title>
<path fill="none" stroke="black" d="M2246,-122.04C2246,-143.66 2246,-177 2246,-177 2246,-177 1277.35,-177 1277.35,-177"/>
<polygon fill="black" stroke="black" points="1277.35,-173.5 1267.35,-177 1277.35,-180.5 1277.35,-173.5"/>
</g>
<!-- CreateTeamComponent -->
<g id="node3" class="node">
<title>CreateTeamComponent</title>
<polygon fill="#ffffb3" stroke="black" points="2169.74,-122 2020.26,-122 2020.26,-86 2169.74,-86 2169.74,-122"/>
<text text-anchor="middle" x="2095" y="-99.8" font-family="Times,serif" font-size="14.00">CreateTeamComponent</text>
</g>
<!-- CreateTeamComponent&#45;&gt;DashboardModule -->
<g id="edge3" class="edge">
<title>CreateTeamComponent&#45;&gt;DashboardModule</title>
<path fill="none" stroke="black" d="M2095,-122.22C2095,-142.37 2095,-172 2095,-172 2095,-172 1277.34,-172 1277.34,-172"/>
<polygon fill="black" stroke="black" points="1277.34,-168.5 1267.34,-172 1277.34,-175.5 1277.34,-168.5"/>
</g>
<!-- DashboardMainComponent -->
<g id="node4" class="node">
<title>DashboardMainComponent</title>
<polygon fill="#ffffb3" stroke="black" points="2001.52,-122 1830.48,-122 1830.48,-86 2001.52,-86 2001.52,-122"/>
<text text-anchor="middle" x="1916" y="-99.8" font-family="Times,serif" font-size="14.00">DashboardMainComponent</text>
</g>
<!-- DashboardMainComponent&#45;&gt;DashboardModule -->
<g id="edge4" class="edge">
<title>DashboardMainComponent&#45;&gt;DashboardModule</title>
<path fill="none" stroke="black" d="M1916,-122.22C1916,-140.83 1916,-167 1916,-167 1916,-167 1277.14,-167 1277.14,-167"/>
<polygon fill="black" stroke="black" points="1277.14,-163.5 1267.14,-167 1277.14,-170.5 1277.14,-163.5"/>
</g>
<!-- DshboardDoublesComponent -->
<g id="node5" class="node">
<title>DshboardDoublesComponent</title>
<polygon fill="#ffffb3" stroke="black" points="1812.42,-122 1629.58,-122 1629.58,-86 1812.42,-86 1812.42,-122"/>
<text text-anchor="middle" x="1721" y="-99.8" font-family="Times,serif" font-size="14.00">DshboardDoublesComponent</text>
</g>
<!-- DshboardDoublesComponent&#45;&gt;DashboardModule -->
<g id="edge5" class="edge">
<title>DshboardDoublesComponent&#45;&gt;DashboardModule</title>
<path fill="none" stroke="black" d="M1721,-122.03C1721,-139.06 1721,-162 1721,-162 1721,-162 1277.22,-162 1277.22,-162"/>
<polygon fill="black" stroke="black" points="1277.22,-158.5 1267.22,-162 1277.22,-165.5 1277.22,-158.5"/>
</g>
<!-- DshboardMixDoublesComponent -->
<g id="node6" class="node">
<title>DshboardMixDoublesComponent</title>
<polygon fill="#ffffb3" stroke="black" points="1611.75,-122 1406.25,-122 1406.25,-86 1611.75,-86 1611.75,-122"/>
<text text-anchor="middle" x="1509" y="-99.8" font-family="Times,serif" font-size="14.00">DshboardMixDoublesComponent</text>
</g>
<!-- DshboardMixDoublesComponent&#45;&gt;DashboardModule -->
<g id="edge6" class="edge">
<title>DshboardMixDoublesComponent&#45;&gt;DashboardModule</title>
<path fill="none" stroke="black" d="M1509,-122.24C1509,-137.57 1509,-157 1509,-157 1509,-157 1277.39,-157 1277.39,-157"/>
<polygon fill="black" stroke="black" points="1277.39,-153.5 1267.39,-157 1277.39,-160.5 1277.39,-153.5"/>
</g>
<!-- DshboardSingleComponent -->
<g id="node7" class="node">
<title>DshboardSingleComponent</title>
<polygon fill="#ffffb3" stroke="black" points="1387.54,-122 1216.46,-122 1216.46,-86 1387.54,-86 1387.54,-122"/>
<text text-anchor="middle" x="1302" y="-99.8" font-family="Times,serif" font-size="14.00">DshboardSingleComponent</text>
</g>
<!-- DshboardSingleComponent&#45;&gt;DashboardModule -->
<g id="edge7" class="edge">
<title>DshboardSingleComponent&#45;&gt;DashboardModule</title>
<path fill="none" stroke="black" d="M1241.66,-122.11C1241.66,-122.11 1241.66,-140.99 1241.66,-140.99"/>
<polygon fill="black" stroke="black" points="1238.16,-140.99 1241.66,-150.99 1245.16,-140.99 1238.16,-140.99"/>
</g>
<!-- DshboardTeamsComponent -->
<g id="node8" class="node">
<title>DshboardTeamsComponent</title>
<polygon fill="#ffffb3" stroke="black" points="1198.58,-122 1025.42,-122 1025.42,-86 1198.58,-86 1198.58,-122"/>
<text text-anchor="middle" x="1112" y="-99.8" font-family="Times,serif" font-size="14.00">DshboardTeamsComponent</text>
</g>
<!-- DshboardTeamsComponent&#45;&gt;DashboardModule -->
<g id="edge8" class="edge">
<title>DshboardTeamsComponent&#45;&gt;DashboardModule</title>
<path fill="none" stroke="black" d="M1172.72,-122.11C1172.72,-122.11 1172.72,-140.99 1172.72,-140.99"/>
<polygon fill="black" stroke="black" points="1169.22,-140.99 1172.72,-150.99 1176.22,-140.99 1169.22,-140.99"/>
</g>
<!-- FeedBackComponent -->
<g id="node9" class="node">
<title>FeedBackComponent</title>
<polygon fill="#ffffb3" stroke="black" points="1007.81,-122 870.19,-122 870.19,-86 1007.81,-86 1007.81,-122"/>
<text text-anchor="middle" x="939" y="-99.8" font-family="Times,serif" font-size="14.00">FeedBackComponent</text>
</g>
<!-- FeedBackComponent&#45;&gt;DashboardModule -->
<g id="edge9" class="edge">
<title>FeedBackComponent&#45;&gt;DashboardModule</title>
<path fill="none" stroke="black" d="M939,-122.24C939,-137.57 939,-157 939,-157 939,-157 1136.86,-157 1136.86,-157"/>
<polygon fill="black" stroke="black" points="1136.86,-160.5 1146.86,-157 1136.86,-153.5 1136.86,-160.5"/>
</g>
<!-- PlayerDetailsComponent -->
<g id="node10" class="node">
<title>PlayerDetailsComponent</title>
<polygon fill="#ffffb3" stroke="black" points="852.25,-122 695.75,-122 695.75,-86 852.25,-86 852.25,-122"/>
<text text-anchor="middle" x="774" y="-99.8" font-family="Times,serif" font-size="14.00">PlayerDetailsComponent</text>
</g>
<!-- PlayerDetailsComponent&#45;&gt;DashboardModule -->
<g id="edge10" class="edge">
<title>PlayerDetailsComponent&#45;&gt;DashboardModule</title>
<path fill="none" stroke="black" d="M774,-122.03C774,-139.06 774,-162 774,-162 774,-162 1136.79,-162 1136.79,-162"/>
<polygon fill="black" stroke="black" points="1136.79,-165.5 1146.79,-162 1136.79,-158.5 1136.79,-165.5"/>
</g>
<!-- ReportIssueComponent -->
<g id="node11" class="node">
<title>ReportIssueComponent</title>
<polygon fill="#ffffb3" stroke="black" points="678.2,-122 529.8,-122 529.8,-86 678.2,-86 678.2,-122"/>
<text text-anchor="middle" x="604" y="-99.8" font-family="Times,serif" font-size="14.00">ReportIssueComponent</text>
</g>
<!-- ReportIssueComponent&#45;&gt;DashboardModule -->
<g id="edge11" class="edge">
<title>ReportIssueComponent&#45;&gt;DashboardModule</title>
<path fill="none" stroke="black" d="M604,-122.22C604,-140.83 604,-167 604,-167 604,-167 1136.7,-167 1136.7,-167"/>
<polygon fill="black" stroke="black" points="1136.7,-170.5 1146.7,-167 1136.7,-163.5 1136.7,-170.5"/>
</g>
<!-- SupportComponent -->
<g id="node12" class="node">
<title>SupportComponent</title>
<polygon fill="#ffffb3" stroke="black" points="511.67,-122 386.33,-122 386.33,-86 511.67,-86 511.67,-122"/>
<text text-anchor="middle" x="449" y="-99.8" font-family="Times,serif" font-size="14.00">SupportComponent</text>
</g>
<!-- SupportComponent&#45;&gt;DashboardModule -->
<g id="edge12" class="edge">
<title>SupportComponent&#45;&gt;DashboardModule</title>
<path fill="none" stroke="black" d="M449,-122.22C449,-142.37 449,-172 449,-172 449,-172 1136.89,-172 1136.89,-172"/>
<polygon fill="black" stroke="black" points="1136.89,-175.5 1146.89,-172 1136.89,-168.5 1136.89,-175.5"/>
</g>
<!-- CommonSvgMsgComponent -->
<g id="node14" class="node">
<title>CommonSvgMsgComponent</title>
<polygon fill="#8dd3c7" stroke="black" points="362.12,-122 359.12,-126 338.12,-126 335.12,-122 181.88,-122 181.88,-86 362.12,-86 362.12,-122"/>
<text text-anchor="middle" x="272" y="-99.8" font-family="Times,serif" font-size="14.00">CommonSvgMsgComponent</text>
</g>
<!-- CommonSvgMsgComponent&#45;&gt;DashboardModule -->
<g id="edge13" class="edge">
<title>CommonSvgMsgComponent&#45;&gt;DashboardModule</title>
<path fill="none" stroke="black" d="M272,-122.04C272,-143.66 272,-177 272,-177 272,-177 1136.73,-177 1136.73,-177"/>
<polygon fill="black" stroke="black" points="1136.73,-180.5 1146.73,-177 1136.73,-173.5 1136.73,-180.5"/>
</g>
<!-- GifLoaderComponent -->
<g id="node15" class="node">
<title>GifLoaderComponent</title>
<polygon fill="#8dd3c7" stroke="black" points="163.63,-122 160.63,-126 139.63,-126 136.63,-122 24.37,-122 24.37,-86 163.63,-86 163.63,-122"/>
<text text-anchor="middle" x="94" y="-99.8" font-family="Times,serif" font-size="14.00">GifLoaderComponent</text>
</g>
<!-- GifLoaderComponent&#45;&gt;DashboardModule -->
<g id="edge14" class="edge">
<title>GifLoaderComponent&#45;&gt;DashboardModule</title>
<path fill="none" stroke="black" d="M94,-122.09C94,-145.13 94,-182 94,-182 94,-182 1136.77,-182 1136.77,-182"/>
<polygon fill="black" stroke="black" points="1136.77,-185.5 1146.77,-182 1136.77,-178.5 1136.77,-185.5"/>
</g>
</g>
</svg>
