<svg width="16" height="16" viewBox="0 0 16 16" fill="none" xmlns="http://www.w3.org/2000/svg">
<path d="M11.75 1.83337H14.75C14.9489 1.83337 15.1397 1.91239 15.2803 2.05304C15.421 2.1937 15.5 2.38446 15.5 2.58337V14.5834C15.5 14.7823 15.421 14.9731 15.2803 15.1137C15.1397 15.2544 14.9489 15.3334 14.75 15.3334H1.25C1.05109 15.3334 0.860322 15.2544 0.71967 15.1137C0.579018 14.9731 0.5 14.7823 0.5 14.5834V2.58337C0.5 2.38446 0.579018 2.1937 0.71967 2.05304C0.860322 1.91239 1.05109 1.83337 1.25 1.83337H4.25V0.333374H5.75V1.83337H10.25V0.333374H11.75V1.83337ZM10.25 3.33337H5.75V4.83337H4.25V3.33337H2V6.33337H14V3.33337H11.75V4.83337H10.25V3.33337ZM14 7.83337H2V13.8334H14V7.83337ZM3.5 10.0834H5V11.5834H3.5V10.0834ZM6.5 10.0834H12.5V11.5834H6.5V10.0834Z" fill="black"/>
</svg>
