<svg viewBox="0 0 366 291" fill="none" xmlns="http://www.w3.org/2000/svg">
    <g clip-path="url(#clip0_7631_74)">
        <path d="M321.502 282.382L313.893 282.381L310.273 253.09L321.503 253.091L321.502 282.382Z"
            fill="#FFB6B6" />
        <path
            d="M321.773 290.305L298.375 290.304V290.009C298.375 284.989 302.453 280.92 307.482 280.92L311.756 277.684L319.731 280.92L321.773 280.92L321.773 290.305Z"
            fill="#2F2E41" />
        <path d="M287.767 282.382L280.159 282.381L276.539 253.09L287.769 253.091L287.767 282.382Z"
            fill="#FFB6B6" />
        <path
            d="M288.038 290.305L264.641 290.304V290.009C264.641 284.989 268.718 280.92 273.748 280.92L278.022 277.684L285.996 280.92L288.039 280.92L288.038 290.305Z"
            fill="#2F2E41" />
        <path
            d="M284.145 118.914L328.042 119.836C328.042 119.836 335.934 132.75 329.909 150.966L330.584 156.039L327.811 163.88L326.425 187.861L327.811 191.551L326.887 198.469C326.887 198.469 330.584 244.126 321.342 267.185L310.252 266.724L306.093 206.561L308.404 202.158L307.942 200.313L302.397 172.642L296.852 186.939V194.883L291.769 200.774C291.769 200.774 293.617 255.194 288.534 266.263H276.118L271.438 192.473L276.058 149.583L275.134 146.816L276.52 145.432L275.596 140.82L284.145 118.914Z"
            fill="#2F2E41" />
        <path
            d="M302.86 34.7478L316.26 31.5195L319.957 40.2821C319.957 40.2821 339.082 50.4281 340.006 64.2637C340.006 64.2637 342.598 75.3321 340.288 80.4052C337.978 85.4782 328.274 101.62 328.274 101.62C328.274 101.62 337.054 129.752 334.743 131.136C332.433 132.519 277.445 129.752 277.445 126.985C277.445 124.218 286.597 95.1631 286.597 95.1631L288.535 45.3551L301.011 40.7432L302.86 34.7478Z"
            fill="#3F3D56" />
        <path
            d="M338.58 148.275C335.775 146.864 334.647 143.452 336.06 140.653C336.203 140.371 336.37 140.111 336.55 139.864L329.094 88.8398L339.417 89.1694L344.817 138.884C346.774 140.541 347.423 143.372 346.217 145.76C344.804 148.56 341.385 149.686 338.58 148.275Z"
            fill="#FFB6B6" />
        <path
            d="M240.632 124.195C239.503 121.27 240.963 117.985 243.893 116.858C244.188 116.745 244.487 116.665 244.787 116.602L273.592 73.7969L281.02 80.96L251.572 121.417C251.907 123.957 250.483 126.489 247.983 127.451C245.052 128.578 241.761 127.12 240.632 124.195Z"
            fill="#FFB6B6" />
        <path
            d="M319.775 75.972C316.858 65.9709 321.702 55.7673 332.138 55.8166C335.155 55.8308 337.498 56.7044 338.148 59.1226C340.421 67.5863 341.661 80.3624 341.661 80.3624L344.357 93.9649L342.724 96.7893L346.129 105.905L344.477 110.218L344.12 132.241L335.803 131.78L326.639 114.99L323.134 112.911C323.134 112.911 325.948 85.7653 320.351 77.9494L319.775 75.972Z"
            fill="#3F3D56" />
        <path
            d="M282.516 51.3575C287.38 42.1416 299.831 39.9586 307.303 47.2303C309.463 49.3321 310.54 51.5854 309.324 53.7751C305.068 61.4391 295.202 69.6908 295.202 69.6908L283.053 89.1848L279.912 90.0838L276.016 99.0016L267.668 108.798L256.61 114.619L250.141 108.162L251.514 99.8624L268.162 77.7238C268.162 77.7238 280.14 62.6822 281.555 53.1797L282.516 51.3575Z"
            fill="#3F3D56" />
        <path
            d="M305.407 32.0536C305.713 32.0903 306.018 32.1178 306.322 32.1317C307.266 32.1833 308.199 32.1296 309.098 31.9774C311.83 31.5404 314.312 30.2489 316.228 28.355C318.252 26.3565 319.638 23.6891 320.013 20.6524C320.89 13.4846 315.776 6.95525 308.594 6.07943C301.516 5.21109 295.063 10.1525 294.033 17.1558C294.017 17.2642 294 17.368 293.989 17.476C293.112 24.6484 298.22 31.1737 305.407 32.0536Z"
            fill="#FFB6B6" />
        <path
            d="M291.075 16.6754C292.935 17.5936 295.975 14.7069 297.139 16.3678C297.328 16.0088 297.537 15.6617 297.743 15.3335C297.93 15.0397 298.197 14.4127 298.506 14.3053C298.115 15.2472 298.201 16.5227 298.607 17.6156C300.442 18.3 302.844 16.7851 304.543 14.9933C307.21 12.1837 311.565 19.3883 310.535 23.1168C311.845 21.5197 314.689 22.4204 315.653 24.2466C316.616 26.0682 314.988 27.5277 314.64 29.5596L317.267 29.2266C318.925 27.6154 318.809 24.9005 320.174 23.0331C322.454 19.9079 323.337 16.7193 321.623 13.494C320.103 10.6422 319.961 6.95129 317.172 5.30713C318.39 4.71249 314.057 5.64146 315.214 3.7036C316.377 1.7698 310.18 1.53509 309.776 2.57111C308.005 0.455856 306.219 -0.938774 304.041 0.756149C301.901 2.42368 302.123 4.17645 299.61 4.01937C298.431 3.94647 298.56 6.14047 297.859 7.09702C297.163 8.04846 294.454 8.65924 294.322 8.55742C293.607 7.99875 291.173 12.7547 291.173 12.7547C291.173 12.7547 289.199 15.7449 291.075 16.6754Z"
            fill="#2F2E41" />
        <path
            d="M127.109 99.6836C171.128 99.6836 206.813 135.3 206.813 179.234C206.813 223.169 171.128 258.785 127.109 258.785C83.0891 258.785 22.1676 215.225 47.4041 179.234C72.6406 143.243 83.0891 99.6836 127.109 99.6836Z"
            fill="#F2F2F2" />
        <path
            d="M233.788 103.469C233.073 103.469 232.492 104.049 232.492 104.762V146.154C232.492 146.868 233.073 147.448 233.788 147.448C234.503 147.448 235.084 146.868 235.084 146.154V104.762C235.084 104.049 234.503 103.469 233.788 103.469Z"
            fill="#3F3D56" />
        <path
            d="M16.0616 72.4258C15.3469 72.4258 14.7656 73.0059 14.7656 73.7193V84.0673C14.7656 84.7807 15.3469 85.3608 16.0616 85.3608C16.7764 85.3608 17.3576 84.7807 17.3576 84.0673V73.7193C17.3576 73.0059 16.7764 72.4258 16.0616 72.4258Z"
            fill="#3F3D56" />
        <path
            d="M16.0616 103.469C15.3469 103.469 14.7656 104.049 14.7656 104.762V124.812C14.7656 125.525 15.3469 126.105 16.0616 126.105C16.7764 126.105 17.3576 125.525 17.3576 124.812V104.762C17.3576 104.049 16.7764 103.469 16.0616 103.469Z"
            fill="#3F3D56" />
        <path
            d="M16.0616 131.926C15.3469 131.926 14.7656 132.506 14.7656 133.219V153.269C14.7656 153.982 15.3469 154.562 16.0616 154.562C16.7764 154.562 17.3576 153.982 17.3576 153.269V133.219C17.3576 132.506 16.7764 131.926 16.0616 131.926Z"
            fill="#3F3D56" />
        <path
            d="M132.296 31.6797C131.581 31.6797 131 32.2598 131 32.9732V53.0225C131 53.7359 131.581 54.316 132.296 54.316C133.011 54.316 133.592 53.7359 133.592 53.0225V32.9732C133.592 32.2598 133.011 31.6797 132.296 31.6797Z"
            fill="#3F3D56" />
        <path
            d="M330.841 279.791C332.18 279.874 332.92 278.214 331.907 277.247L331.806 276.847C331.82 276.815 331.833 276.783 331.846 276.751C333.2 273.529 337.789 273.551 339.131 276.778C340.322 279.642 341.839 282.511 342.213 285.539C342.38 286.875 342.305 288.237 342.008 289.549C344.799 283.463 346.268 276.817 346.268 270.133C346.268 268.454 346.176 266.774 345.988 265.099C345.833 263.729 345.62 262.367 345.343 261.018C343.849 253.725 340.614 246.778 335.947 240.975C333.704 239.751 331.833 237.838 330.703 235.545C330.297 234.718 329.979 233.828 329.828 232.922C330.083 232.955 330.791 229.074 330.598 228.836C330.954 228.297 331.591 228.03 331.979 227.504C333.912 224.889 336.575 225.345 337.965 228.899C340.934 230.395 340.963 232.875 339.141 235.261C337.982 236.779 337.822 238.833 336.805 240.457C336.91 240.591 337.019 240.721 337.123 240.854C339.042 243.311 340.702 245.951 342.101 248.724C341.705 245.642 342.289 241.928 343.284 239.534C344.417 236.807 346.54 234.51 348.41 232.152C350.656 229.319 355.262 230.555 355.657 234.146C355.661 234.181 355.665 234.215 355.669 234.25C355.391 234.406 355.119 234.573 354.853 234.748C353.337 235.749 353.861 238.094 355.657 238.371L355.698 238.377C355.598 239.376 355.426 240.366 355.175 241.339C357.574 250.598 352.395 253.97 345 254.121C344.837 254.205 344.678 254.288 344.515 254.368C345.264 256.473 345.862 258.633 346.306 260.822C346.704 262.756 346.98 264.711 347.135 266.674C347.327 269.151 347.311 271.641 347.101 274.114L347.114 274.026C347.645 271.303 349.127 268.759 351.278 266.996C354.483 264.368 359.011 263.401 362.468 261.289C364.132 260.272 366.265 261.586 365.975 263.512L365.961 263.604C365.446 263.813 364.944 264.055 364.458 264.326C364.18 264.483 363.908 264.649 363.642 264.824C362.126 265.825 362.65 268.171 364.447 268.447L364.487 268.454C364.517 268.458 364.542 268.462 364.571 268.466C363.688 270.559 362.457 272.501 360.917 274.177C359.417 282.259 352.975 283.026 346.084 280.672H346.08C345.327 283.947 344.226 287.147 342.811 290.196H331.134C331.092 290.067 331.054 289.933 331.017 289.804C332.097 289.871 333.185 289.808 334.248 289.612C333.382 288.551 332.515 287.481 331.649 286.42C331.628 286.399 331.611 286.378 331.594 286.357C331.155 285.814 330.711 285.276 330.272 284.733L330.272 284.732C330.244 283.065 330.445 281.403 330.841 279.791Z"
            fill="#F2F2F2" />
        <path
            d="M0 290.231C0 290.657 0.343462 291 0.771165 291H365.138C365.566 291 365.909 290.657 365.909 290.231C365.909 289.804 365.566 289.461 365.138 289.461H0.771165C0.343462 289.461 0 289.804 0 290.231Z"
            fill="#CCCCCC" />
        <path
            d="M92.2616 173.871H47.4062V172.577H92.2616C96.1582 172.577 99.3283 169.413 99.3283 165.524V135.254H100.624V165.524C100.624 170.126 96.873 173.871 92.2616 173.871Z"
            fill="#1B403A" />
        <path d="M177.848 239.488H75.8281V240.782H177.848V239.488Z" fill="#1B403A" />
        <path
            d="M242.575 165.224H188.083C185.142 165.224 182.75 162.836 182.75 159.901V106.178C182.75 103.243 185.142 100.855 188.083 100.855H242.575C245.516 100.855 247.908 103.243 247.908 106.178V159.901C247.908 162.836 245.516 165.224 242.575 165.224Z"
            fill="#E6E6E6" />
        <path
            d="M198.228 102.441C190.556 102.441 184.336 108.649 184.336 116.307V158.761C184.336 161.455 186.524 163.638 189.222 163.638H222.542C235.672 163.638 246.316 153.015 246.316 139.911V107.318C246.316 104.625 244.128 102.441 241.43 102.441L198.228 102.441Z"
            fill="white" />
        <path
            d="M229.919 118.055H200.615C200.056 118.055 199.602 117.601 199.602 117.043C199.602 116.485 200.056 116.031 200.615 116.031H229.919C230.478 116.031 230.932 116.485 230.932 117.043C230.932 117.601 230.478 118.055 229.919 118.055Z"
            fill="#E6E6E6" />
        <path
            d="M229.919 139.633H200.615C200.056 139.633 199.602 139.179 199.602 138.621C199.602 138.063 200.056 137.609 200.615 137.609H229.919C230.478 137.609 230.932 138.063 230.932 138.621C230.932 139.179 230.478 139.633 229.919 139.633Z"
            fill="#E6E6E6" />
        <path
            d="M241.819 128.852H188.717C188.158 128.852 187.703 128.398 187.703 127.84C187.703 127.282 188.158 126.828 188.717 126.828H241.819C242.378 126.828 242.833 127.282 242.833 127.84C242.833 128.398 242.378 128.852 241.819 128.852Z"
            fill="#E6E6E6" />
        <path
            d="M242.361 148.407H223.178C222.619 148.407 222.164 147.953 222.164 147.395C222.164 146.837 222.619 146.383 223.178 146.383H242.361C242.92 146.383 243.375 146.837 243.375 147.395C243.375 147.953 242.92 148.407 242.361 148.407Z"
            fill="#E6E6E6" />
        <path
            d="M128.114 272.261H84.8442C82.5091 272.261 80.6094 270.365 80.6094 268.035V225.375C80.6094 223.044 82.5091 221.148 84.8442 221.148H128.114C130.45 221.148 132.349 223.044 132.349 225.375V268.035C132.349 270.365 130.45 272.261 128.114 272.261Z"
            fill="#E6E6E6" />
        <path
            d="M92.9064 222.406C86.8139 222.406 81.875 227.336 81.875 233.416V267.128C81.875 269.267 83.6121 271.001 85.7549 271.001H112.214C122.639 271.001 131.091 262.565 131.091 252.159V226.279C131.091 224.14 129.354 222.406 127.211 222.406L92.9064 222.406Z"
            fill="white" />
        <path
            d="M118.066 234.806H94.7973C94.3534 234.806 93.9922 234.446 93.9922 234.003C93.9922 233.56 94.3534 233.199 94.7973 233.199H118.066C118.51 233.199 118.871 233.56 118.871 234.003C118.871 234.446 118.51 234.806 118.066 234.806Z"
            fill="#E6E6E6" />
        <path
            d="M118.066 251.939H94.7973C94.3534 251.939 93.9922 251.579 93.9922 251.135C93.9922 250.692 94.3534 250.332 94.7973 250.332H118.066C118.51 250.332 118.871 250.692 118.871 251.135C118.871 251.579 118.51 251.939 118.066 251.939Z"
            fill="#E6E6E6" />
        <path
            d="M127.519 243.38H85.352C84.9081 243.38 84.5469 243.02 84.5469 242.577C84.5469 242.134 84.9081 241.773 85.352 241.773H127.519C127.963 241.773 128.324 242.134 128.324 242.577C128.324 243.02 127.963 243.38 127.519 243.38Z"
            fill="#E6E6E6" />
        <path
            d="M127.944 258.908H112.711C112.267 258.908 111.906 258.547 111.906 258.104C111.906 257.661 112.267 257.301 112.711 257.301H127.944C128.388 257.301 128.749 257.661 128.749 258.104C128.749 258.547 128.388 258.908 127.944 258.908Z"
            fill="#E6E6E6" />
        <path
            d="M97.8743 134.929H65.874C64.1471 134.929 62.7422 133.527 62.7422 131.803V100.255C62.7422 98.5311 64.1471 97.1289 65.874 97.1289H97.8743C99.6012 97.1289 101.006 98.5311 101.006 100.255V131.803C101.006 133.527 99.6012 134.929 97.8743 134.929Z"
            fill="#E6E6E6" />
        <path
            d="M71.83 98.0586C67.3244 98.0586 63.6719 101.704 63.6719 106.201V131.132C63.6719 132.714 64.9565 133.996 66.5412 133.996H86.1085C93.819 133.996 100.07 127.758 100.07 120.062V100.922C100.07 99.3408 98.7849 98.0586 97.2002 98.0586L71.83 98.0586Z"
            fill="white" />
        <path
            d="M90.4443 107.228H73.2361C72.9078 107.228 72.6406 106.961 72.6406 106.633C72.6406 106.306 72.9078 106.039 73.2361 106.039H90.4443C90.7726 106.039 91.0396 106.306 91.0396 106.633C91.0396 106.961 90.7726 107.228 90.4443 107.228Z"
            fill="#E6E6E6" />
        <path
            d="M90.4443 119.899H73.2361C72.9078 119.899 72.6406 119.633 72.6406 119.305C72.6406 118.977 72.9078 118.711 73.2361 118.711H90.4443C90.7726 118.711 91.0396 118.977 91.0396 119.305C91.0396 119.633 90.7726 119.899 90.4443 119.899Z"
            fill="#E6E6E6" />
        <path
            d="M97.4357 113.567H66.2517C65.9234 113.567 65.6562 113.301 65.6562 112.973C65.6562 112.645 65.9234 112.379 66.2517 112.379H97.4357C97.764 112.379 98.031 112.645 98.031 112.973C98.031 113.301 97.764 113.567 97.4357 113.567Z"
            fill="#E6E6E6" />
        <path
            d="M97.7514 125.052H86.4861C86.1578 125.052 85.8906 124.785 85.8906 124.457C85.8906 124.13 86.1578 123.863 86.4861 123.863H97.7514C98.0797 123.863 98.3467 124.13 98.3467 124.457C98.3467 124.785 98.0797 125.052 97.7514 125.052Z"
            fill="#E6E6E6" />
        <path
            d="M191.261 174.708C194.84 174.708 197.741 171.813 197.741 168.241C197.741 164.669 194.84 161.773 191.261 161.773C187.682 161.773 184.781 164.669 184.781 168.241C184.781 171.813 187.682 174.708 191.261 174.708Z"
            fill="#1B403A" />
        <path
            d="M99.8941 141.724C103.473 141.724 106.374 138.828 106.374 135.257C106.374 131.685 103.473 128.789 99.8941 128.789C96.3153 128.789 93.4141 131.685 93.4141 135.257C93.4141 138.828 96.3153 141.724 99.8941 141.724Z"
            fill="#1B403A" />
        <path
            d="M130.996 230.33C134.575 230.33 137.476 227.434 137.476 223.862C137.476 220.29 134.575 217.395 130.996 217.395C127.417 217.395 124.516 220.29 124.516 223.862C124.516 227.434 127.417 230.33 130.996 230.33Z"
            fill="#1B403A" />
        <path
            d="M144.998 50.9965C149.459 50.9965 153.074 47.4636 153.074 43.1057C153.074 38.7477 149.459 35.2148 144.998 35.2148C140.538 35.2148 136.922 38.7477 136.922 43.1057C136.922 47.4636 140.538 50.9965 144.998 50.9965Z"
            fill="#F2F2F2" />
        <path
            d="M209.739 40.4068H166.267C164.776 40.4068 163.562 39.1958 163.562 37.7073C163.562 36.2189 164.776 35.0078 166.267 35.0078H209.739C211.23 35.0078 212.443 36.2189 212.443 37.7073C212.443 39.1958 211.23 40.4068 209.739 40.4068Z"
            fill="#F2F2F2" />
        <path
            d="M243.664 49.5435H166.267C164.776 49.5435 163.562 48.3325 163.562 46.844C163.562 45.3556 164.776 44.1445 166.267 44.1445H243.664C245.155 44.1445 246.369 45.3556 246.369 46.844C246.369 48.3325 245.155 49.5435 243.664 49.5435Z"
            fill="#F2F2F2" />
        <path
            d="M28.094 84.1589C30.9807 84.1589 33.3209 81.8725 33.3209 79.0521C33.3209 76.2317 30.9807 73.9453 28.094 73.9453C25.2073 73.9453 22.8672 76.2317 22.8672 79.0521C22.8672 81.8725 25.2073 84.1589 28.094 84.1589Z"
            fill="#F2F2F2" />
        <path
            d="M69.9939 77.3066H41.8598C40.8947 77.3066 40.1094 76.5229 40.1094 75.5596C40.1094 74.5963 40.8947 73.8125 41.8598 73.8125H69.9939C70.9591 73.8125 71.7443 74.5963 71.7443 75.5596C71.7443 76.5229 70.959 77.3066 69.9939 77.3066Z"
            fill="#F2F2F2" />
        <path
            d="M91.9498 83.2207H41.8598C40.8947 83.2207 40.1094 82.4369 40.1094 81.4736C40.1094 80.5103 40.8947 79.7266 41.8598 79.7266H91.9498C92.915 79.7266 93.7002 80.5103 93.7002 81.4736C93.7002 82.4369 92.915 83.2207 91.9498 83.2207Z"
            fill="#F2F2F2" />
        <path
            d="M184.914 265.897C187.801 265.897 190.141 263.611 190.141 260.79C190.141 257.97 187.801 255.684 184.914 255.684C182.028 255.684 179.688 257.97 179.688 260.79C179.688 263.611 182.028 265.897 184.914 265.897Z"
            fill="#F2F2F2" />
        <path
            d="M226.814 259.045H198.68C197.715 259.045 196.93 258.261 196.93 257.298C196.93 256.335 197.715 255.551 198.68 255.551H226.814C227.779 255.551 228.565 256.335 228.565 257.298C228.565 258.261 227.779 259.045 226.814 259.045Z"
            fill="#F2F2F2" />
        <path
            d="M248.77 264.959H198.68C197.715 264.959 196.93 264.175 196.93 263.212C196.93 262.249 197.715 261.465 198.68 261.465H248.77C249.735 261.465 250.521 262.249 250.521 263.212C250.521 264.175 249.735 264.959 248.77 264.959Z"
            fill="#F2F2F2" />
        <path d="M122.085 100.875H120.789V162.316H122.085V100.875Z" fill="#E6E6E6" />
        <path
            d="M121.443 166.195C123.59 166.195 125.331 164.457 125.331 162.314C125.331 160.171 123.59 158.434 121.443 158.434C119.295 158.434 117.555 160.171 117.555 162.314C117.555 164.457 119.295 166.195 121.443 166.195Z"
            fill="#E6E6E6" />
        <path
            d="M180.411 210.824C182.559 210.824 184.299 209.086 184.299 206.943C184.299 204.8 182.559 203.062 180.411 203.062C178.264 203.062 176.523 204.8 176.523 206.943C176.523 209.086 178.264 210.824 180.411 210.824Z"
            fill="#E6E6E6" />
        <path
            d="M75.4349 157.788C77.5822 157.788 79.3229 156.051 79.3229 153.908C79.3229 151.765 77.5822 150.027 75.4349 150.027C73.2876 150.027 71.5469 151.765 71.5469 153.908C71.5469 156.051 73.2876 157.788 75.4349 157.788Z"
            fill="#E6E6E6" />
        <path d="M73.9973 153.912L52.7344 154.555L52.7736 155.848L74.0365 155.206L73.9973 153.912Z"
            fill="#E6E6E6" />
        <path d="M212.039 221.797H179.797V206.941H181.093V220.504H212.039V221.797Z" fill="#E6E6E6" />
        <path
            d="M73.8333 200.159C75.9806 200.159 77.7214 198.422 77.7214 196.279C77.7214 194.136 75.9806 192.398 73.8333 192.398C71.686 192.398 69.9453 194.136 69.9453 196.279C69.9453 198.422 71.686 200.159 73.8333 200.159Z"
            fill="#E6E6E6" />
        <path d="M105.078 211.137H72.8359V196.281H74.1319V209.843H105.078V211.137Z" fill="#E6E6E6" />
        <path d="M203.737 181.516H48.875V182.809H203.737V181.516Z" fill="#E6E6E6" />
    </g>
    <defs>
        <clipPath id="clip0_7631_74">
            <rect width="366" height="291" fill="white" />
        </clipPath>
    </defs>
</svg>