<svg width="11" height="10" viewBox="0 0 11 10" fill="none" xmlns="http://www.w3.org/2000/svg">
<path d="M1.31621 2.30352L3.29051 3.61972L5.25823 0.865099C5.30171 0.804163 5.35912 0.754494 5.42567 0.720224C5.49223 0.685954 5.566 0.668076 5.64086 0.668076C5.71572 0.668076 5.7895 0.685954 5.85606 0.720224C5.92261 0.754494 5.98002 0.804163 6.0235 0.865099L7.99122 3.61972L9.96552 2.30352C10.0402 2.25381 10.1276 2.22652 10.2174 2.22489C10.3071 2.22326 10.3954 2.24735 10.4719 2.29431C10.5484 2.34128 10.6098 2.40915 10.6489 2.48992C10.6881 2.57068 10.7033 2.66096 10.6927 2.75008L9.92039 9.31557C9.90692 9.42991 9.85195 9.53534 9.76591 9.61185C9.67987 9.68836 9.56875 9.73063 9.45361 9.73064H1.82812C1.71298 9.73063 1.60185 9.68836 1.51581 9.61185C1.42977 9.53534 1.37481 9.42991 1.36134 9.31557L0.589008 2.74961C0.578572 2.66053 0.593843 2.57032 0.633016 2.48963C0.67219 2.40894 0.733631 2.34114 0.810088 2.29424C0.886544 2.24734 0.974823 2.22329 1.0645 2.22493C1.15418 2.22658 1.24152 2.25384 1.31621 2.30352ZM5.64086 6.91022C5.89021 6.91022 6.12933 6.81116 6.30565 6.63485C6.48196 6.45854 6.58101 6.21941 6.58101 5.97007C6.58101 5.72073 6.48196 5.4816 6.30565 5.30529C6.12933 5.12898 5.89021 5.02993 5.64086 5.02993C5.39152 5.02993 5.15239 5.12898 4.97608 5.30529C4.79977 5.4816 4.70072 5.72073 4.70072 5.97007C4.70072 6.21941 4.79977 6.45854 4.97608 6.63485C5.15239 6.81116 5.39152 6.91022 5.64086 6.91022Z" fill="#FF783E"/>
</svg>
