<svg width="15" height="22" viewBox="0 0 15 22" fill="none" xmlns="http://www.w3.org/2000/svg">
<path d="M10.3905 9.15863L9.6976 8.87161L10.3905 9.15862C10.5591 8.75168 10.6458 8.31552 10.6458 7.87504C10.6458 6.98546 10.2924 6.13232 9.66342 5.50329C9.03439 4.87426 8.18125 4.52087 7.29167 4.52087C6.40209 4.52087 5.54894 4.87426 4.91991 5.50329C4.29088 6.13232 3.9375 6.98546 3.9375 7.87504C3.9375 8.76462 4.29088 9.61777 4.91991 10.2468C5.54894 10.8758 6.40209 11.2292 7.29167 11.2292C7.73214 11.2292 8.1683 11.1425 8.57525 10.9739C8.9822 10.8053 9.35196 10.5583 9.66342 10.2468C9.97488 9.93533 10.2219 9.56557 10.3905 9.15863ZM7.29167 20.2706C7.13259 20.0821 6.94464 19.8559 6.73469 19.5972C6.06076 18.7669 5.16341 17.605 4.26756 16.2772C3.37026 14.9473 2.48371 13.4645 1.82378 11.9914C1.15943 10.5085 0.75 9.09048 0.75 7.87504C0.75 6.14008 1.43921 4.47618 2.66601 3.24938C3.89281 2.02258 5.55671 1.33337 7.29167 1.33337C9.02662 1.33337 10.6905 2.02258 11.9173 3.24938C13.1441 4.47618 13.8333 6.14008 13.8333 7.87504C13.8333 9.09048 13.4239 10.5085 12.7596 11.9914C12.0996 13.4645 11.2131 14.9473 10.3158 16.2772C9.41992 17.605 8.52258 18.7669 7.84865 19.5972C7.63869 19.8559 7.45074 20.0821 7.29167 20.2706Z" stroke="black" stroke-width="1.5"/>
</svg>
