<svg width="32" height="32" viewBox="0 0 32 32" fill="none" xmlns="http://www.w3.org/2000/svg">
<rect width="32" height="32" rx="7" fill="#F0F4FF"/>
<g clip-path="url(#clip0_2031_23050)">
<path d="M19.3117 20.5827H12.6884C12.4004 20.5843 12.1169 20.5119 11.865 20.3724C11.6131 20.2329 11.4014 20.031 11.25 19.786C11.1006 19.5469 11.0151 19.2734 11.0018 18.9917C10.9885 18.7101 11.0479 18.4298 11.1742 18.1777L14.4917 12.3377C14.6345 12.0592 14.8515 11.8257 15.1188 11.6631C15.3861 11.5004 15.6932 11.4149 16.0061 11.416C16.319 11.4171 16.6254 11.5049 16.8915 11.6694C17.1577 11.834 17.373 12.069 17.5138 12.3485L20.8146 18.1572C20.9455 18.4112 21.0082 18.6947 20.9968 18.9802C20.9855 19.2656 20.9003 19.5433 20.7496 19.786C20.5983 20.0309 20.3866 20.2328 20.1348 20.3723C19.883 20.5118 19.5996 20.5843 19.3117 20.5827Z" fill="#1E2C53"/>
</g>
<defs>
<clipPath id="clip0_2031_23050">
<rect width="10" height="10" fill="white" transform="translate(11 11)"/>
</clipPath>
</defs>
</svg>
