<svg width="19" height="19" viewBox="0 0 19 19" fill="none" xmlns="http://www.w3.org/2000/svg">
<path d="M19 9.5C19 11.3789 18.4428 13.2157 17.399 14.7779C16.3551 16.3402 14.8714 17.5578 13.1355 18.2769C11.3996 18.9959 9.48947 19.184 7.64665 18.8175C5.80383 18.4509 4.11109 17.5461 2.78249 16.2175C1.45389 14.8889 0.549104 13.1962 0.182544 11.3534C-0.184015 9.51054 0.00411622 7.60041 0.723149 5.86451C1.44218 4.12861 2.65982 2.64491 4.22209 1.60104C5.78435 0.557165 7.62108 0 9.5 0C12.0187 0.00272419 14.4335 1.00449 16.2145 2.78549C17.9955 4.5665 18.9973 6.98128 19 9.5ZM10.2917 3.95833H8.70834V11.875H10.2917V3.95833ZM10.2917 13.4583H8.70834V15.0417H10.2917V13.4583Z" fill="#CA0D0D"/>
</svg>
