<svg width="132" height="179" viewBox="0 0 132 179" fill="none" xmlns="http://www.w3.org/2000/svg">
<g opacity="0.9" filter="url(#filter0_d_2226_47693)">
<path d="M64.4773 44.8516L40.1995 41.8863C39.4103 41.7765 38.695 41.3634 38.2056 40.7346C37.7162 40.1059 37.4912 39.3111 37.5785 38.5191L41.6917 4.97216C41.7898 4.16685 42.2036 3.43342 42.8421 2.933C43.4807 2.43258 44.2917 2.2061 45.0971 2.30332L60.4692 4.21646L70.8672 17.9433L67.8827 42.2593C67.771 43.0529 67.3506 43.7703 66.713 44.2556C66.0753 44.741 65.2719 44.9552 64.4773 44.8516Z" fill="#EBEBEB"/>
<path d="M60.4684 4.1485L59.33 13.5899C59.2459 14.337 59.4584 15.0872 59.9217 15.6793C60.385 16.2714 61.0621 16.6581 61.8076 16.7561L70.8854 17.8753L60.4684 4.1485Z" fill="#F5F5F5"/>
<path d="M59.324 14.4405C59.2415 15.156 59.4063 15.8782 59.7908 16.4871C60.1753 17.0961 60.7565 17.5553 61.438 17.7885L61.7345 17.8841C62.892 18.2476 70.5254 20.5912 70.5446 20.4095C70.5637 20.2277 70.8602 17.8746 70.8602 17.8746L61.7824 16.7554C61.7824 16.7554 59.5249 16.4014 59.324 14.4405Z" fill="#E0E0E0"/>
<path d="M57.3287 12.9507C55.4412 12.9445 53.5571 12.7877 51.6945 12.482C49.8147 12.3253 47.95 12.0214 46.1177 11.5732C48.0047 11.5907 49.8879 11.7474 51.7519 12.0419C53.6318 12.1976 55.4966 12.5014 57.3287 12.9507Z" fill="#1E2C53"/>
<path d="M63.9059 19.181C63.9059 19.3053 59.7449 18.894 54.6559 18.2722C49.5669 17.6505 45.4345 17.0382 45.4537 16.9139C45.4728 16.7895 49.6052 17.2009 54.7037 17.8705C59.8023 18.5401 63.9251 19.0566 63.9059 19.181Z" fill="#1E2C53"/>
<path d="M65.0748 23.8463C65.0748 23.9706 60.5406 23.521 54.9829 22.8323C49.4253 22.1436 44.9389 21.5027 44.9581 21.3879C44.9772 21.2731 49.4827 21.7131 55.0403 22.3444C60.598 22.9758 65.0748 23.7315 65.0748 23.8463Z" fill="#1E2C53"/>
<path d="M64.5176 28.0614C64.5176 28.1858 59.9835 27.7266 54.4354 27.0475C48.8873 26.3683 44.3818 25.7178 44.4009 25.5935C44.4201 25.4691 48.9255 25.9283 54.4832 26.6075C60.0409 27.2866 64.5368 27.9371 64.5176 28.0614Z" fill="#1E2C53"/>
<path d="M63.9952 32.2625C63.9952 32.3773 59.461 31.9277 53.9129 31.2485C48.3648 30.5694 43.8593 29.9093 43.8785 29.7946C43.8976 29.6798 48.4031 30.1294 53.9607 30.8085C59.5184 31.4877 64.0143 32.1382 63.9952 32.2625Z" fill="#1E2C53"/>
<path d="M63.482 36.462C63.482 36.5864 58.9574 36.1368 53.3997 35.5054C47.8421 34.8741 43.3462 34.1662 43.3653 34.0514C43.3844 33.9367 47.8994 34.3767 53.4476 35.0654C58.9957 35.7541 63.5011 36.3472 63.482 36.462Z" fill="#1E2C53"/>
<path d="M124.833 10.9235L99.1509 11.6812L99.7566 32.2099L125.439 31.4521L124.833 10.9235Z" fill="#EBEBEB"/>
<path d="M124.833 10.9127H124.345L122.948 10.9701L117.697 11.1423L99.1489 11.7163L99.2158 11.6493C99.3976 17.7618 99.608 24.7639 99.8376 32.1773L99.7611 32.1104L125.435 31.3642L125.378 31.4312C125.206 25.2422 125.062 20.115 124.967 16.5374C124.967 14.739 124.89 13.3329 124.862 12.3763V11.2762V10.8936C124.862 10.8936 124.862 11.018 124.862 11.2667C124.862 11.5154 124.862 11.8789 124.862 12.3476C124.862 13.3042 124.938 14.7103 124.995 16.4991C125.11 20.0863 125.273 25.2231 125.474 31.4216V31.479H125.407L99.7324 32.2443H99.6559V32.1678C99.4359 24.7543 99.235 17.7427 99.0532 11.6397V11.5728H99.1202L117.706 11.0658L122.948 10.9223H124.335H124.804L124.833 10.9127Z" fill="#263238"/>
<path d="M123.955 12.2423L100.08 12.9467L100.61 30.8937L124.485 30.1893L123.955 12.2423Z" fill="#1E2C53"/>
<g opacity="0.3">
<path d="M100.611 30.8885L108.627 19.4862L113.994 26.3161L117.39 22.4803L124.487 30.1807L100.611 30.8885Z" fill="white"/>
</g>
<g opacity="0.3">
<path d="M115.939 17.8964C115.939 18.3893 115.749 18.8633 115.409 19.2197C115.069 19.5761 114.604 19.7874 114.112 19.8096C113.73 19.8268 113.352 19.7293 113.026 19.5298C112.701 19.3303 112.442 19.0379 112.284 18.6902C112.126 18.3425 112.075 17.9554 112.139 17.5788C112.203 17.2022 112.378 16.8533 112.642 16.5771C112.906 16.3008 113.246 16.1099 113.619 16.0288C113.993 15.9477 114.382 15.9803 114.736 16.1222C115.091 16.2641 115.395 16.5089 115.609 16.8251C115.823 17.1413 115.938 17.5145 115.939 17.8964Z" fill="white"/>
</g>
<path d="M113.21 24.589L74.9736 31.2829L80.3248 61.8492L118.561 55.1553L113.21 24.589Z" fill="#EBEBEB"/>
<path d="M113.216 24.5711H113.034L112.498 24.6668L110.423 25.0398L102.598 26.4364L74.9912 31.3245L75.0773 31.2097C76.6748 40.3067 78.5019 50.7334 80.4437 61.7722L80.3098 61.6765L118.573 54.9805L118.496 55.0858C116.908 45.874 115.626 38.2501 114.67 32.9029C114.211 30.234 113.857 28.12 113.608 26.7043C113.484 25.9964 113.398 25.4416 113.331 25.0685L113.245 24.5042C113.245 24.5042 113.245 24.6859 113.35 25.0494C113.455 25.4129 113.512 26.006 113.646 26.666C113.895 28.0913 114.268 30.1766 114.746 32.8359L118.687 55.0571V55.1432H118.592L80.3289 61.8392H80.2237V61.7339C78.3106 50.6951 76.4644 40.2685 74.8765 31.1715V31.0662H74.9817L102.665 26.2834L110.47 24.9442L112.537 24.5903L113.063 24.5042L113.216 24.5711Z" fill="#263238"/>
<path d="M112.18 26.7494L76.6289 32.9731L81.3071 59.6951L116.858 53.4713L112.18 26.7494Z" fill="#1E2C53"/>
<g opacity="0.4">
<path d="M81.3169 59.6711L90.8252 40.884L100.334 49.9332L104.581 43.4667L116.863 53.4438L81.3169 59.6711Z" fill="white"/>
</g>
<g opacity="0.4">
<path d="M101.425 36.931C101.53 37.4913 101.465 38.0701 101.239 38.5935C101.013 39.1169 100.637 39.5611 100.157 39.8697C99.6781 40.1782 99.1178 40.337 98.5479 40.3259C97.978 40.3147 97.4243 40.1341 96.9575 39.807C96.4907 39.48 96.1318 39.0213 95.9266 38.4895C95.7215 37.9576 95.6794 37.3768 95.8057 36.8209C95.932 36.2651 96.2209 35.7595 96.6357 35.3685C97.0505 34.9775 97.5723 34.7189 98.1346 34.6256C98.8757 34.5028 99.6354 34.6754 100.251 35.1064C100.866 35.5374 101.288 36.1925 101.425 36.931Z" fill="white"/>
</g>
<path d="M43.6265 69.6337L49.5955 92.5244C49.6955 92.9182 49.9427 93.2587 50.2861 93.4758C50.6295 93.6928 51.0431 93.77 51.4417 93.6915L93.1578 85.5223C93.3626 85.4823 93.5575 85.4022 93.7314 85.2868C93.9052 85.1713 94.0546 85.0227 94.171 84.8495C94.2874 84.6762 94.3685 84.4817 94.4097 84.2771C94.4508 84.0725 94.4512 83.8618 94.4109 83.657L90.9194 65.6065C90.8773 65.398 90.7942 65.1999 90.675 65.0237C90.5557 64.8475 90.4026 64.6968 90.2247 64.5802C90.0467 64.4636 89.8474 64.3836 89.6382 64.3446C89.4291 64.3057 89.2142 64.3087 89.0063 64.3534L63.3893 69.538C62.976 69.6223 62.5462 69.5398 62.1935 69.3084L56.875 65.7883C56.5251 65.5589 56.1003 65.4733 55.6889 65.5491L44.87 67.6727C44.656 67.7129 44.4525 67.7967 44.2722 67.9189C44.0919 68.0411 43.9387 68.199 43.8221 68.3829C43.7055 68.5669 43.6279 68.7728 43.5943 68.988C43.5606 69.2031 43.5716 69.4229 43.6265 69.6337Z" fill="#1E2C53"/>
<path d="M90.0358 61.295L44.46 70.2201L49.793 97.453L95.3689 88.5279L90.0358 61.295Z" fill="#F5F5F5"/>
<path d="M41.3126 73.3821L50.3522 101.123C50.433 101.36 50.5963 101.559 50.8123 101.686C51.0283 101.812 51.2826 101.857 51.5288 101.811L95.9424 93.1161C96.197 93.0672 96.4235 92.9234 96.5762 92.7139C96.7289 92.5044 96.7964 92.2447 96.765 91.9874L93.4457 63.1467C93.4299 63.0061 93.3851 62.8704 93.3141 62.7479C93.2431 62.6255 93.1475 62.5192 93.0334 62.4356C92.9192 62.352 92.789 62.293 92.6508 62.2623C92.5127 62.2315 92.3697 62.2298 92.2309 62.2571L42.1352 72.0524C41.9887 72.0758 41.849 72.1305 41.7255 72.2128C41.6021 72.295 41.4977 72.4029 41.4197 72.529C41.3416 72.6552 41.2917 72.7967 41.2732 72.9439C41.2547 73.0911 41.2681 73.2405 41.3126 73.3821Z" fill="#1E2C53"/>
<g opacity="0.3">
<path d="M41.4034 74.0372L50.443 101.778C50.5238 102.015 50.6871 102.215 50.9031 102.341C51.1192 102.468 51.3735 102.512 51.6196 102.467L96.0332 93.7713C96.2878 93.7223 96.5143 93.5786 96.667 93.3691C96.8197 93.1595 96.8872 92.8999 96.8559 92.6426L93.5366 63.8019C93.5207 63.6613 93.4759 63.5255 93.4049 63.4031C93.3339 63.2807 93.2384 63.1744 93.1242 63.0908C93.01 63.0072 92.8798 62.9481 92.7417 62.9174C92.6035 62.8867 92.4605 62.885 92.3217 62.9123L42.2261 72.7076C42.0796 72.731 41.9398 72.7857 41.8164 72.8679C41.6929 72.9502 41.5886 73.058 41.5105 73.1842C41.4325 73.3104 41.3825 73.4519 41.364 73.599C41.3455 73.7462 41.359 73.8957 41.4034 74.0372Z" fill="black"/>
</g>
<path d="M37.1988 71.5572L7.42071 60.6619C6.90913 60.411 6.51248 59.9744 6.31164 59.4412C6.11079 58.908 6.12086 58.3182 6.33978 57.7922L13.7341 38.4503C13.9026 37.9176 14.2666 37.4685 14.7529 37.1933C15.2392 36.9182 15.8117 36.8376 16.3551 36.9676L46.1714 48.1308C47.2141 48.523 47.3289 49.6422 46.9367 50.6848L39.1884 70.6485C39.1182 70.8393 39.0109 71.0144 38.8726 71.1635C38.7344 71.3127 38.568 71.433 38.383 71.5175C38.198 71.6019 37.9981 71.6489 37.7949 71.6558C37.5916 71.6626 37.389 71.6291 37.1988 71.5572Z" fill="#FAFAFA"/>
<path d="M36.9047 71.4435C37.287 71.5458 37.6894 71.5458 38.0717 71.4435C38.5286 71.3069 38.9262 71.0205 39.2005 70.6304C39.3604 70.3738 39.4859 70.0972 39.5735 69.8078C39.6979 69.5017 39.8127 69.1669 39.9466 68.8512C41.0084 66.0389 42.5294 62.0117 44.3947 57.0376C44.873 55.7845 45.3512 54.4835 45.8774 53.1252L46.6713 51.0399C46.8177 50.6993 46.9361 50.3474 47.0252 49.9876C47.0758 49.6335 47.0261 49.2723 46.8818 48.945C46.7355 48.6098 46.488 48.3288 46.1739 48.1414C45.8202 47.9742 45.4559 47.8304 45.0834 47.711L42.7685 46.8692L37.9282 45.0995L16.3958 37.227C15.9619 37.0866 15.4922 37.1059 15.0713 37.2813C14.6504 37.4567 14.3059 37.7767 14.1 38.1835L13.0287 40.9576L10.9338 46.4292C9.61372 50.0355 8.23626 53.4887 6.97359 56.7793C6.81097 57.1906 6.65792 57.6019 6.50487 58.0037C6.33895 58.369 6.2921 58.7773 6.37095 59.1707C6.45348 59.5434 6.65492 59.8791 6.94489 60.1273C7.26428 60.3687 7.62845 60.5443 8.01625 60.6438L12.5695 62.3274L20.7482 65.3406L32.5714 69.7791L35.7855 70.9939L36.6082 71.3192C36.7074 71.3518 36.8035 71.3934 36.8951 71.4435C36.7927 71.4292 36.6928 71.4002 36.5986 71.3574L35.7568 71.0705L32.5714 69.9226L20.7004 65.6467L12.4834 62.6718L7.9206 61.0169C7.49408 60.901 7.09437 60.7028 6.74401 60.4334C6.39136 60.1276 6.1493 59.714 6.05528 59.2568C5.95314 58.7998 5.99319 58.3225 6.17007 57.8889C6.32312 57.4776 6.47617 57.0663 6.63879 56.6549L10.5703 46.3144C11.2495 44.5256 11.9478 42.6986 12.6556 40.8524C13.0096 39.8958 13.373 38.9392 13.7365 38.0496C13.9681 37.5367 14.3829 37.1288 14.8996 36.9058C15.4163 36.6829 15.9977 36.6609 16.5297 36.8443L38.0526 44.7361L42.8355 46.5153L45.1504 47.3666C45.5436 47.4956 45.9271 47.6523 46.2982 47.8353C46.6674 48.0611 46.958 48.3951 47.1305 48.7919C47.2977 49.1803 47.354 49.6074 47.2931 50.0259C47.2006 50.4057 47.0758 50.777 46.92 51.1355C46.6426 51.8434 46.3748 52.5321 46.1165 53.2113C45.5904 54.5696 45.093 55.8706 44.6051 57.1141L40.0423 68.8799C39.9083 69.2339 39.7744 69.5591 39.6596 69.8365C39.5595 70.1337 39.4213 70.4167 39.2483 70.6783C38.9502 71.08 38.5257 71.3697 38.043 71.5009C37.7473 71.5699 37.4396 71.5699 37.1439 71.5009C37.0618 71.4936 36.9812 71.4743 36.9047 71.4435Z" fill="#1E2C53"/>
<path d="M28.6684 52.6755L31.7677 56.5592L26.8127 57.4584L21.8672 58.3575L23.7134 53.5747L25.5596 48.7918L28.6684 52.6755Z" fill="#1E2C53"/>
<path d="M104.241 86.8505H35.9126C32.3254 86.8505 29.4175 89.7585 29.4175 93.3456V161.674C29.4175 165.261 32.3254 168.169 35.9126 168.169H104.241C107.828 168.169 110.736 165.261 110.736 161.674V93.3456C110.736 89.7585 107.828 86.8505 104.241 86.8505Z" fill="#1E2C53"/>
<path d="M92.2802 151.508C95.548 150.601 98.3218 148.433 99.9914 145.481C101.661 142.529 102.09 139.035 101.183 135.767C100.276 132.5 98.1084 129.726 95.1566 128.056C92.2047 126.387 88.7105 125.958 85.4427 126.865C86.4613 116.971 77.461 107.245 67.5117 107.511C57.5625 107.776 49.0784 117.962 50.6412 127.8C47.5381 127.689 44.5179 128.815 42.2451 130.931C39.9724 133.046 38.6332 135.978 38.5221 139.082C38.4111 142.185 39.5374 145.205 41.6531 147.478C43.7689 149.75 46.7008 151.09 49.804 151.201L92.2802 151.508Z" fill="white"/>
<path fill-rule="evenodd" clip-rule="evenodd" d="M26.4629 15.7059C25.7539 15.7965 24.7012 16.3471 24.2265 16.8756C24.0195 17.1062 23.7253 17.55 23.5731 17.8616C23.3383 18.342 23.2961 18.5696 23.2961 19.3556C23.2961 20.1416 23.3383 20.3692 23.5731 20.8496C23.7253 21.1612 24.0195 21.605 24.2265 21.8356C24.6529 22.3104 25.6315 22.8551 26.2641 22.9697L26.6886 23.0467L25.9458 23.1909C23.4587 23.674 21.6109 25.6313 21.3428 28.0668C21.2453 28.9534 21.3492 29.3061 21.8282 29.7144C22.925 30.6494 25.3326 31.1075 28.2164 30.9297C30.2011 30.8074 31.7979 30.2856 32.4735 29.5384C32.812 29.1641 32.8144 29.1539 32.7659 28.2766C32.6262 25.7527 30.7682 23.6948 28.1743 23.1909L27.4315 23.0467L27.8559 22.9697C28.4886 22.8551 29.4672 22.3104 29.8935 21.8356C30.1006 21.605 30.3947 21.1612 30.547 20.8496C30.7818 20.3692 30.824 20.1416 30.824 19.3556C30.824 18.5696 30.7818 18.342 30.547 17.8616C30.1232 16.9943 29.5943 16.4739 28.7257 16.0691C27.9076 15.688 27.3296 15.5952 26.4629 15.7059Z" fill="#1E2C53"/>
<path fill-rule="evenodd" clip-rule="evenodd" d="M85.5996 5.29701C84.9119 5.10252 83.7276 5.1966 83.0838 5.49689C82.8029 5.62791 82.3584 5.92091 82.0962 6.14799C81.692 6.49793 81.564 6.69078 81.256 7.41395C80.948 8.13712 80.8976 8.36307 80.9254 8.89697C80.9434 9.24338 81.0401 9.76692 81.1403 10.0602C81.3465 10.6642 82.0333 11.5487 82.5705 11.9021L82.9309 12.1392L82.1909 11.9809C79.7134 11.4507 77.2464 12.5275 76.0455 14.6632C75.6084 15.4407 75.5658 15.8058 75.8465 16.3692C76.4892 17.6592 78.5248 19.0241 81.2476 19.9905C83.1215 20.6557 84.7951 20.8012 85.7095 20.3786C86.1676 20.1668 86.1737 20.1584 86.4729 19.3322C87.3334 16.9554 86.4303 14.334 84.2412 12.8541L83.6143 12.4303L84.035 12.5258C84.662 12.6682 85.7757 12.5506 86.3541 12.2808C86.6349 12.1497 87.0794 11.8567 87.3417 11.6297C87.7459 11.2797 87.8739 11.0869 88.1819 10.3637C88.4899 9.64052 88.5402 9.41457 88.5125 8.88067C88.4624 7.91663 88.1797 7.23059 87.5392 6.51781C86.9358 5.84661 86.4404 5.53471 85.5996 5.29701Z" fill="#1E2C53"/>
<path fill-rule="evenodd" clip-rule="evenodd" d="M106.765 67.2848C106.075 67.4713 105.108 68.1605 104.71 68.7489C104.536 69.0056 104.305 69.4853 104.197 69.8149C104.03 70.3228 104.019 70.554 104.126 71.3327C104.234 72.1113 104.307 72.331 104.605 72.7748C104.798 73.0628 105.15 73.4622 105.387 73.6624C105.874 74.0746 106.918 74.4805 107.56 74.5077L107.991 74.526L107.275 74.7703C104.877 75.5884 103.314 77.7797 103.381 80.229C103.405 81.1206 103.556 81.4558 104.087 81.7949C105.301 82.5714 107.748 82.6964 110.581 82.1266C112.53 81.7345 114.041 80.9995 114.608 80.1671C114.893 79.75 114.893 79.7396 114.726 78.8771C114.243 76.396 112.121 74.611 109.483 74.466L108.727 74.4246L109.137 74.2904C109.748 74.0904 110.643 73.4173 111.001 72.8886C111.174 72.6319 111.405 72.1522 111.513 71.8226C111.68 71.3147 111.691 71.0835 111.584 70.3048C111.477 69.5262 111.404 69.3065 111.106 68.8627C110.567 68.0614 109.972 67.618 109.057 67.3356C108.194 67.0698 107.609 67.0567 106.765 67.2848Z" fill="#1E2C53"/>
</g>
<defs>
<filter id="filter0_d_2226_47693" x="0" y="0.28125" width="131.474" height="177.887" filterUnits="userSpaceOnUse" color-interpolation-filters="sRGB">
<feFlood flood-opacity="0" result="BackgroundImageFix"/>
<feColorMatrix in="SourceAlpha" type="matrix" values="0 0 0 0 0 0 0 0 0 0 0 0 0 0 0 0 0 0 127 0" result="hardAlpha"/>
<feMorphology radius="2" operator="dilate" in="SourceAlpha" result="effect1_dropShadow_2226_47693"/>
<feOffset dy="4"/>
<feGaussianBlur stdDeviation="2"/>
<feComposite in2="hardAlpha" operator="out"/>
<feColorMatrix type="matrix" values="0 0 0 0 0 0 0 0 0 0 0 0 0 0 0 0 0 0 0.05 0"/>
<feBlend mode="normal" in2="BackgroundImageFix" result="effect1_dropShadow_2226_47693"/>
<feBlend mode="normal" in="SourceGraphic" in2="effect1_dropShadow_2226_47693" result="shape"/>
</filter>
</defs>
</svg>
