<svg width="7" height="9" viewBox="0 0 7 9" fill="none" xmlns="http://www.w3.org/2000/svg">
<path d="M5.98688 0L5.19279 0L5.18535 0.876035C5.17294 1.84346 5.17046 1.8613 5.00172 2.18229C4.8702 2.43194 4.7213 2.60804 4.30937 2.98699C4.1034 3.17646 3.86021 3.40606 3.7684 3.49745L3.60214 3.66018L3.43587 3.49745C3.34406 3.40606 3.10087 3.17646 2.8949 2.98699C2.48297 2.60804 2.33408 2.43194 2.20255 2.18229C2.03381 1.8613 2.03133 1.84346 2.01892 0.876035L2.01148 0L1.21739 0L0.425781 0L0.425781 0.802475C0.425781 1.24607 0.438189 1.70303 0.450597 1.8234C0.50519 2.27591 0.661526 2.70612 0.907198 3.06501C1.09331 3.34142 1.30672 3.57101 1.83281 4.05696C2.33904 4.5273 2.48545 4.69448 2.61945 4.95082C2.78323 5.26067 2.79068 5.30971 2.8006 6.08543L2.81053 6.7876L2.35145 6.37745C1.94696 6.0141 1.88492 5.96729 1.81295 5.96729C1.75588 5.96729 1.71618 5.98512 1.67399 6.02748L1.61443 6.08989L1.62188 6.68506C1.62932 7.25794 1.6318 7.28246 1.68888 7.38054C1.72858 7.45187 2.009 7.71936 2.58223 8.23205C3.39617 8.96097 3.4185 8.98103 3.53265 8.9944C3.73614 9.02115 3.79321 8.98103 4.65182 8.20753C5.31935 7.60345 5.44839 7.47862 5.50547 7.36494C5.57495 7.23342 5.57495 7.23119 5.58239 6.66277L5.59232 6.09212L5.53276 6.02971C5.4881 5.98512 5.44839 5.96729 5.39132 5.96729C5.31935 5.96729 5.25731 6.0141 4.85283 6.37745L4.39374 6.7876L4.40367 6.08543C4.4136 5.30971 4.42104 5.26067 4.58482 4.95082C4.71882 4.69448 4.86523 4.5273 5.37146 4.05696C5.89755 3.57101 6.11096 3.34142 6.29707 3.06501C6.54275 2.70612 6.69908 2.27591 6.75368 1.8234C6.76608 1.70303 6.77849 1.24607 6.77849 0.802475V0L5.98688 0Z" fill="#1E2C53"/>
</svg>
