<svg width="11" height="12" viewBox="0 0 11 12" fill="none" xmlns="http://www.w3.org/2000/svg">
<path d="M8.54285 2.73275L9.32989 1.94571L10.0958 2.71162L9.30877 3.49866C10.0865 4.47213 10.4619 5.70643 10.358 6.94807C10.2541 8.18971 9.67873 9.34443 8.75003 10.1751C7.82134 11.0058 6.60984 11.4493 5.36434 11.4146C4.11885 11.38 2.9339 10.8697 2.05286 9.98866C1.17182 9.10762 0.661562 7.92267 0.62689 6.67717C0.592217 5.43167 1.03576 4.22017 1.86642 3.29148C2.69708 2.36279 3.85181 1.78741 5.09345 1.6835C6.33509 1.57959 7.56939 1.95504 8.54285 2.73275ZM5.49977 10.3334C5.9977 10.3334 6.49075 10.2353 6.95078 10.0448C7.4108 9.85424 7.82879 9.57495 8.18088 9.22286C8.53297 8.87077 8.81226 8.45278 9.00281 7.99276C9.19336 7.53273 9.29143 7.03968 9.29143 6.54175C9.29143 6.04382 9.19336 5.55077 9.00281 5.09074C8.81226 4.63071 8.53297 4.21272 8.18088 3.86063C7.82879 3.50855 7.4108 3.22925 6.95078 3.0387C6.49075 2.84816 5.9977 2.75008 5.49977 2.75008C4.49416 2.75008 3.52973 3.14956 2.81865 3.86063C2.10758 4.57171 1.7081 5.53614 1.7081 6.54175C1.7081 7.54736 2.10758 8.51178 2.81865 9.22286C3.52973 9.93394 4.49416 10.3334 5.49977 10.3334ZM4.9581 3.83341H6.04143V7.08341H4.9581V3.83341ZM3.3331 0.041748H7.66643V1.12508H3.3331V0.041748Z" fill="#FF783E"/>
</svg>
