<svg width="88" height="60" viewBox="0 0 88 60" fill="none" xmlns="http://www.w3.org/2000/svg">
<path d="M70.2811 0.30719C65.9541 1.33025 62.2343 4.32075 60.2226 8.41301L59.2737 10.4198H31.7172C6.89364 10.4198 4.0469 10.4985 3.09799 11.0494C0.744678 12.5053 0.820591 11.797 0.820591 35.2094C0.820591 54.6083 0.896505 56.6544 1.46585 57.6775C2.87025 60.1171 1.31403 59.9991 38.094 59.9991C71.0403 59.9991 71.6476 59.9991 72.8622 59.2121C75.1016 57.7956 75.2155 57.0873 75.2155 42.9218V30.1335L76.8476 29.6613C86.4127 27.0249 90.7018 15.4564 85.3499 6.72102C82.3134 1.80244 75.8607 -0.951965 70.2811 0.30719ZM76.6578 9.35738C79.0111 11.8363 79.7323 12.8201 79.5425 13.3316C79.3148 13.9218 78.8593 13.5677 76.6958 11.3642L74.0768 8.68845V16.2434C74.0768 23.5229 74.0388 23.7983 73.3176 23.7983C72.5965 23.7983 72.5585 23.5229 72.5585 16.2434V8.68845L69.9775 11.3248C67.9278 13.4103 67.3205 13.8825 66.941 13.489C66.5614 13.0955 67.1687 12.2692 69.7877 9.55412C71.6096 7.66539 73.2038 6.09144 73.3176 6.09144C73.4315 6.09144 74.9498 7.54734 76.6578 9.35738ZM58.7803 13.607C58.2869 17.5419 59.9569 22.4211 62.9176 25.569C64.8913 27.6938 68.611 29.6219 71.3819 29.9761L73.3176 30.2122V38.9869C73.3176 43.8268 73.2038 47.801 73.0899 47.801C72.9761 47.801 72.4446 47.2501 71.8753 46.5418C71.306 45.8336 66.7132 40.2854 61.7029 34.147L52.5175 23.0507L43.1042 30.8811C37.9042 35.2094 33.5392 38.7115 33.3873 38.6721C33.2355 38.5934 30.6924 36.2325 27.7318 33.4387C24.7332 30.6056 22.1901 28.3628 22.0383 28.4021C21.8865 28.4415 17.4835 31.5107 12.2455 35.2094C7.00751 38.8689 2.68046 41.8987 2.64251 41.8987C2.52864 41.8987 2.9082 13.4103 3.02207 13.2922C3.06003 13.2529 3.55347 12.9381 4.16077 12.6233C5.03377 12.1118 8.98125 12.0331 32.0968 11.9937H59.008L58.7803 13.607Z" fill="#929292"/>
</svg>
