<svg width="12" height="12" viewBox="0 0 12 12" fill="none" xmlns="http://www.w3.org/2000/svg">
<g clip-path="url(#clip0_1674_40139)">
<path d="M2.49981 9.5H5.49981V10.5H3.49981C3.3672 10.5 3.24002 10.5527 3.14625 10.6464C3.05248 10.7402 2.99981 10.8674 2.99981 11C2.99981 11.1326 3.05248 11.2598 3.14625 11.3536C3.24002 11.4473 3.3672 11.5 3.49981 11.5H8.49981C8.63241 11.5 8.75959 11.4473 8.85336 11.3536C8.94713 11.2598 8.99981 11.1326 8.99981 11C8.99981 10.8674 8.94713 10.7402 8.85336 10.6464C8.75959 10.5527 8.63241 10.5 8.49981 10.5H6.49981V9.5H9.49981C10.0759 9.49927 10.6341 9.29996 11.0804 8.93564C11.5267 8.57133 11.8338 8.06429 11.9498 7.5H0.0498047C0.165853 8.06429 0.472895 8.57133 0.919179 8.93564C1.36546 9.29996 1.9237 9.49927 2.49981 9.5Z" fill="white"/>
<path d="M9.5 0.5H2.5C1.8372 0.500794 1.20178 0.764441 0.73311 1.23311C0.264441 1.70178 0.000793929 2.3372 0 3L0 6.5H12V3C11.9992 2.3372 11.7356 1.70178 11.2669 1.23311C10.7982 0.764441 10.1628 0.500794 9.5 0.5Z" fill="white"/>
</g>
<defs>
<clipPath id="clip0_1674_40139">
<rect width="12" height="12" fill="white"/>
</clipPath>
</defs>
</svg>
