<?xml version="1.0" encoding="UTF-8" standalone="no"?>
<!DOCTYPE svg PUBLIC "-//W3C//DTD SVG 1.1//EN"
 "http://www.w3.org/Graphics/SVG/1.1/DTD/svg11.dtd">
<!-- Generated by graphviz version 2.47.0 (20210316.0004)
 -->
<!-- Title: dependencies Pages: 1 -->
<svg width="805pt" height="211pt"
 viewBox="0.00 0.00 805.00 211.00" xmlns="http://www.w3.org/2000/svg" xmlns:xlink="http://www.w3.org/1999/xlink">
<g id="graph0" class="graph" transform="scale(1 1) rotate(0) translate(4 207)">
<title>dependencies</title>
<polygon fill="white" stroke="transparent" points="-4,4 -4,-207 801,-207 801,4 -4,4"/>
<text text-anchor="start" x="377.51" y="-42.4" font-family="Times-12" font-weight="bold" font-size="14.00">Legend</text>
<polygon fill="#ffffb3" stroke="transparent" points="164.5,-10 164.5,-30 184.5,-30 184.5,-10 164.5,-10"/>
<text text-anchor="start" x="188.13" y="-15.4" font-family="Times-12" font-size="14.00"> &#160;Declarations</text>
<polygon fill="#8dd3c7" stroke="transparent" points="277.5,-10 277.5,-30 297.5,-30 297.5,-10 277.5,-10"/>
<text text-anchor="start" x="301.23" y="-15.4" font-family="Times-12" font-size="14.00"> &#160;Module</text>
<polygon fill="#80b1d3" stroke="transparent" points="363.5,-10 363.5,-30 383.5,-30 383.5,-10 363.5,-10"/>
<text text-anchor="start" x="387.28" y="-15.4" font-family="Times-12" font-size="14.00"> &#160;Bootstrap</text>
<polygon fill="#fdb462" stroke="transparent" points="460.5,-10 460.5,-30 480.5,-30 480.5,-10 460.5,-10"/>
<text text-anchor="start" x="484.17" y="-15.4" font-family="Times-12" font-size="14.00"> &#160;Providers</text>
<polygon fill="#fb8072" stroke="transparent" points="556.5,-10 556.5,-30 576.5,-30 576.5,-10 556.5,-10"/>
<text text-anchor="start" x="580.23" y="-15.4" font-family="Times-12" font-size="14.00"> &#160;Exports</text>
<g id="clust1" class="cluster">
<title>cluster_BroadcastOnlyModule</title>
<polygon fill="none" stroke="black" stroke-dasharray="1,5" points="8,-70 8,-195 789,-195 789,-70 8,-70"/>
</g>
<g id="clust2" class="cluster">
<title>cluster_BroadcastOnlyModule_declarations</title>
<polygon fill="none" stroke="black" points="220,-78 220,-130 781,-130 781,-78 220,-78"/>
</g>
<g id="clust6" class="cluster">
<title>cluster_BroadcastOnlyModule_imports</title>
<polygon fill="none" stroke="black" points="16,-78 16,-130 212,-130 212,-78 16,-78"/>
</g>
<!-- BroadcastOnlyComponent -->
<g id="node1" class="node">
<title>BroadcastOnlyComponent</title>
<polygon fill="#ffffb3" stroke="black" points="772.81,-122 607.19,-122 607.19,-86 772.81,-86 772.81,-122"/>
<text text-anchor="middle" x="690" y="-99.8" font-family="Times,serif" font-size="14.00">BroadcastOnlyComponent</text>
</g>
<!-- BroadcastOnlyModule -->
<g id="node4" class="node">
<title>BroadcastOnlyModule</title>
<polygon fill="#8dd3c7" stroke="black" points="489.52,-187 486.52,-191 465.52,-191 462.52,-187 346.48,-187 346.48,-151 489.52,-151 489.52,-187"/>
<text text-anchor="middle" x="418" y="-164.8" font-family="Times,serif" font-size="14.00">BroadcastOnlyModule</text>
</g>
<!-- BroadcastOnlyComponent&#45;&gt;BroadcastOnlyModule -->
<g id="edge1" class="edge">
<title>BroadcastOnlyComponent&#45;&gt;BroadcastOnlyModule</title>
<path fill="none" stroke="black" d="M690,-122.11C690,-141.34 690,-169 690,-169 690,-169 499.82,-169 499.82,-169"/>
<polygon fill="black" stroke="black" points="499.82,-165.5 489.82,-169 499.82,-172.5 499.82,-165.5"/>
</g>
<!-- CreateMatchComponent -->
<g id="node2" class="node">
<title>CreateMatchComponent</title>
<polygon fill="#ffffb3" stroke="black" points="589.63,-122 436.37,-122 436.37,-86 589.63,-86 589.63,-122"/>
<text text-anchor="middle" x="513" y="-99.8" font-family="Times,serif" font-size="14.00">CreateMatchComponent</text>
</g>
<!-- CreateMatchComponent&#45;&gt;BroadcastOnlyModule -->
<g id="edge2" class="edge">
<title>CreateMatchComponent&#45;&gt;BroadcastOnlyModule</title>
<path fill="none" stroke="black" d="M462.97,-122.11C462.97,-122.11 462.97,-140.99 462.97,-140.99"/>
<polygon fill="black" stroke="black" points="459.47,-140.99 462.97,-150.99 466.47,-140.99 459.47,-140.99"/>
</g>
<!-- TournamentDetailsComponent -->
<g id="node3" class="node">
<title>TournamentDetailsComponent</title>
<polygon fill="#ffffb3" stroke="black" points="417.91,-122 228.09,-122 228.09,-86 417.91,-86 417.91,-122"/>
<text text-anchor="middle" x="323" y="-99.8" font-family="Times,serif" font-size="14.00">TournamentDetailsComponent</text>
</g>
<!-- TournamentDetailsComponent&#45;&gt;BroadcastOnlyModule -->
<g id="edge3" class="edge">
<title>TournamentDetailsComponent&#45;&gt;BroadcastOnlyModule</title>
<path fill="none" stroke="black" d="M381.97,-122.11C381.97,-122.11 381.97,-140.99 381.97,-140.99"/>
<polygon fill="black" stroke="black" points="378.47,-140.99 381.97,-150.99 385.47,-140.99 378.47,-140.99"/>
</g>
<!-- CommonSvgMsgComponent -->
<g id="node5" class="node">
<title>CommonSvgMsgComponent</title>
<polygon fill="#8dd3c7" stroke="black" points="204.12,-122 201.12,-126 180.12,-126 177.12,-122 23.88,-122 23.88,-86 204.12,-86 204.12,-122"/>
<text text-anchor="middle" x="114" y="-99.8" font-family="Times,serif" font-size="14.00">CommonSvgMsgComponent</text>
</g>
<!-- CommonSvgMsgComponent&#45;&gt;BroadcastOnlyModule -->
<g id="edge4" class="edge">
<title>CommonSvgMsgComponent&#45;&gt;BroadcastOnlyModule</title>
<path fill="none" stroke="black" d="M114,-122.11C114,-141.34 114,-169 114,-169 114,-169 336.34,-169 336.34,-169"/>
<polygon fill="black" stroke="black" points="336.34,-172.5 346.34,-169 336.34,-165.5 336.34,-172.5"/>
</g>
</g>
</svg>
