<?xml version="1.0" encoding="UTF-8" standalone="no"?>
<!DOCTYPE svg PUBLIC "-//W3C//DTD SVG 1.1//EN"
 "http://www.w3.org/Graphics/SVG/1.1/DTD/svg11.dtd">
<!-- Generated by graphviz version 2.47.0 (20210316.0004)
 -->
<!-- Title: dependencies Pages: 1 -->
<svg width="1502pt" height="211pt"
 viewBox="0.00 0.00 1502.00 211.00" xmlns="http://www.w3.org/2000/svg" xmlns:xlink="http://www.w3.org/1999/xlink">
<g id="graph0" class="graph" transform="scale(1 1) rotate(0) translate(4 207)">
<title>dependencies</title>
<polygon fill="white" stroke="transparent" points="-4,4 -4,-207 1498,-207 1498,4 -4,4"/>
<text text-anchor="start" x="726.01" y="-42.4" font-family="Times-12" font-weight="bold" font-size="14.00">Legend</text>
<polygon fill="#ffffb3" stroke="transparent" points="513,-10 513,-30 533,-30 533,-10 513,-10"/>
<text text-anchor="start" x="536.63" y="-15.4" font-family="Times-12" font-size="14.00"> &#160;Declarations</text>
<polygon fill="#8dd3c7" stroke="transparent" points="626,-10 626,-30 646,-30 646,-10 626,-10"/>
<text text-anchor="start" x="649.73" y="-15.4" font-family="Times-12" font-size="14.00"> &#160;Module</text>
<polygon fill="#80b1d3" stroke="transparent" points="712,-10 712,-30 732,-30 732,-10 712,-10"/>
<text text-anchor="start" x="735.78" y="-15.4" font-family="Times-12" font-size="14.00"> &#160;Bootstrap</text>
<polygon fill="#fdb462" stroke="transparent" points="809,-10 809,-30 829,-30 829,-10 809,-10"/>
<text text-anchor="start" x="832.67" y="-15.4" font-family="Times-12" font-size="14.00"> &#160;Providers</text>
<polygon fill="#fb8072" stroke="transparent" points="905,-10 905,-30 925,-30 925,-10 905,-10"/>
<text text-anchor="start" x="928.73" y="-15.4" font-family="Times-12" font-size="14.00"> &#160;Exports</text>
<g id="clust1" class="cluster">
<title>cluster_MyProfileModule</title>
<polygon fill="none" stroke="black" stroke-dasharray="1,5" points="8,-70 8,-195 1486,-195 1486,-70 8,-70"/>
</g>
<g id="clust9" class="cluster">
<title>cluster_MyProfileModule_imports</title>
<polygon fill="none" stroke="black" points="1124,-78 1124,-130 1478,-130 1478,-78 1124,-78"/>
</g>
<g id="clust2" class="cluster">
<title>cluster_MyProfileModule_declarations</title>
<polygon fill="none" stroke="black" points="16,-78 16,-130 1116,-130 1116,-78 16,-78"/>
</g>
<!-- DeteteAccountComponent -->
<g id="node1" class="node">
<title>DeteteAccountComponent</title>
<polygon fill="#ffffb3" stroke="black" points="1107.79,-122 942.21,-122 942.21,-86 1107.79,-86 1107.79,-122"/>
<text text-anchor="middle" x="1025" y="-99.8" font-family="Times,serif" font-size="14.00">DeteteAccountComponent</text>
</g>
<!-- MyProfileModule -->
<g id="node7" class="node">
<title>MyProfileModule</title>
<polygon fill="#8dd3c7" stroke="black" points="818.59,-187 815.59,-191 794.59,-191 791.59,-187 701.41,-187 701.41,-151 818.59,-151 818.59,-187"/>
<text text-anchor="middle" x="760" y="-164.8" font-family="Times,serif" font-size="14.00">MyProfileModule</text>
</g>
<!-- DeteteAccountComponent&#45;&gt;MyProfileModule -->
<g id="edge1" class="edge">
<title>DeteteAccountComponent&#45;&gt;MyProfileModule</title>
<path fill="none" stroke="black" d="M1025,-122.03C1025,-138.4 1025,-160 1025,-160 1025,-160 828.81,-160 828.81,-160"/>
<polygon fill="black" stroke="black" points="828.81,-156.5 818.81,-160 828.81,-163.5 828.81,-156.5"/>
</g>
<!-- MemberShipsComponent -->
<g id="node2" class="node">
<title>MemberShipsComponent</title>
<polygon fill="#ffffb3" stroke="black" points="923.88,-122 764.12,-122 764.12,-86 923.88,-86 923.88,-122"/>
<text text-anchor="middle" x="844" y="-99.8" font-family="Times,serif" font-size="14.00">MemberShipsComponent</text>
</g>
<!-- MemberShipsComponent&#45;&gt;MyProfileModule -->
<g id="edge2" class="edge">
<title>MemberShipsComponent&#45;&gt;MyProfileModule</title>
<path fill="none" stroke="black" d="M791.3,-122.11C791.3,-122.11 791.3,-140.99 791.3,-140.99"/>
<polygon fill="black" stroke="black" points="787.8,-140.99 791.3,-150.99 794.8,-140.99 787.8,-140.99"/>
</g>
<!-- MyEventsComponent -->
<g id="node3" class="node">
<title>MyEventsComponent</title>
<polygon fill="#ffffb3" stroke="black" points="746.38,-122 607.62,-122 607.62,-86 746.38,-86 746.38,-122"/>
<text text-anchor="middle" x="677" y="-99.8" font-family="Times,serif" font-size="14.00">MyEventsComponent</text>
</g>
<!-- MyEventsComponent&#45;&gt;MyProfileModule -->
<g id="edge3" class="edge">
<title>MyEventsComponent&#45;&gt;MyProfileModule</title>
<path fill="none" stroke="black" d="M723.95,-122.11C723.95,-122.11 723.95,-140.99 723.95,-140.99"/>
<polygon fill="black" stroke="black" points="720.45,-140.99 723.95,-150.99 727.45,-140.99 720.45,-140.99"/>
</g>
<!-- MyProfileLayoutComponent -->
<g id="node4" class="node">
<title>MyProfileLayoutComponent</title>
<polygon fill="#ffffb3" stroke="black" points="589.04,-122 410.96,-122 410.96,-86 589.04,-86 589.04,-122"/>
<text text-anchor="middle" x="500" y="-99.8" font-family="Times,serif" font-size="14.00">MyProfileLayoutComponent</text>
</g>
<!-- MyProfileLayoutComponent&#45;&gt;MyProfileModule -->
<g id="edge4" class="edge">
<title>MyProfileLayoutComponent&#45;&gt;MyProfileModule</title>
<path fill="none" stroke="black" d="M500,-122.03C500,-138.4 500,-160 500,-160 500,-160 691.33,-160 691.33,-160"/>
<polygon fill="black" stroke="black" points="691.33,-163.5 701.33,-160 691.33,-156.5 691.33,-163.5"/>
</g>
<!-- MyProfileSidebarComponent -->
<g id="node5" class="node">
<title>MyProfileSidebarComponent</title>
<polygon fill="#ffffb3" stroke="black" points="392.64,-122 211.36,-122 211.36,-86 392.64,-86 392.64,-122"/>
<text text-anchor="middle" x="302" y="-99.8" font-family="Times,serif" font-size="14.00">MyProfileSidebarComponent</text>
</g>
<!-- MyProfileSidebarComponent&#45;&gt;MyProfileModule -->
<g id="edge5" class="edge">
<title>MyProfileSidebarComponent&#45;&gt;MyProfileModule</title>
<path fill="none" stroke="black" d="M302,-122.11C302,-141.34 302,-169 302,-169 302,-169 691.06,-169 691.06,-169"/>
<polygon fill="black" stroke="black" points="691.06,-172.5 701.06,-169 691.06,-165.5 691.06,-172.5"/>
</g>
<!-- PersonalDetailsComponent -->
<g id="node6" class="node">
<title>PersonalDetailsComponent</title>
<polygon fill="#ffffb3" stroke="black" points="193.69,-122 24.31,-122 24.31,-86 193.69,-86 193.69,-122"/>
<text text-anchor="middle" x="109" y="-99.8" font-family="Times,serif" font-size="14.00">PersonalDetailsComponent</text>
</g>
<!-- PersonalDetailsComponent&#45;&gt;MyProfileModule -->
<g id="edge6" class="edge">
<title>PersonalDetailsComponent&#45;&gt;MyProfileModule</title>
<path fill="none" stroke="black" d="M109,-122.29C109,-144.21 109,-178 109,-178 109,-178 691.37,-178 691.37,-178"/>
<polygon fill="black" stroke="black" points="691.37,-181.5 701.37,-178 691.37,-174.5 691.37,-181.5"/>
</g>
<!-- CommonSvgMsgComponent -->
<g id="node8" class="node">
<title>CommonSvgMsgComponent</title>
<polygon fill="#8dd3c7" stroke="black" points="1470.12,-122 1467.12,-126 1446.12,-126 1443.12,-122 1289.88,-122 1289.88,-86 1470.12,-86 1470.12,-122"/>
<text text-anchor="middle" x="1380" y="-99.8" font-family="Times,serif" font-size="14.00">CommonSvgMsgComponent</text>
</g>
<!-- CommonSvgMsgComponent&#45;&gt;MyProfileModule -->
<g id="edge7" class="edge">
<title>CommonSvgMsgComponent&#45;&gt;MyProfileModule</title>
<path fill="none" stroke="black" d="M1380,-122.29C1380,-144.21 1380,-178 1380,-178 1380,-178 828.61,-178 828.61,-178"/>
<polygon fill="black" stroke="black" points="828.61,-174.5 818.61,-178 828.61,-181.5 828.61,-174.5"/>
</g>
<!-- GifLoaderComponent -->
<g id="node9" class="node">
<title>GifLoaderComponent</title>
<polygon fill="#8dd3c7" stroke="black" points="1271.63,-122 1268.63,-126 1247.63,-126 1244.63,-122 1132.37,-122 1132.37,-86 1271.63,-86 1271.63,-122"/>
<text text-anchor="middle" x="1202" y="-99.8" font-family="Times,serif" font-size="14.00">GifLoaderComponent</text>
</g>
<!-- GifLoaderComponent&#45;&gt;MyProfileModule -->
<g id="edge8" class="edge">
<title>GifLoaderComponent&#45;&gt;MyProfileModule</title>
<path fill="none" stroke="black" d="M1202,-122.11C1202,-141.34 1202,-169 1202,-169 1202,-169 828.69,-169 828.69,-169"/>
<polygon fill="black" stroke="black" points="828.69,-165.5 818.69,-169 828.69,-172.5 828.69,-165.5"/>
</g>
</g>
</svg>
