<?xml version="1.0" encoding="UTF-8" standalone="no"?>
<!DOCTYPE svg PUBLIC "-//W3C//DTD SVG 1.1//EN"
 "http://www.w3.org/Graphics/SVG/1.1/DTD/svg11.dtd">
<!-- Generated by graphviz version 2.47.0 (20210316.0004)
 -->
<!-- Title: dependencies Pages: 1 -->
<svg width="825pt" height="211pt"
 viewBox="0.00 0.00 825.00 211.00" xmlns="http://www.w3.org/2000/svg" xmlns:xlink="http://www.w3.org/1999/xlink">
<g id="graph0" class="graph" transform="scale(1 1) rotate(0) translate(4 207)">
<title>dependencies</title>
<polygon fill="white" stroke="transparent" points="-4,4 -4,-207 821,-207 821,4 -4,4"/>
<text text-anchor="start" x="387.51" y="-42.4" font-family="Times-12" font-weight="bold" font-size="14.00">Legend</text>
<polygon fill="#ffffb3" stroke="transparent" points="174.5,-10 174.5,-30 194.5,-30 194.5,-10 174.5,-10"/>
<text text-anchor="start" x="198.13" y="-15.4" font-family="Times-12" font-size="14.00"> &#160;Declarations</text>
<polygon fill="#8dd3c7" stroke="transparent" points="287.5,-10 287.5,-30 307.5,-30 307.5,-10 287.5,-10"/>
<text text-anchor="start" x="311.23" y="-15.4" font-family="Times-12" font-size="14.00"> &#160;Module</text>
<polygon fill="#80b1d3" stroke="transparent" points="373.5,-10 373.5,-30 393.5,-30 393.5,-10 373.5,-10"/>
<text text-anchor="start" x="397.28" y="-15.4" font-family="Times-12" font-size="14.00"> &#160;Bootstrap</text>
<polygon fill="#fdb462" stroke="transparent" points="470.5,-10 470.5,-30 490.5,-30 490.5,-10 470.5,-10"/>
<text text-anchor="start" x="494.17" y="-15.4" font-family="Times-12" font-size="14.00"> &#160;Providers</text>
<polygon fill="#fb8072" stroke="transparent" points="566.5,-10 566.5,-30 586.5,-30 586.5,-10 566.5,-10"/>
<text text-anchor="start" x="590.23" y="-15.4" font-family="Times-12" font-size="14.00"> &#160;Exports</text>
<g id="clust1" class="cluster">
<title>cluster_AccountModule</title>
<polygon fill="none" stroke="black" stroke-dasharray="1,5" points="8,-70 8,-195 809,-195 809,-70 8,-70"/>
</g>
<g id="clust2" class="cluster">
<title>cluster_AccountModule_declarations</title>
<polygon fill="none" stroke="black" points="16,-78 16,-130 801,-130 801,-78 16,-78"/>
</g>
<!-- AccountLayoutComponent -->
<g id="node1" class="node">
<title>AccountLayoutComponent</title>
<polygon fill="#ffffb3" stroke="black" points="793.42,-122 624.58,-122 624.58,-86 793.42,-86 793.42,-122"/>
<text text-anchor="middle" x="709" y="-99.8" font-family="Times,serif" font-size="14.00">AccountLayoutComponent</text>
</g>
<!-- AccountModule -->
<g id="node6" class="node">
<title>AccountModule</title>
<polygon fill="#8dd3c7" stroke="black" points="412.48,-187 409.48,-191 388.48,-191 385.48,-187 305.52,-187 305.52,-151 412.48,-151 412.48,-187"/>
<text text-anchor="middle" x="359" y="-164.8" font-family="Times,serif" font-size="14.00">AccountModule</text>
</g>
<!-- AccountLayoutComponent&#45;&gt;AccountModule -->
<g id="edge1" class="edge">
<title>AccountLayoutComponent&#45;&gt;AccountModule</title>
<path fill="none" stroke="black" d="M709,-122.28C709,-143.32 709,-175 709,-175 709,-175 422.54,-175 422.54,-175"/>
<polygon fill="black" stroke="black" points="422.54,-171.5 412.54,-175 422.54,-178.5 422.54,-171.5"/>
</g>
<!-- ForgotPasswordComponent -->
<g id="node2" class="node">
<title>ForgotPasswordComponent</title>
<polygon fill="#ffffb3" stroke="black" points="607.32,-122 434.68,-122 434.68,-86 607.32,-86 607.32,-122"/>
<text text-anchor="middle" x="521" y="-99.8" font-family="Times,serif" font-size="14.00">ForgotPasswordComponent</text>
</g>
<!-- ForgotPasswordComponent&#45;&gt;AccountModule -->
<g id="edge2" class="edge">
<title>ForgotPasswordComponent&#45;&gt;AccountModule</title>
<path fill="none" stroke="black" d="M521,-122.02C521,-139.37 521,-163 521,-163 521,-163 422.49,-163 422.49,-163"/>
<polygon fill="black" stroke="black" points="422.49,-159.5 412.49,-163 422.49,-166.5 422.49,-159.5"/>
</g>
<!-- LoginComponent -->
<g id="node3" class="node">
<title>LoginComponent</title>
<polygon fill="#ffffb3" stroke="black" points="416.28,-122 301.72,-122 301.72,-86 416.28,-86 416.28,-122"/>
<text text-anchor="middle" x="359" y="-99.8" font-family="Times,serif" font-size="14.00">LoginComponent</text>
</g>
<!-- LoginComponent&#45;&gt;AccountModule -->
<g id="edge3" class="edge">
<title>LoginComponent&#45;&gt;AccountModule</title>
<path fill="none" stroke="black" d="M359,-122.11C359,-122.11 359,-140.99 359,-140.99"/>
<polygon fill="black" stroke="black" points="355.5,-140.99 359,-150.99 362.5,-140.99 355.5,-140.99"/>
</g>
<!-- SignUpComponent -->
<g id="node4" class="node">
<title>SignUpComponent</title>
<polygon fill="#ffffb3" stroke="black" points="284.11,-122 159.89,-122 159.89,-86 284.11,-86 284.11,-122"/>
<text text-anchor="middle" x="222" y="-99.8" font-family="Times,serif" font-size="14.00">SignUpComponent</text>
</g>
<!-- SignUpComponent&#45;&gt;AccountModule -->
<g id="edge4" class="edge">
<title>SignUpComponent&#45;&gt;AccountModule</title>
<path fill="none" stroke="black" d="M222,-122.02C222,-139.37 222,-163 222,-163 222,-163 295.25,-163 295.25,-163"/>
<polygon fill="black" stroke="black" points="295.25,-166.5 305.25,-163 295.25,-159.5 295.25,-166.5"/>
</g>
<!-- VerifyComponent -->
<g id="node5" class="node">
<title>VerifyComponent</title>
<polygon fill="#ffffb3" stroke="black" points="141.87,-122 24.13,-122 24.13,-86 141.87,-86 141.87,-122"/>
<text text-anchor="middle" x="83" y="-99.8" font-family="Times,serif" font-size="14.00">VerifyComponent</text>
</g>
<!-- VerifyComponent&#45;&gt;AccountModule -->
<g id="edge5" class="edge">
<title>VerifyComponent&#45;&gt;AccountModule</title>
<path fill="none" stroke="black" d="M83,-122.28C83,-143.32 83,-175 83,-175 83,-175 295.46,-175 295.46,-175"/>
<polygon fill="black" stroke="black" points="295.46,-178.5 305.46,-175 295.46,-171.5 295.46,-178.5"/>
</g>
</g>
</svg>
