<?xml version="1.0" encoding="UTF-8" standalone="no"?>
<!DOCTYPE svg PUBLIC "-//W3C//DTD SVG 1.1//EN"
 "http://www.w3.org/Graphics/SVG/1.1/DTD/svg11.dtd">
<!-- Generated by graphviz version 2.47.0 (20210316.0004)
 -->
<!-- Title: dependencies Pages: 1 -->
<svg width="3543pt" height="211pt"
 viewBox="0.00 0.00 3543.00 211.00" xmlns="http://www.w3.org/2000/svg" xmlns:xlink="http://www.w3.org/1999/xlink">
<g id="graph0" class="graph" transform="scale(1 1) rotate(0) translate(4 207)">
<title>dependencies</title>
<polygon fill="white" stroke="transparent" points="-4,4 -4,-207 3539,-207 3539,4 -4,4"/>
<text text-anchor="start" x="1746.51" y="-42.4" font-family="Times-12" font-weight="bold" font-size="14.00">Legend</text>
<polygon fill="#ffffb3" stroke="transparent" points="1533.5,-10 1533.5,-30 1553.5,-30 1553.5,-10 1533.5,-10"/>
<text text-anchor="start" x="1557.13" y="-15.4" font-family="Times-12" font-size="14.00"> &#160;Declarations</text>
<polygon fill="#8dd3c7" stroke="transparent" points="1646.5,-10 1646.5,-30 1666.5,-30 1666.5,-10 1646.5,-10"/>
<text text-anchor="start" x="1670.23" y="-15.4" font-family="Times-12" font-size="14.00"> &#160;Module</text>
<polygon fill="#80b1d3" stroke="transparent" points="1732.5,-10 1732.5,-30 1752.5,-30 1752.5,-10 1732.5,-10"/>
<text text-anchor="start" x="1756.28" y="-15.4" font-family="Times-12" font-size="14.00"> &#160;Bootstrap</text>
<polygon fill="#fdb462" stroke="transparent" points="1829.5,-10 1829.5,-30 1849.5,-30 1849.5,-10 1829.5,-10"/>
<text text-anchor="start" x="1853.17" y="-15.4" font-family="Times-12" font-size="14.00"> &#160;Providers</text>
<polygon fill="#fb8072" stroke="transparent" points="1925.5,-10 1925.5,-30 1945.5,-30 1945.5,-10 1925.5,-10"/>
<text text-anchor="start" x="1949.23" y="-15.4" font-family="Times-12" font-size="14.00"> &#160;Exports</text>
<g id="clust1" class="cluster">
<title>cluster_ViewerModule</title>
<polygon fill="none" stroke="black" stroke-dasharray="1,5" points="8,-70 8,-195 3527,-195 3527,-70 8,-70"/>
</g>
<g id="clust19" class="cluster">
<title>cluster_ViewerModule_imports</title>
<polygon fill="none" stroke="black" points="3201,-78 3201,-130 3519,-130 3519,-78 3201,-78"/>
</g>
<g id="clust2" class="cluster">
<title>cluster_ViewerModule_declarations</title>
<polygon fill="none" stroke="black" points="16,-78 16,-130 3193,-130 3193,-78 16,-78"/>
</g>
<!-- BroadcastVideosComponent -->
<g id="node1" class="node">
<title>BroadcastVideosComponent</title>
<polygon fill="#ffffb3" stroke="black" points="3185.47,-122 3008.53,-122 3008.53,-86 3185.47,-86 3185.47,-122"/>
<text text-anchor="middle" x="3097" y="-99.8" font-family="Times,serif" font-size="14.00">BroadcastVideosComponent</text>
</g>
<!-- ViewerModule -->
<g id="node17" class="node">
<title>ViewerModule</title>
<polygon fill="#8dd3c7" stroke="black" points="1790.24,-187 1787.24,-191 1766.24,-191 1763.24,-187 1689.76,-187 1689.76,-151 1790.24,-151 1790.24,-187"/>
<text text-anchor="middle" x="1740" y="-164.8" font-family="Times,serif" font-size="14.00">ViewerModule</text>
</g>
<!-- BroadcastVideosComponent&#45;&gt;ViewerModule -->
<g id="edge1" class="edge">
<title>BroadcastVideosComponent&#45;&gt;ViewerModule</title>
<path fill="none" stroke="black" d="M3097,-122.28C3097,-143.32 3097,-175 3097,-175 3097,-175 1800.31,-175 1800.31,-175"/>
<polygon fill="black" stroke="black" points="1800.31,-171.5 1790.31,-175 1800.31,-178.5 1800.31,-171.5"/>
</g>
<!-- BroadcastViewerResultsComponent -->
<g id="node2" class="node">
<title>BroadcastViewerResultsComponent</title>
<polygon fill="#ffffb3" stroke="black" points="2990.72,-122 2771.28,-122 2771.28,-86 2990.72,-86 2990.72,-122"/>
<text text-anchor="middle" x="2881" y="-99.8" font-family="Times,serif" font-size="14.00">BroadcastViewerResultsComponent</text>
</g>
<!-- BroadcastViewerResultsComponent&#45;&gt;ViewerModule -->
<g id="edge2" class="edge">
<title>BroadcastViewerResultsComponent&#45;&gt;ViewerModule</title>
<path fill="none" stroke="black" d="M2881,-122.31C2881,-142.15 2881,-171 2881,-171 2881,-171 1800.5,-171 1800.5,-171"/>
<polygon fill="black" stroke="black" points="1800.5,-167.5 1790.5,-171 1800.5,-174.5 1800.5,-167.5"/>
</g>
<!-- ViewerEventDetailsComponent -->
<g id="node3" class="node">
<title>ViewerEventDetailsComponent</title>
<polygon fill="#ffffb3" stroke="black" points="2753.34,-122 2558.66,-122 2558.66,-86 2753.34,-86 2753.34,-122"/>
<text text-anchor="middle" x="2656" y="-99.8" font-family="Times,serif" font-size="14.00">ViewerEventDetailsComponent</text>
</g>
<!-- ViewerEventDetailsComponent&#45;&gt;ViewerModule -->
<g id="edge3" class="edge">
<title>ViewerEventDetailsComponent&#45;&gt;ViewerModule</title>
<path fill="none" stroke="black" d="M2656,-122.22C2656,-140.83 2656,-167 2656,-167 2656,-167 1800.55,-167 1800.55,-167"/>
<polygon fill="black" stroke="black" points="1800.55,-163.5 1790.55,-167 1800.55,-170.5 1800.55,-163.5"/>
</g>
<!-- ViewerFixturesComponent -->
<g id="node4" class="node">
<title>ViewerFixturesComponent</title>
<polygon fill="#ffffb3" stroke="black" points="2540.41,-122 2371.59,-122 2371.59,-86 2540.41,-86 2540.41,-122"/>
<text text-anchor="middle" x="2456" y="-99.8" font-family="Times,serif" font-size="14.00">ViewerFixturesComponent</text>
</g>
<!-- ViewerFixturesComponent&#45;&gt;ViewerModule -->
<g id="edge4" class="edge">
<title>ViewerFixturesComponent&#45;&gt;ViewerModule</title>
<path fill="none" stroke="black" d="M2456,-122.02C2456,-139.37 2456,-163 2456,-163 2456,-163 1800.35,-163 1800.35,-163"/>
<polygon fill="black" stroke="black" points="1800.35,-159.5 1790.35,-163 1800.35,-166.5 1800.35,-159.5"/>
</g>
<!-- ViewerGroupCreationComponent -->
<g id="node5" class="node">
<title>ViewerGroupCreationComponent</title>
<polygon fill="#ffffb3" stroke="black" points="2354,-122 2148,-122 2148,-86 2354,-86 2354,-122"/>
<text text-anchor="middle" x="2251" y="-99.8" font-family="Times,serif" font-size="14.00">ViewerGroupCreationComponent</text>
</g>
<!-- ViewerGroupCreationComponent&#45;&gt;ViewerModule -->
<g id="edge5" class="edge">
<title>ViewerGroupCreationComponent&#45;&gt;ViewerModule</title>
<path fill="none" stroke="black" d="M2251,-122.01C2251,-138.05 2251,-159 2251,-159 2251,-159 1800.4,-159 1800.4,-159"/>
<polygon fill="black" stroke="black" points="1800.4,-155.5 1790.4,-159 1800.4,-162.5 1800.4,-155.5"/>
</g>
<!-- ViewerGrpPlayOffComponent -->
<g id="node6" class="node">
<title>ViewerGrpPlayOffComponent</title>
<polygon fill="#ffffb3" stroke="black" points="2129.11,-122 1940.89,-122 1940.89,-86 2129.11,-86 2129.11,-122"/>
<text text-anchor="middle" x="2035" y="-99.8" font-family="Times,serif" font-size="14.00">ViewerGrpPlayOffComponent</text>
</g>
<!-- ViewerGrpPlayOffComponent&#45;&gt;ViewerModule -->
<g id="edge6" class="edge">
<title>ViewerGrpPlayOffComponent&#45;&gt;ViewerModule</title>
<path fill="none" stroke="black" d="M2035,-122.12C2035,-136.78 2035,-155 2035,-155 2035,-155 1800.38,-155 1800.38,-155"/>
<polygon fill="black" stroke="black" points="1800.38,-151.5 1790.38,-155 1800.38,-158.5 1800.38,-151.5"/>
</g>
<!-- ViewerKnockoutComponent -->
<g id="node7" class="node">
<title>ViewerKnockoutComponent</title>
<polygon fill="#ffffb3" stroke="black" points="1922.74,-122 1745.26,-122 1745.26,-86 1922.74,-86 1922.74,-122"/>
<text text-anchor="middle" x="1834" y="-99.8" font-family="Times,serif" font-size="14.00">ViewerKnockoutComponent</text>
</g>
<!-- ViewerKnockoutComponent&#45;&gt;ViewerModule -->
<g id="edge7" class="edge">
<title>ViewerKnockoutComponent&#45;&gt;ViewerModule</title>
<path fill="none" stroke="black" d="M1767.75,-122.11C1767.75,-122.11 1767.75,-140.99 1767.75,-140.99"/>
<polygon fill="black" stroke="black" points="1764.25,-140.99 1767.75,-150.99 1771.25,-140.99 1764.25,-140.99"/>
</g>
<!-- ViewerLayoutComponent -->
<g id="node8" class="node">
<title>ViewerLayoutComponent</title>
<polygon fill="#ffffb3" stroke="black" points="1727.18,-122 1564.82,-122 1564.82,-86 1727.18,-86 1727.18,-122"/>
<text text-anchor="middle" x="1646" y="-99.8" font-family="Times,serif" font-size="14.00">ViewerLayoutComponent</text>
</g>
<!-- ViewerLayoutComponent&#45;&gt;ViewerModule -->
<g id="edge8" class="edge">
<title>ViewerLayoutComponent&#45;&gt;ViewerModule</title>
<path fill="none" stroke="black" d="M1708.36,-122.11C1708.36,-122.11 1708.36,-140.99 1708.36,-140.99"/>
<polygon fill="black" stroke="black" points="1704.86,-140.99 1708.36,-150.99 1711.86,-140.99 1704.86,-140.99"/>
</g>
<!-- ViewerPlayerListComponent -->
<g id="node9" class="node">
<title>ViewerPlayerListComponent</title>
<polygon fill="#ffffb3" stroke="black" points="1547.07,-122 1366.93,-122 1366.93,-86 1547.07,-86 1547.07,-122"/>
<text text-anchor="middle" x="1457" y="-99.8" font-family="Times,serif" font-size="14.00">ViewerPlayerListComponent</text>
</g>
<!-- ViewerPlayerListComponent&#45;&gt;ViewerModule -->
<g id="edge9" class="edge">
<title>ViewerPlayerListComponent&#45;&gt;ViewerModule</title>
<path fill="none" stroke="black" d="M1457,-122.12C1457,-136.78 1457,-155 1457,-155 1457,-155 1679.73,-155 1679.73,-155"/>
<polygon fill="black" stroke="black" points="1679.73,-158.5 1689.73,-155 1679.73,-151.5 1679.73,-158.5"/>
</g>
<!-- ViewerProspectusComponent -->
<g id="node10" class="node">
<title>ViewerProspectusComponent</title>
<polygon fill="#ffffb3" stroke="black" points="1348.68,-122 1165.32,-122 1165.32,-86 1348.68,-86 1348.68,-122"/>
<text text-anchor="middle" x="1257" y="-99.8" font-family="Times,serif" font-size="14.00">ViewerProspectusComponent</text>
</g>
<!-- ViewerProspectusComponent&#45;&gt;ViewerModule -->
<g id="edge10" class="edge">
<title>ViewerProspectusComponent&#45;&gt;ViewerModule</title>
<path fill="none" stroke="black" d="M1257,-122.01C1257,-138.05 1257,-159 1257,-159 1257,-159 1679.68,-159 1679.68,-159"/>
<polygon fill="black" stroke="black" points="1679.68,-162.5 1689.68,-159 1679.68,-155.5 1679.68,-162.5"/>
</g>
<!-- ViewerRankingsComponent -->
<g id="node11" class="node">
<title>ViewerRankingsComponent</title>
<polygon fill="#ffffb3" stroke="black" points="1147.91,-122 972.09,-122 972.09,-86 1147.91,-86 1147.91,-122"/>
<text text-anchor="middle" x="1060" y="-99.8" font-family="Times,serif" font-size="14.00">ViewerRankingsComponent</text>
</g>
<!-- ViewerRankingsComponent&#45;&gt;ViewerModule -->
<g id="edge11" class="edge">
<title>ViewerRankingsComponent&#45;&gt;ViewerModule</title>
<path fill="none" stroke="black" d="M1060,-122.02C1060,-139.37 1060,-163 1060,-163 1060,-163 1679.72,-163 1679.72,-163"/>
<polygon fill="black" stroke="black" points="1679.72,-166.5 1689.72,-163 1679.72,-159.5 1679.72,-166.5"/>
</g>
<!-- ViewerRegistrationComponent -->
<g id="node12" class="node">
<title>ViewerRegistrationComponent</title>
<polygon fill="#ffffb3" stroke="black" points="954.46,-122 763.54,-122 763.54,-86 954.46,-86 954.46,-122"/>
<text text-anchor="middle" x="859" y="-99.8" font-family="Times,serif" font-size="14.00">ViewerRegistrationComponent</text>
</g>
<!-- ViewerRegistrationComponent&#45;&gt;ViewerModule -->
<g id="edge12" class="edge">
<title>ViewerRegistrationComponent&#45;&gt;ViewerModule</title>
<path fill="none" stroke="black" d="M859,-122.22C859,-140.83 859,-167 859,-167 859,-167 1679.47,-167 1679.47,-167"/>
<polygon fill="black" stroke="black" points="1679.47,-170.5 1689.47,-167 1679.47,-163.5 1679.47,-170.5"/>
</g>
<!-- ViewerResultsComponent -->
<g id="node13" class="node">
<title>ViewerResultsComponent</title>
<polygon fill="#ffffb3" stroke="black" points="745.75,-122 582.25,-122 582.25,-86 745.75,-86 745.75,-122"/>
<text text-anchor="middle" x="664" y="-99.8" font-family="Times,serif" font-size="14.00">ViewerResultsComponent</text>
</g>
<!-- ViewerResultsComponent&#45;&gt;ViewerModule -->
<g id="edge13" class="edge">
<title>ViewerResultsComponent&#45;&gt;ViewerModule</title>
<path fill="none" stroke="black" d="M664,-122.31C664,-142.15 664,-171 664,-171 664,-171 1679.55,-171 1679.55,-171"/>
<polygon fill="black" stroke="black" points="1679.55,-174.5 1689.55,-171 1679.55,-167.5 1679.55,-174.5"/>
</g>
<!-- ViewerRoundRobinComponent -->
<g id="node14" class="node">
<title>ViewerRoundRobinComponent</title>
<polygon fill="#ffffb3" stroke="black" points="564.09,-122 369.91,-122 369.91,-86 564.09,-86 564.09,-122"/>
<text text-anchor="middle" x="467" y="-99.8" font-family="Times,serif" font-size="14.00">ViewerRoundRobinComponent</text>
</g>
<!-- ViewerRoundRobinComponent&#45;&gt;ViewerModule -->
<g id="edge14" class="edge">
<title>ViewerRoundRobinComponent&#45;&gt;ViewerModule</title>
<path fill="none" stroke="black" d="M467,-122.28C467,-143.32 467,-175 467,-175 467,-175 1679.7,-175 1679.7,-175"/>
<polygon fill="black" stroke="black" points="1679.7,-178.5 1689.7,-175 1679.7,-171.5 1679.7,-178.5"/>
</g>
<!-- ViewerTreeComponent -->
<g id="node15" class="node">
<title>ViewerTreeComponent</title>
<polygon fill="#ffffb3" stroke="black" points="352.17,-122 203.83,-122 203.83,-86 352.17,-86 352.17,-122"/>
<text text-anchor="middle" x="278" y="-99.8" font-family="Times,serif" font-size="14.00">ViewerTreeComponent</text>
</g>
<!-- ViewerTreeComponent&#45;&gt;ViewerModule -->
<g id="edge15" class="edge">
<title>ViewerTreeComponent&#45;&gt;ViewerModule</title>
<path fill="none" stroke="black" d="M278,-122.16C278,-144.35 278,-179 278,-179 278,-179 1679.67,-179 1679.67,-179"/>
<polygon fill="black" stroke="black" points="1679.67,-182.5 1689.67,-179 1679.67,-175.5 1679.67,-182.5"/>
</g>
<!-- ViewerVideosComponent -->
<g id="node16" class="node">
<title>ViewerVideosComponent</title>
<polygon fill="#ffffb3" stroke="black" points="186.18,-122 23.82,-122 23.82,-86 186.18,-86 186.18,-122"/>
<text text-anchor="middle" x="105" y="-99.8" font-family="Times,serif" font-size="14.00">ViewerVideosComponent</text>
</g>
<!-- ViewerVideosComponent&#45;&gt;ViewerModule -->
<g id="edge16" class="edge">
<title>ViewerVideosComponent&#45;&gt;ViewerModule</title>
<path fill="none" stroke="black" d="M105,-122.32C105,-145.66 105,-183 105,-183 105,-183 1679.73,-183 1679.73,-183"/>
<polygon fill="black" stroke="black" points="1679.73,-186.5 1689.73,-183 1679.73,-179.5 1679.73,-186.5"/>
</g>
<!-- EventOrganizeModule -->
<g id="node18" class="node">
<title>EventOrganizeModule</title>
<polygon fill="#8dd3c7" stroke="black" points="3510.51,-122 3507.51,-126 3486.51,-126 3483.51,-122 3367.49,-122 3367.49,-86 3510.51,-86 3510.51,-122"/>
<text text-anchor="middle" x="3439" y="-99.8" font-family="Times,serif" font-size="14.00">EventOrganizeModule</text>
</g>
<!-- EventOrganizeModule&#45;&gt;ViewerModule -->
<g id="edge17" class="edge">
<title>EventOrganizeModule&#45;&gt;ViewerModule</title>
<path fill="none" stroke="black" d="M3439,-122.32C3439,-145.66 3439,-183 3439,-183 3439,-183 1800.39,-183 1800.39,-183"/>
<polygon fill="black" stroke="black" points="1800.39,-179.5 1790.39,-183 1800.39,-186.5 1800.39,-179.5"/>
</g>
<!-- GifLoaderComponent -->
<g id="node19" class="node">
<title>GifLoaderComponent</title>
<polygon fill="#8dd3c7" stroke="black" points="3348.63,-122 3345.63,-126 3324.63,-126 3321.63,-122 3209.37,-122 3209.37,-86 3348.63,-86 3348.63,-122"/>
<text text-anchor="middle" x="3279" y="-99.8" font-family="Times,serif" font-size="14.00">GifLoaderComponent</text>
</g>
<!-- GifLoaderComponent&#45;&gt;ViewerModule -->
<g id="edge18" class="edge">
<title>GifLoaderComponent&#45;&gt;ViewerModule</title>
<path fill="none" stroke="black" d="M3279,-122.16C3279,-144.35 3279,-179 3279,-179 3279,-179 1800.33,-179 1800.33,-179"/>
<polygon fill="black" stroke="black" points="1800.33,-175.5 1790.33,-179 1800.33,-182.5 1800.33,-175.5"/>
</g>
</g>
</svg>
