<?xml version="1.0" encoding="UTF-8" standalone="no"?>
<!DOCTYPE svg PUBLIC "-//W3C//DTD SVG 1.1//EN"
 "http://www.w3.org/Graphics/SVG/1.1/DTD/svg11.dtd">
<!-- Generated by graphviz version 2.47.0 (20210316.0004)
 -->
<!-- Title: dependencies Pages: 1 -->
<svg width="1949pt" height="211pt"
 viewBox="0.00 0.00 1949.00 211.00" xmlns="http://www.w3.org/2000/svg" xmlns:xlink="http://www.w3.org/1999/xlink">
<g id="graph0" class="graph" transform="scale(1 1) rotate(0) translate(4 207)">
<title>dependencies</title>
<polygon fill="white" stroke="transparent" points="-4,4 -4,-207 1945,-207 1945,4 -4,4"/>
<text text-anchor="start" x="949.51" y="-42.4" font-family="Times-12" font-weight="bold" font-size="14.00">Legend</text>
<polygon fill="#ffffb3" stroke="transparent" points="736.5,-10 736.5,-30 756.5,-30 756.5,-10 736.5,-10"/>
<text text-anchor="start" x="760.13" y="-15.4" font-family="Times-12" font-size="14.00"> &#160;Declarations</text>
<polygon fill="#8dd3c7" stroke="transparent" points="849.5,-10 849.5,-30 869.5,-30 869.5,-10 849.5,-10"/>
<text text-anchor="start" x="873.23" y="-15.4" font-family="Times-12" font-size="14.00"> &#160;Module</text>
<polygon fill="#80b1d3" stroke="transparent" points="935.5,-10 935.5,-30 955.5,-30 955.5,-10 935.5,-10"/>
<text text-anchor="start" x="959.28" y="-15.4" font-family="Times-12" font-size="14.00"> &#160;Bootstrap</text>
<polygon fill="#fdb462" stroke="transparent" points="1032.5,-10 1032.5,-30 1052.5,-30 1052.5,-10 1032.5,-10"/>
<text text-anchor="start" x="1056.17" y="-15.4" font-family="Times-12" font-size="14.00"> &#160;Providers</text>
<polygon fill="#fb8072" stroke="transparent" points="1128.5,-10 1128.5,-30 1148.5,-30 1148.5,-10 1128.5,-10"/>
<text text-anchor="start" x="1152.23" y="-15.4" font-family="Times-12" font-size="14.00"> &#160;Exports</text>
<g id="clust1" class="cluster">
<title>cluster_HomeModule</title>
<polygon fill="none" stroke="black" stroke-dasharray="1,5" points="8,-70 8,-195 1933,-195 1933,-70 8,-70"/>
</g>
<g id="clust2" class="cluster">
<title>cluster_HomeModule_declarations</title>
<polygon fill="none" stroke="black" points="378,-78 378,-130 1925,-130 1925,-78 378,-78"/>
</g>
<g id="clust12" class="cluster">
<title>cluster_HomeModule_imports</title>
<polygon fill="none" stroke="black" points="16,-78 16,-130 370,-130 370,-78 16,-78"/>
</g>
<!-- AllIncompletedComponent -->
<g id="node1" class="node">
<title>AllIncompletedComponent</title>
<polygon fill="#ffffb3" stroke="black" points="1916.7,-122 1747.3,-122 1747.3,-86 1916.7,-86 1916.7,-122"/>
<text text-anchor="middle" x="1832" y="-99.8" font-family="Times,serif" font-size="14.00">AllIncompletedComponent</text>
</g>
<!-- HomeModule -->
<g id="node10" class="node">
<title>HomeModule</title>
<polygon fill="#8dd3c7" stroke="black" points="992.76,-187 989.76,-191 968.76,-191 965.76,-187 899.24,-187 899.24,-151 992.76,-151 992.76,-187"/>
<text text-anchor="middle" x="946" y="-164.8" font-family="Times,serif" font-size="14.00">HomeModule</text>
</g>
<!-- AllIncompletedComponent&#45;&gt;HomeModule -->
<g id="edge1" class="edge">
<title>AllIncompletedComponent&#45;&gt;HomeModule</title>
<path fill="none" stroke="black" d="M1832,-122.09C1832,-145.13 1832,-182 1832,-182 1832,-182 1003.01,-182 1003.01,-182"/>
<polygon fill="black" stroke="black" points="1003.01,-178.5 993.01,-182 1003.01,-185.5 1003.01,-178.5"/>
</g>
<!-- AllLiveMatchesComponent -->
<g id="node2" class="node">
<title>AllLiveMatchesComponent</title>
<polygon fill="#ffffb3" stroke="black" points="1729.3,-122 1556.7,-122 1556.7,-86 1729.3,-86 1729.3,-122"/>
<text text-anchor="middle" x="1643" y="-99.8" font-family="Times,serif" font-size="14.00">AllLiveMatchesComponent</text>
</g>
<!-- AllLiveMatchesComponent&#45;&gt;HomeModule -->
<g id="edge2" class="edge">
<title>AllLiveMatchesComponent&#45;&gt;HomeModule</title>
<path fill="none" stroke="black" d="M1643,-122.28C1643,-143.32 1643,-175 1643,-175 1643,-175 1002.81,-175 1002.81,-175"/>
<polygon fill="black" stroke="black" points="1002.81,-171.5 992.81,-175 1002.81,-178.5 1002.81,-171.5"/>
</g>
<!-- AllOngoingComponent -->
<g id="node3" class="node">
<title>AllOngoingComponent</title>
<polygon fill="#ffffb3" stroke="black" points="1539.22,-122 1390.78,-122 1390.78,-86 1539.22,-86 1539.22,-122"/>
<text text-anchor="middle" x="1465" y="-99.8" font-family="Times,serif" font-size="14.00">AllOngoingComponent</text>
</g>
<!-- AllOngoingComponent&#45;&gt;HomeModule -->
<g id="edge3" class="edge">
<title>AllOngoingComponent&#45;&gt;HomeModule</title>
<path fill="none" stroke="black" d="M1465,-122.11C1465,-141.34 1465,-169 1465,-169 1465,-169 1002.97,-169 1002.97,-169"/>
<polygon fill="black" stroke="black" points="1002.97,-165.5 992.97,-169 1002.97,-172.5 1002.97,-165.5"/>
</g>
<!-- AllRecentsComponent -->
<g id="node4" class="node">
<title>AllRecentsComponent</title>
<polygon fill="#ffffb3" stroke="black" points="1372.54,-122 1229.46,-122 1229.46,-86 1372.54,-86 1372.54,-122"/>
<text text-anchor="middle" x="1301" y="-99.8" font-family="Times,serif" font-size="14.00">AllRecentsComponent</text>
</g>
<!-- AllRecentsComponent&#45;&gt;HomeModule -->
<g id="edge4" class="edge">
<title>AllRecentsComponent&#45;&gt;HomeModule</title>
<path fill="none" stroke="black" d="M1301,-122.02C1301,-139.37 1301,-163 1301,-163 1301,-163 1002.78,-163 1002.78,-163"/>
<polygon fill="black" stroke="black" points="1002.78,-159.5 992.78,-163 1002.78,-166.5 1002.78,-159.5"/>
</g>
<!-- AllRegistrationComponent -->
<g id="node5" class="node">
<title>AllRegistrationComponent</title>
<polygon fill="#ffffb3" stroke="black" points="1210.65,-122 1043.35,-122 1043.35,-86 1210.65,-86 1210.65,-122"/>
<text text-anchor="middle" x="1127" y="-99.8" font-family="Times,serif" font-size="14.00">AllRegistrationComponent</text>
</g>
<!-- AllRegistrationComponent&#45;&gt;HomeModule -->
<g id="edge5" class="edge">
<title>AllRegistrationComponent&#45;&gt;HomeModule</title>
<path fill="none" stroke="black" d="M1127,-122.24C1127,-137.57 1127,-157 1127,-157 1127,-157 1003.08,-157 1003.08,-157"/>
<polygon fill="black" stroke="black" points="1003.08,-153.5 993.08,-157 1003.08,-160.5 1003.08,-153.5"/>
</g>
<!-- AllUpcomingComponent -->
<g id="node6" class="node">
<title>AllUpcomingComponent</title>
<polygon fill="#ffffb3" stroke="black" points="1025.32,-122 866.68,-122 866.68,-86 1025.32,-86 1025.32,-122"/>
<text text-anchor="middle" x="946" y="-99.8" font-family="Times,serif" font-size="14.00">AllUpcomingComponent</text>
</g>
<!-- AllUpcomingComponent&#45;&gt;HomeModule -->
<g id="edge6" class="edge">
<title>AllUpcomingComponent&#45;&gt;HomeModule</title>
<path fill="none" stroke="black" d="M946,-122.11C946,-122.11 946,-140.99 946,-140.99"/>
<polygon fill="black" stroke="black" points="942.5,-140.99 946,-150.99 949.5,-140.99 942.5,-140.99"/>
</g>
<!-- BuyMembershipComponent -->
<g id="node7" class="node">
<title>BuyMembershipComponent</title>
<polygon fill="#ffffb3" stroke="black" points="848.93,-122 673.07,-122 673.07,-86 848.93,-86 848.93,-122"/>
<text text-anchor="middle" x="761" y="-99.8" font-family="Times,serif" font-size="14.00">BuyMembershipComponent</text>
</g>
<!-- BuyMembershipComponent&#45;&gt;HomeModule -->
<g id="edge7" class="edge">
<title>BuyMembershipComponent&#45;&gt;HomeModule</title>
<path fill="none" stroke="black" d="M761,-122.24C761,-137.57 761,-157 761,-157 761,-157 888.84,-157 888.84,-157"/>
<polygon fill="black" stroke="black" points="888.84,-160.5 898.84,-157 888.84,-153.5 888.84,-160.5"/>
</g>
<!-- HomeComponent -->
<g id="node8" class="node">
<title>HomeComponent</title>
<polygon fill="#ffffb3" stroke="black" points="655.55,-122 540.45,-122 540.45,-86 655.55,-86 655.55,-122"/>
<text text-anchor="middle" x="598" y="-99.8" font-family="Times,serif" font-size="14.00">HomeComponent</text>
</g>
<!-- HomeComponent&#45;&gt;HomeModule -->
<g id="edge8" class="edge">
<title>HomeComponent&#45;&gt;HomeModule</title>
<path fill="none" stroke="black" d="M598,-122.02C598,-139.37 598,-163 598,-163 598,-163 889.07,-163 889.07,-163"/>
<polygon fill="black" stroke="black" points="889.07,-166.5 899.07,-163 889.07,-159.5 889.07,-166.5"/>
</g>
<!-- LandpageComponent -->
<g id="node9" class="node">
<title>LandpageComponent</title>
<polygon fill="#ffffb3" stroke="black" points="522.03,-122 385.97,-122 385.97,-86 522.03,-86 522.03,-122"/>
<text text-anchor="middle" x="454" y="-99.8" font-family="Times,serif" font-size="14.00">LandpageComponent</text>
</g>
<!-- LandpageComponent&#45;&gt;HomeModule -->
<g id="edge9" class="edge">
<title>LandpageComponent&#45;&gt;HomeModule</title>
<path fill="none" stroke="black" d="M454,-122.11C454,-141.34 454,-169 454,-169 454,-169 888.82,-169 888.82,-169"/>
<polygon fill="black" stroke="black" points="888.83,-172.5 898.82,-169 888.82,-165.5 888.83,-172.5"/>
</g>
<!-- CommonSvgMsgComponent -->
<g id="node11" class="node">
<title>CommonSvgMsgComponent</title>
<polygon fill="#8dd3c7" stroke="black" points="362.12,-122 359.12,-126 338.12,-126 335.12,-122 181.88,-122 181.88,-86 362.12,-86 362.12,-122"/>
<text text-anchor="middle" x="272" y="-99.8" font-family="Times,serif" font-size="14.00">CommonSvgMsgComponent</text>
</g>
<!-- CommonSvgMsgComponent&#45;&gt;HomeModule -->
<g id="edge10" class="edge">
<title>CommonSvgMsgComponent&#45;&gt;HomeModule</title>
<path fill="none" stroke="black" d="M272,-122.28C272,-143.32 272,-175 272,-175 272,-175 889.14,-175 889.14,-175"/>
<polygon fill="black" stroke="black" points="889.14,-178.5 899.14,-175 889.14,-171.5 889.14,-178.5"/>
</g>
<!-- GifLoaderComponent -->
<g id="node12" class="node">
<title>GifLoaderComponent</title>
<polygon fill="#8dd3c7" stroke="black" points="163.63,-122 160.63,-126 139.63,-126 136.63,-122 24.37,-122 24.37,-86 163.63,-86 163.63,-122"/>
<text text-anchor="middle" x="94" y="-99.8" font-family="Times,serif" font-size="14.00">GifLoaderComponent</text>
</g>
<!-- GifLoaderComponent&#45;&gt;HomeModule -->
<g id="edge11" class="edge">
<title>GifLoaderComponent&#45;&gt;HomeModule</title>
<path fill="none" stroke="black" d="M94,-122.09C94,-145.13 94,-182 94,-182 94,-182 888.98,-182 888.98,-182"/>
<polygon fill="black" stroke="black" points="888.98,-185.5 898.98,-182 888.98,-178.5 888.98,-185.5"/>
</g>
</g>
</svg>
