<?xml version="1.0" encoding="UTF-8" standalone="no"?>
<!DOCTYPE svg PUBLIC "-//W3C//DTD SVG 1.1//EN"
 "http://www.w3.org/Graphics/SVG/1.1/DTD/svg11.dtd">
<!-- Generated by graphviz version 2.47.0 (20210316.0004)
 -->
<!-- Title: dependencies Pages: 1 -->
<svg width="1555pt" height="349pt"
 viewBox="0.00 0.00 1555.00 349.00" xmlns="http://www.w3.org/2000/svg" xmlns:xlink="http://www.w3.org/1999/xlink">
<g id="graph0" class="graph" transform="scale(1 1) rotate(0) translate(4 345)">
<title>dependencies</title>
<polygon fill="white" stroke="transparent" points="-4,4 -4,-345 1551,-345 1551,4 -4,4"/>
<text text-anchor="start" x="752.51" y="-42.4" font-family="Times-12" font-weight="bold" font-size="14.00">Legend</text>
<polygon fill="#ffffb3" stroke="transparent" points="539.5,-10 539.5,-30 559.5,-30 559.5,-10 539.5,-10"/>
<text text-anchor="start" x="563.13" y="-15.4" font-family="Times-12" font-size="14.00"> &#160;Declarations</text>
<polygon fill="#8dd3c7" stroke="transparent" points="652.5,-10 652.5,-30 672.5,-30 672.5,-10 652.5,-10"/>
<text text-anchor="start" x="676.23" y="-15.4" font-family="Times-12" font-size="14.00"> &#160;Module</text>
<polygon fill="#80b1d3" stroke="transparent" points="738.5,-10 738.5,-30 758.5,-30 758.5,-10 738.5,-10"/>
<text text-anchor="start" x="762.28" y="-15.4" font-family="Times-12" font-size="14.00"> &#160;Bootstrap</text>
<polygon fill="#fdb462" stroke="transparent" points="835.5,-10 835.5,-30 855.5,-30 855.5,-10 835.5,-10"/>
<text text-anchor="start" x="859.17" y="-15.4" font-family="Times-12" font-size="14.00"> &#160;Providers</text>
<polygon fill="#fb8072" stroke="transparent" points="931.5,-10 931.5,-30 951.5,-30 951.5,-10 931.5,-10"/>
<text text-anchor="start" x="955.23" y="-15.4" font-family="Times-12" font-size="14.00"> &#160;Exports</text>
<g id="clust1" class="cluster">
<title>cluster_AppModule</title>
<polygon fill="none" stroke="black" stroke-dasharray="1,5" points="8,-70 8,-333 1539,-333 1539,-70 8,-70"/>
</g>
<g id="clust3" class="cluster">
<title>cluster_AppModule_AppComponent_providers</title>
<polygon fill="none" stroke="black" points="1015,-78 1015,-195 1531,-195 1531,-78 1015,-78"/>
</g>
<g id="clust2" class="cluster">
<title>cluster_AppModule_declarations</title>
<polygon fill="none" stroke="black" points="595,-143 595,-195 1007,-195 1007,-143 595,-143"/>
</g>
<g id="clust7" class="cluster">
<title>cluster_AppModule_imports</title>
<polygon fill="none" stroke="black" points="196,-143 196,-195 587,-195 587,-143 196,-143"/>
</g>
<g id="clust9" class="cluster">
<title>cluster_AppModule_bootstrap</title>
<polygon fill="none" stroke="black" points="527,-273 527,-325 651,-325 651,-273 527,-273"/>
</g>
<g id="clust10" class="cluster">
<title>cluster_AppModule_providers</title>
<polygon fill="none" stroke="black" points="16,-143 16,-195 188,-195 188,-143 16,-143"/>
</g>
<!-- AppComponent -->
<g id="node1" class="node">
<title>AppComponent</title>
<polygon fill="#ffffb3" stroke="black" points="1212.94,-187 1107.06,-187 1107.06,-151 1212.94,-151 1212.94,-187"/>
<text text-anchor="middle" x="1160" y="-164.8" font-family="Times,serif" font-size="14.00">AppComponent</text>
</g>
<!-- AppModule -->
<g id="node5" class="node">
<title>AppModule</title>
<polygon fill="#8dd3c7" stroke="black" points="630.66,-252 627.66,-256 606.66,-256 603.66,-252 547.34,-252 547.34,-216 630.66,-216 630.66,-252"/>
<text text-anchor="middle" x="589" y="-229.8" font-family="Times,serif" font-size="14.00">AppModule</text>
</g>
<!-- AppComponent&#45;&gt;AppModule -->
<g id="edge1" class="edge">
<title>AppComponent&#45;&gt;AppModule</title>
<path fill="none" stroke="black" d="M1160,-187.29C1160,-209.21 1160,-243 1160,-243 1160,-243 640.99,-243 640.99,-243"/>
<polygon fill="black" stroke="black" points="640.99,-239.5 630.99,-243 640.99,-246.5 640.99,-239.5"/>
</g>
<!-- FooterComponent -->
<g id="node2" class="node">
<title>FooterComponent</title>
<polygon fill="#ffffb3" stroke="black" points="998.88,-187 881.12,-187 881.12,-151 998.88,-151 998.88,-187"/>
<text text-anchor="middle" x="940" y="-164.8" font-family="Times,serif" font-size="14.00">FooterComponent</text>
</g>
<!-- FooterComponent&#45;&gt;AppModule -->
<g id="edge5" class="edge">
<title>FooterComponent&#45;&gt;AppModule</title>
<path fill="none" stroke="black" d="M940,-187.11C940,-206.34 940,-234 940,-234 940,-234 640.99,-234 640.99,-234"/>
<polygon fill="black" stroke="black" points="640.99,-230.5 630.99,-234 640.99,-237.5 640.99,-230.5"/>
</g>
<!-- HeaderComponent -->
<g id="node3" class="node">
<title>HeaderComponent</title>
<polygon fill="#ffffb3" stroke="black" points="862.74,-187 741.26,-187 741.26,-151 862.74,-151 862.74,-187"/>
<text text-anchor="middle" x="802" y="-164.8" font-family="Times,serif" font-size="14.00">HeaderComponent</text>
</g>
<!-- HeaderComponent&#45;&gt;AppModule -->
<g id="edge6" class="edge">
<title>HeaderComponent&#45;&gt;AppModule</title>
<path fill="none" stroke="black" d="M802,-187.03C802,-203.4 802,-225 802,-225 802,-225 640.83,-225 640.83,-225"/>
<polygon fill="black" stroke="black" points="640.83,-221.5 630.83,-225 640.83,-228.5 640.83,-221.5"/>
</g>
<!-- LayoutComponent -->
<g id="node4" class="node">
<title>LayoutComponent</title>
<polygon fill="#ffffb3" stroke="black" points="723.49,-187 602.51,-187 602.51,-151 723.49,-151 723.49,-187"/>
<text text-anchor="middle" x="663" y="-164.8" font-family="Times,serif" font-size="14.00">LayoutComponent</text>
</g>
<!-- LayoutComponent&#45;&gt;AppModule -->
<g id="edge7" class="edge">
<title>LayoutComponent&#45;&gt;AppModule</title>
<path fill="none" stroke="black" d="M616.67,-187.11C616.67,-187.11 616.67,-205.99 616.67,-205.99"/>
<polygon fill="black" stroke="black" points="613.17,-205.99 616.67,-215.99 620.17,-205.99 613.17,-205.99"/>
</g>
<!-- AppComponent  -->
<g id="node12" class="node">
<title>AppComponent </title>
<polygon fill="#80b1d3" stroke="black" points="643.44,-317 534.56,-317 534.56,-281 643.44,-281 643.44,-317"/>
<text text-anchor="middle" x="589" y="-294.8" font-family="Times,serif" font-size="14.00">AppComponent </text>
</g>
<!-- AppModule&#45;&gt;AppComponent  -->
<g id="edge11" class="edge">
<title>AppModule&#45;&gt;AppComponent </title>
<path fill="none" stroke="black" stroke-dasharray="1,5" d="M589,-252.11C589,-252.11 589,-270.99 589,-270.99"/>
<polygon fill="black" stroke="black" points="585.5,-270.99 589,-280.99 592.5,-270.99 585.5,-270.99"/>
</g>
<!-- MyMonitoringService -->
<g id="node6" class="node">
<title>MyMonitoringService</title>
<ellipse fill="#fdb462" stroke="black" cx="1426" cy="-104" rx="97.29" ry="18"/>
<text text-anchor="middle" x="1426" y="-99.8" font-family="Times,serif" font-size="14.00">MyMonitoringService</text>
</g>
<!-- MyMonitoringService&#45;&gt;AppComponent -->
<g id="edge2" class="edge">
<title>MyMonitoringService&#45;&gt;AppComponent</title>
<path fill="none" stroke="black" d="M1426,-122.11C1426,-141.34 1426,-169 1426,-169 1426,-169 1222.87,-169 1222.87,-169"/>
<polygon fill="black" stroke="black" points="1222.87,-165.5 1212.87,-169 1222.87,-172.5 1222.87,-165.5"/>
</g>
<!-- MessageService -->
<g id="node7" class="node">
<title>MessageService</title>
<ellipse fill="#fdb462" stroke="black" cx="1237" cy="-104" rx="73.55" ry="18"/>
<text text-anchor="middle" x="1237" y="-99.8" font-family="Times,serif" font-size="14.00">MessageService</text>
</g>
<!-- MessageService&#45;&gt;AppComponent -->
<g id="edge3" class="edge">
<title>MessageService&#45;&gt;AppComponent</title>
<path fill="none" stroke="black" d="M1187.97,-117.47C1187.97,-117.47 1187.97,-140.86 1187.97,-140.86"/>
<polygon fill="black" stroke="black" points="1184.47,-140.86 1187.97,-150.86 1191.47,-140.86 1184.47,-140.86"/>
</g>
<!-- ToastService -->
<g id="node8" class="node">
<title>ToastService</title>
<ellipse fill="#fdb462" stroke="black" cx="1084" cy="-104" rx="61.39" ry="18"/>
<text text-anchor="middle" x="1084" y="-99.8" font-family="Times,serif" font-size="14.00">ToastService</text>
</g>
<!-- ToastService&#45;&gt;AppComponent -->
<g id="edge4" class="edge">
<title>ToastService&#45;&gt;AppComponent</title>
<path fill="none" stroke="black" d="M1126.36,-117.15C1126.36,-117.15 1126.36,-140.69 1126.36,-140.69"/>
<polygon fill="black" stroke="black" points="1122.86,-140.69 1126.36,-150.69 1129.86,-140.69 1122.86,-140.69"/>
</g>
<!-- AppRoutingModule -->
<g id="node9" class="node">
<title>AppRoutingModule</title>
<polygon fill="#8dd3c7" stroke="black" points="579.27,-187 576.27,-191 555.27,-191 552.27,-187 450.73,-187 450.73,-151 579.27,-151 579.27,-187"/>
<text text-anchor="middle" x="515" y="-164.8" font-family="Times,serif" font-size="14.00">AppRoutingModule</text>
</g>
<!-- AppRoutingModule&#45;&gt;AppModule -->
<g id="edge8" class="edge">
<title>AppRoutingModule&#45;&gt;AppModule</title>
<path fill="none" stroke="black" d="M563.28,-187.11C563.28,-187.11 563.28,-205.99 563.28,-205.99"/>
<polygon fill="black" stroke="black" points="559.78,-205.99 563.28,-215.99 566.78,-205.99 559.78,-205.99"/>
</g>
<!-- SharedModule -->
<g id="node10" class="node">
<title>SharedModule</title>
<polygon fill="#8dd3c7" stroke="black" points="432.42,-187 429.42,-191 408.42,-191 405.42,-187 333.58,-187 333.58,-151 432.42,-151 432.42,-187"/>
<text text-anchor="middle" x="383" y="-164.8" font-family="Times,serif" font-size="14.00">SharedModule</text>
</g>
<!-- SharedModule&#45;&gt;AppModule -->
<g id="edge9" class="edge">
<title>SharedModule&#45;&gt;AppModule</title>
<path fill="none" stroke="black" d="M383,-187.03C383,-203.4 383,-225 383,-225 383,-225 537.31,-225 537.31,-225"/>
<polygon fill="black" stroke="black" points="537.31,-228.5 547.31,-225 537.31,-221.5 537.31,-228.5"/>
</g>
<!-- ToastComponent -->
<g id="node11" class="node">
<title>ToastComponent</title>
<polygon fill="#8dd3c7" stroke="black" points="316.44,-187 313.44,-191 292.44,-191 289.44,-187 203.56,-187 203.56,-151 316.44,-151 316.44,-187"/>
<text text-anchor="middle" x="260" y="-164.8" font-family="Times,serif" font-size="14.00">ToastComponent</text>
</g>
<!-- ToastComponent&#45;&gt;AppModule -->
<g id="edge10" class="edge">
<title>ToastComponent&#45;&gt;AppModule</title>
<path fill="none" stroke="black" d="M260,-187.11C260,-206.34 260,-234 260,-234 260,-234 537.33,-234 537.33,-234"/>
<polygon fill="black" stroke="black" points="537.33,-237.5 547.33,-234 537.33,-230.5 537.33,-237.5"/>
</g>
<!-- CacheInterceptor -->
<g id="node13" class="node">
<title>CacheInterceptor</title>
<ellipse fill="#fdb462" stroke="black" cx="102" cy="-169" rx="77.55" ry="18"/>
<text text-anchor="middle" x="102" y="-164.8" font-family="Times,serif" font-size="14.00">CacheInterceptor</text>
</g>
<!-- CacheInterceptor&#45;&gt;AppModule -->
<g id="edge12" class="edge">
<title>CacheInterceptor&#45;&gt;AppModule</title>
<path fill="none" stroke="black" d="M102,-187.29C102,-209.21 102,-243 102,-243 102,-243 537.06,-243 537.06,-243"/>
<polygon fill="black" stroke="black" points="537.06,-246.5 547.06,-243 537.06,-239.5 537.06,-246.5"/>
</g>
</g>
</svg>
