<?xml version="1.0" encoding="UTF-8" standalone="no"?>
<!DOCTYPE svg PUBLIC "-//W3C//DTD SVG 1.1//EN"
 "http://www.w3.org/Graphics/SVG/1.1/DTD/svg11.dtd">
<!-- Generated by graphviz version 2.47.0 (20210316.0004)
 -->
<!-- Title: dependencies Pages: 1 -->
<svg width="6455pt" height="211pt"
 viewBox="0.00 0.00 6455.00 211.00" xmlns="http://www.w3.org/2000/svg" xmlns:xlink="http://www.w3.org/1999/xlink">
<g id="graph0" class="graph" transform="scale(1 1) rotate(0) translate(4 207)">
<title>dependencies</title>
<polygon fill="white" stroke="transparent" points="-4,4 -4,-207 6451,-207 6451,4 -4,4"/>
<text text-anchor="start" x="3202.51" y="-42.4" font-family="Times-12" font-weight="bold" font-size="14.00">Legend</text>
<polygon fill="#ffffb3" stroke="transparent" points="2989.5,-10 2989.5,-30 3009.5,-30 3009.5,-10 2989.5,-10"/>
<text text-anchor="start" x="3013.13" y="-15.4" font-family="Times-12" font-size="14.00"> &#160;Declarations</text>
<polygon fill="#8dd3c7" stroke="transparent" points="3102.5,-10 3102.5,-30 3122.5,-30 3122.5,-10 3102.5,-10"/>
<text text-anchor="start" x="3126.23" y="-15.4" font-family="Times-12" font-size="14.00"> &#160;Module</text>
<polygon fill="#80b1d3" stroke="transparent" points="3188.5,-10 3188.5,-30 3208.5,-30 3208.5,-10 3188.5,-10"/>
<text text-anchor="start" x="3212.28" y="-15.4" font-family="Times-12" font-size="14.00"> &#160;Bootstrap</text>
<polygon fill="#fdb462" stroke="transparent" points="3285.5,-10 3285.5,-30 3305.5,-30 3305.5,-10 3285.5,-10"/>
<text text-anchor="start" x="3309.17" y="-15.4" font-family="Times-12" font-size="14.00"> &#160;Providers</text>
<polygon fill="#fb8072" stroke="transparent" points="3381.5,-10 3381.5,-30 3401.5,-30 3401.5,-10 3381.5,-10"/>
<text text-anchor="start" x="3405.23" y="-15.4" font-family="Times-12" font-size="14.00"> &#160;Exports</text>
<g id="clust1" class="cluster">
<title>cluster_AdminModule</title>
<polygon fill="none" stroke="black" stroke-dasharray="1,5" points="8,-70 8,-195 6439,-195 6439,-70 8,-70"/>
</g>
<g id="clust2" class="cluster">
<title>cluster_AdminModule_declarations</title>
<polygon fill="none" stroke="black" points="494,-78 494,-130 6431,-130 6431,-78 494,-78"/>
</g>
<g id="clust35" class="cluster">
<title>cluster_AdminModule_imports</title>
<polygon fill="none" stroke="black" points="16,-78 16,-130 486,-130 486,-78 16,-78"/>
</g>
<!-- AddFieldDialogComponent -->
<g id="node1" class="node">
<title>AddFieldDialogComponent</title>
<polygon fill="#ffffb3" stroke="black" points="6423.32,-122 6250.68,-122 6250.68,-86 6423.32,-86 6423.32,-122"/>
<text text-anchor="middle" x="6337" y="-99.8" font-family="Times,serif" font-size="14.00">AddFieldDialogComponent</text>
</g>
<!-- AdminModule -->
<g id="node33" class="node">
<title>AdminModule</title>
<polygon fill="#8dd3c7" stroke="black" points="3126.44,-187 3123.44,-191 3102.44,-191 3099.44,-187 3027.56,-187 3027.56,-151 3126.44,-151 3126.44,-187"/>
<text text-anchor="middle" x="3077" y="-164.8" font-family="Times,serif" font-size="14.00">AdminModule</text>
</g>
<!-- AddFieldDialogComponent&#45;&gt;AdminModule -->
<g id="edge1" class="edge">
<title>AddFieldDialogComponent&#45;&gt;AdminModule</title>
<path fill="none" stroke="black" d="M6337,-122.38C6337,-146.28 6337,-185 6337,-185 6337,-185 3136.26,-185 3136.26,-185"/>
<polygon fill="black" stroke="black" points="3136.26,-181.5 3126.26,-185 3136.26,-188.5 3136.26,-181.5"/>
</g>
<!-- AddWorldRankComponent -->
<g id="node2" class="node">
<title>AddWorldRankComponent</title>
<polygon fill="#ffffb3" stroke="black" points="6232.26,-122 6061.74,-122 6061.74,-86 6232.26,-86 6232.26,-122"/>
<text text-anchor="middle" x="6147" y="-99.8" font-family="Times,serif" font-size="14.00">AddWorldRankComponent</text>
</g>
<!-- AddWorldRankComponent&#45;&gt;AdminModule -->
<g id="edge2" class="edge">
<title>AddWorldRankComponent&#45;&gt;AdminModule</title>
<path fill="none" stroke="black" d="M6147,-122.32C6147,-145.66 6147,-183 6147,-183 6147,-183 3136.47,-183 3136.47,-183"/>
<polygon fill="black" stroke="black" points="3136.47,-179.5 3126.47,-183 3136.47,-186.5 3136.47,-179.5"/>
</g>
<!-- AdminClubDashboardComponent -->
<g id="node3" class="node">
<title>AdminClubDashboardComponent</title>
<polygon fill="#ffffb3" stroke="black" points="6044.09,-122 5835.91,-122 5835.91,-86 6044.09,-86 6044.09,-122"/>
<text text-anchor="middle" x="5940" y="-99.8" font-family="Times,serif" font-size="14.00">AdminClubDashboardComponent</text>
</g>
<!-- AdminClubDashboardComponent&#45;&gt;AdminModule -->
<g id="edge3" class="edge">
<title>AdminClubDashboardComponent&#45;&gt;AdminModule</title>
<path fill="none" stroke="black" d="M5940,-122.09C5940,-145.13 5940,-182 5940,-182 5940,-182 3136.39,-182 3136.39,-182"/>
<polygon fill="black" stroke="black" points="3136.39,-178.5 3126.39,-182 3136.39,-185.5 3136.39,-178.5"/>
</g>
<!-- AdminLayoutComponent -->
<g id="node4" class="node">
<title>AdminLayoutComponent</title>
<polygon fill="#ffffb3" stroke="black" points="5817.88,-122 5658.12,-122 5658.12,-86 5817.88,-86 5817.88,-122"/>
<text text-anchor="middle" x="5738" y="-99.8" font-family="Times,serif" font-size="14.00">AdminLayoutComponent</text>
</g>
<!-- AdminLayoutComponent&#45;&gt;AdminModule -->
<g id="edge4" class="edge">
<title>AdminLayoutComponent&#45;&gt;AdminModule</title>
<path fill="none" stroke="black" d="M5738,-122.16C5738,-144.35 5738,-179 5738,-179 5738,-179 3136.32,-179 3136.32,-179"/>
<polygon fill="black" stroke="black" points="3136.32,-175.5 3126.32,-179 3136.32,-182.5 3136.32,-175.5"/>
</g>
<!-- AdminPlayerDashboardComponent -->
<g id="node5" class="node">
<title>AdminPlayerDashboardComponent</title>
<polygon fill="#ffffb3" stroke="black" points="5640.12,-122 5423.88,-122 5423.88,-86 5640.12,-86 5640.12,-122"/>
<text text-anchor="middle" x="5532" y="-99.8" font-family="Times,serif" font-size="14.00">AdminPlayerDashboardComponent</text>
</g>
<!-- AdminPlayerDashboardComponent&#45;&gt;AdminModule -->
<g id="edge5" class="edge">
<title>AdminPlayerDashboardComponent&#45;&gt;AdminModule</title>
<path fill="none" stroke="black" d="M5532,-122.04C5532,-143.66 5532,-177 5532,-177 5532,-177 3136.32,-177 3136.32,-177"/>
<polygon fill="black" stroke="black" points="3136.32,-173.5 3126.32,-177 3136.32,-180.5 3136.32,-173.5"/>
</g>
<!-- AdminSidebarComponent -->
<g id="node6" class="node">
<title>AdminSidebarComponent</title>
<polygon fill="#ffffb3" stroke="black" points="5405.48,-122 5242.52,-122 5242.52,-86 5405.48,-86 5405.48,-122"/>
<text text-anchor="middle" x="5324" y="-99.8" font-family="Times,serif" font-size="14.00">AdminSidebarComponent</text>
</g>
<!-- AdminSidebarComponent&#45;&gt;AdminModule -->
<g id="edge6" class="edge">
<title>AdminSidebarComponent&#45;&gt;AdminModule</title>
<path fill="none" stroke="black" d="M5324,-122.28C5324,-143.32 5324,-175 5324,-175 5324,-175 3136.29,-175 3136.29,-175"/>
<polygon fill="black" stroke="black" points="3136.29,-171.5 3126.29,-175 3136.29,-178.5 3136.29,-171.5"/>
</g>
<!-- BannerManagementComponent -->
<g id="node7" class="node">
<title>BannerManagementComponent</title>
<polygon fill="#ffffb3" stroke="black" points="5224.34,-122 5029.66,-122 5029.66,-86 5224.34,-86 5224.34,-122"/>
<text text-anchor="middle" x="5127" y="-99.8" font-family="Times,serif" font-size="14.00">BannerManagementComponent</text>
</g>
<!-- BannerManagementComponent&#45;&gt;AdminModule -->
<g id="edge7" class="edge">
<title>BannerManagementComponent&#45;&gt;AdminModule</title>
<path fill="none" stroke="black" d="M5127,-122.13C5127,-142.57 5127,-173 5127,-173 5127,-173 3136.41,-173 3136.41,-173"/>
<polygon fill="black" stroke="black" points="3136.41,-169.5 3126.41,-173 3136.41,-176.5 3136.41,-169.5"/>
</g>
<!-- ChatComponent -->
<g id="node8" class="node">
<title>ChatComponent</title>
<polygon fill="#ffffb3" stroke="black" points="5011.77,-122 4904.23,-122 4904.23,-86 5011.77,-86 5011.77,-122"/>
<text text-anchor="middle" x="4958" y="-99.8" font-family="Times,serif" font-size="14.00">ChatComponent</text>
</g>
<!-- ChatComponent&#45;&gt;AdminModule -->
<g id="edge8" class="edge">
<title>ChatComponent&#45;&gt;AdminModule</title>
<path fill="none" stroke="black" d="M4958,-122.31C4958,-142.15 4958,-171 4958,-171 4958,-171 3136.35,-171 3136.35,-171"/>
<polygon fill="black" stroke="black" points="3136.35,-167.5 3126.35,-171 3136.35,-174.5 3136.35,-167.5"/>
</g>
<!-- CreateCategoryComponent -->
<g id="node9" class="node">
<title>CreateCategoryComponent</title>
<polygon fill="#ffffb3" stroke="black" points="4886.68,-122 4717.32,-122 4717.32,-86 4886.68,-86 4886.68,-122"/>
<text text-anchor="middle" x="4802" y="-99.8" font-family="Times,serif" font-size="14.00">CreateCategoryComponent</text>
</g>
<!-- CreateCategoryComponent&#45;&gt;AdminModule -->
<g id="edge9" class="edge">
<title>CreateCategoryComponent&#45;&gt;AdminModule</title>
<path fill="none" stroke="black" d="M4802,-122.11C4802,-141.34 4802,-169 4802,-169 4802,-169 3136.31,-169 3136.31,-169"/>
<polygon fill="black" stroke="black" points="3136.31,-165.5 3126.31,-169 3136.31,-172.5 3136.31,-165.5"/>
</g>
<!-- CreateMembershipDialogComponent -->
<g id="node10" class="node">
<title>CreateMembershipDialogComponent</title>
<polygon fill="#ffffb3" stroke="black" points="4699.23,-122 4472.77,-122 4472.77,-86 4699.23,-86 4699.23,-122"/>
<text text-anchor="middle" x="4586" y="-99.8" font-family="Times,serif" font-size="14.00">CreateMembershipDialogComponent</text>
</g>
<!-- CreateMembershipDialogComponent&#45;&gt;AdminModule -->
<g id="edge10" class="edge">
<title>CreateMembershipDialogComponent&#45;&gt;AdminModule</title>
<path fill="none" stroke="black" d="M4586,-122.22C4586,-140.83 4586,-167 4586,-167 4586,-167 3136.35,-167 3136.35,-167"/>
<polygon fill="black" stroke="black" points="3136.35,-163.5 3126.35,-167 3136.35,-170.5 3136.35,-163.5"/>
</g>
<!-- CreateRoleDialogComponent -->
<g id="node11" class="node">
<title>CreateRoleDialogComponent</title>
<polygon fill="#ffffb3" stroke="black" points="4454.41,-122 4271.59,-122 4271.59,-86 4454.41,-86 4454.41,-122"/>
<text text-anchor="middle" x="4363" y="-99.8" font-family="Times,serif" font-size="14.00">CreateRoleDialogComponent</text>
</g>
<!-- CreateRoleDialogComponent&#45;&gt;AdminModule -->
<g id="edge11" class="edge">
<title>CreateRoleDialogComponent&#45;&gt;AdminModule</title>
<path fill="none" stroke="black" d="M4363,-122.3C4363,-140.27 4363,-165 4363,-165 4363,-165 3136.23,-165 3136.23,-165"/>
<polygon fill="black" stroke="black" points="3136.23,-161.5 3126.23,-165 3136.23,-168.5 3136.23,-161.5"/>
</g>
<!-- DashboardComponent -->
<g id="node12" class="node">
<title>DashboardComponent</title>
<polygon fill="#ffffb3" stroke="black" points="4253.97,-122 4112.03,-122 4112.03,-86 4253.97,-86 4253.97,-122"/>
<text text-anchor="middle" x="4183" y="-99.8" font-family="Times,serif" font-size="14.00">DashboardComponent</text>
</g>
<!-- DashboardComponent&#45;&gt;AdminModule -->
<g id="edge12" class="edge">
<title>DashboardComponent&#45;&gt;AdminModule</title>
<path fill="none" stroke="black" d="M4183,-122.02C4183,-139.37 4183,-163 4183,-163 4183,-163 3136.31,-163 3136.31,-163"/>
<polygon fill="black" stroke="black" points="3136.31,-159.5 3126.31,-163 3136.31,-166.5 3136.31,-159.5"/>
</g>
<!-- EventManagementComponent -->
<g id="node13" class="node">
<title>EventManagementComponent</title>
<polygon fill="#ffffb3" stroke="black" points="4093.57,-122 3906.43,-122 3906.43,-86 4093.57,-86 4093.57,-122"/>
<text text-anchor="middle" x="4000" y="-99.8" font-family="Times,serif" font-size="14.00">EventManagementComponent</text>
</g>
<!-- EventManagementComponent&#45;&gt;AdminModule -->
<g id="edge13" class="edge">
<title>EventManagementComponent&#45;&gt;AdminModule</title>
<path fill="none" stroke="black" d="M4000,-122.04C4000,-138.73 4000,-161 4000,-161 4000,-161 3136.3,-161 3136.3,-161"/>
<polygon fill="black" stroke="black" points="3136.3,-157.5 3126.3,-161 3136.3,-164.5 3136.3,-157.5"/>
</g>
<!-- EventVerificationComponent -->
<g id="node14" class="node">
<title>EventVerificationComponent</title>
<polygon fill="#ffffb3" stroke="black" points="3888.62,-122 3707.38,-122 3707.38,-86 3888.62,-86 3888.62,-122"/>
<text text-anchor="middle" x="3798" y="-99.8" font-family="Times,serif" font-size="14.00">EventVerificationComponent</text>
</g>
<!-- EventVerificationComponent&#45;&gt;AdminModule -->
<g id="edge14" class="edge">
<title>EventVerificationComponent&#45;&gt;AdminModule</title>
<path fill="none" stroke="black" d="M3798,-122.01C3798,-138.05 3798,-159 3798,-159 3798,-159 3136.27,-159 3136.27,-159"/>
<polygon fill="black" stroke="black" points="3136.27,-155.5 3126.27,-159 3136.27,-162.5 3136.27,-155.5"/>
</g>
<!-- FeedbacksComponent -->
<g id="node15" class="node">
<title>FeedbacksComponent</title>
<polygon fill="#ffffb3" stroke="black" points="3689.42,-122 3548.58,-122 3548.58,-86 3689.42,-86 3689.42,-122"/>
<text text-anchor="middle" x="3619" y="-99.8" font-family="Times,serif" font-size="14.00">FeedbacksComponent</text>
</g>
<!-- FeedbacksComponent&#45;&gt;AdminModule -->
<g id="edge15" class="edge">
<title>FeedbacksComponent&#45;&gt;AdminModule</title>
<path fill="none" stroke="black" d="M3619,-122.24C3619,-137.57 3619,-157 3619,-157 3619,-157 3136.54,-157 3136.54,-157"/>
<polygon fill="black" stroke="black" points="3136.54,-153.5 3126.54,-157 3136.54,-160.5 3136.54,-153.5"/>
</g>
<!-- FooterManagementComponent -->
<g id="node16" class="node">
<title>FooterManagementComponent</title>
<polygon fill="#ffffb3" stroke="black" points="3530.47,-122 3339.53,-122 3339.53,-86 3530.47,-86 3530.47,-122"/>
<text text-anchor="middle" x="3435" y="-99.8" font-family="Times,serif" font-size="14.00">FooterManagementComponent</text>
</g>
<!-- FooterManagementComponent&#45;&gt;AdminModule -->
<g id="edge16" class="edge">
<title>FooterManagementComponent&#45;&gt;AdminModule</title>
<path fill="none" stroke="black" d="M3435,-122.12C3435,-136.78 3435,-155 3435,-155 3435,-155 3136.4,-155 3136.4,-155"/>
<polygon fill="black" stroke="black" points="3136.4,-151.5 3126.4,-155 3136.4,-158.5 3136.4,-151.5"/>
</g>
<!-- LiveSettingsComponent -->
<g id="node17" class="node">
<title>LiveSettingsComponent</title>
<polygon fill="#ffffb3" stroke="black" points="3321.1,-122 3168.9,-122 3168.9,-86 3321.1,-86 3321.1,-122"/>
<text text-anchor="middle" x="3245" y="-99.8" font-family="Times,serif" font-size="14.00">LiveSettingsComponent</text>
</g>
<!-- LiveSettingsComponent&#45;&gt;AdminModule -->
<g id="edge17" class="edge">
<title>LiveSettingsComponent&#45;&gt;AdminModule</title>
<path fill="none" stroke="black" d="M3245,-122.25C3245,-136.18 3245,-153 3245,-153 3245,-153 3136.5,-153 3136.5,-153"/>
<polygon fill="black" stroke="black" points="3136.5,-149.5 3126.5,-153 3136.5,-156.5 3136.5,-149.5"/>
</g>
<!-- MainFooterComponent -->
<g id="node18" class="node">
<title>MainFooterComponent</title>
<polygon fill="#ffffb3" stroke="black" points="3150.93,-122 3003.07,-122 3003.07,-86 3150.93,-86 3150.93,-122"/>
<text text-anchor="middle" x="3077" y="-99.8" font-family="Times,serif" font-size="14.00">MainFooterComponent</text>
</g>
<!-- MainFooterComponent&#45;&gt;AdminModule -->
<g id="edge18" class="edge">
<title>MainFooterComponent&#45;&gt;AdminModule</title>
<path fill="none" stroke="black" d="M3077,-122.11C3077,-122.11 3077,-140.99 3077,-140.99"/>
<polygon fill="black" stroke="black" points="3073.5,-140.99 3077,-150.99 3080.5,-140.99 3073.5,-140.99"/>
</g>
<!-- MamberComponent -->
<g id="node19" class="node">
<title>MamberComponent</title>
<polygon fill="#ffffb3" stroke="black" points="2985.26,-122 2856.74,-122 2856.74,-86 2985.26,-86 2985.26,-122"/>
<text text-anchor="middle" x="2921" y="-99.8" font-family="Times,serif" font-size="14.00">MamberComponent</text>
</g>
<!-- MamberComponent&#45;&gt;AdminModule -->
<g id="edge19" class="edge">
<title>MamberComponent&#45;&gt;AdminModule</title>
<path fill="none" stroke="black" d="M2921,-122.25C2921,-136.18 2921,-153 2921,-153 2921,-153 3017.64,-153 3017.64,-153"/>
<polygon fill="black" stroke="black" points="3017.64,-156.5 3027.64,-153 3017.64,-149.5 3017.64,-156.5"/>
</g>
<!-- MamberManagementComponent -->
<g id="node20" class="node">
<title>MamberManagementComponent</title>
<polygon fill="#ffffb3" stroke="black" points="2838.84,-122 2637.16,-122 2637.16,-86 2838.84,-86 2838.84,-122"/>
<text text-anchor="middle" x="2738" y="-99.8" font-family="Times,serif" font-size="14.00">MamberManagementComponent</text>
</g>
<!-- MamberManagementComponent&#45;&gt;AdminModule -->
<g id="edge20" class="edge">
<title>MamberManagementComponent&#45;&gt;AdminModule</title>
<path fill="none" stroke="black" d="M2738,-122.12C2738,-136.78 2738,-155 2738,-155 2738,-155 3017.71,-155 3017.71,-155"/>
<polygon fill="black" stroke="black" points="3017.71,-158.5 3027.71,-155 3017.71,-151.5 3017.71,-158.5"/>
</g>
<!-- ManageComponent -->
<g id="node21" class="node">
<title>ManageComponent</title>
<polygon fill="#ffffb3" stroke="black" points="2619.42,-122 2492.58,-122 2492.58,-86 2619.42,-86 2619.42,-122"/>
<text text-anchor="middle" x="2556" y="-99.8" font-family="Times,serif" font-size="14.00">ManageComponent</text>
</g>
<!-- ManageComponent&#45;&gt;AdminModule -->
<g id="edge21" class="edge">
<title>ManageComponent&#45;&gt;AdminModule</title>
<path fill="none" stroke="black" d="M2556,-122.24C2556,-137.57 2556,-157 2556,-157 2556,-157 3017.52,-157 3017.52,-157"/>
<polygon fill="black" stroke="black" points="3017.52,-160.5 3027.52,-157 3017.52,-153.5 3017.52,-160.5"/>
</g>
<!-- MobileappDetailsComponent -->
<g id="node22" class="node">
<title>MobileappDetailsComponent</title>
<polygon fill="#ffffb3" stroke="black" points="2474.64,-122 2293.36,-122 2293.36,-86 2474.64,-86 2474.64,-122"/>
<text text-anchor="middle" x="2384" y="-99.8" font-family="Times,serif" font-size="14.00">MobileappDetailsComponent</text>
</g>
<!-- MobileappDetailsComponent&#45;&gt;AdminModule -->
<g id="edge22" class="edge">
<title>MobileappDetailsComponent&#45;&gt;AdminModule</title>
<path fill="none" stroke="black" d="M2384,-122.01C2384,-138.05 2384,-159 2384,-159 2384,-159 3017.72,-159 3017.72,-159"/>
<polygon fill="black" stroke="black" points="3017.72,-162.5 3027.72,-159 3017.72,-155.5 3017.72,-162.5"/>
</g>
<!-- NotificationsComponent -->
<g id="node23" class="node">
<title>NotificationsComponent</title>
<polygon fill="#ffffb3" stroke="black" points="2275.43,-122 2120.57,-122 2120.57,-86 2275.43,-86 2275.43,-122"/>
<text text-anchor="middle" x="2198" y="-99.8" font-family="Times,serif" font-size="14.00">NotificationsComponent</text>
</g>
<!-- NotificationsComponent&#45;&gt;AdminModule -->
<g id="edge23" class="edge">
<title>NotificationsComponent&#45;&gt;AdminModule</title>
<path fill="none" stroke="black" d="M2198,-122.04C2198,-138.73 2198,-161 2198,-161 2198,-161 3017.54,-161 3017.54,-161"/>
<polygon fill="black" stroke="black" points="3017.54,-164.5 3027.54,-161 3017.54,-157.5 3017.54,-164.5"/>
</g>
<!-- PlatformHeadersComponent -->
<g id="node24" class="node">
<title>PlatformHeadersComponent</title>
<polygon fill="#ffffb3" stroke="black" points="2103.18,-122 1926.82,-122 1926.82,-86 2103.18,-86 2103.18,-122"/>
<text text-anchor="middle" x="2015" y="-99.8" font-family="Times,serif" font-size="14.00">PlatformHeadersComponent</text>
</g>
<!-- PlatformHeadersComponent&#45;&gt;AdminModule -->
<g id="edge24" class="edge">
<title>PlatformHeadersComponent&#45;&gt;AdminModule</title>
<path fill="none" stroke="black" d="M2015,-122.02C2015,-139.37 2015,-163 2015,-163 2015,-163 3017.56,-163 3017.56,-163"/>
<polygon fill="black" stroke="black" points="3017.56,-166.5 3027.56,-163 3017.56,-159.5 3017.56,-166.5"/>
</g>
<!-- RoleManagementComponent -->
<g id="node25" class="node">
<title>RoleManagementComponent</title>
<polygon fill="#ffffb3" stroke="black" points="1908.36,-122 1727.64,-122 1727.64,-86 1908.36,-86 1908.36,-122"/>
<text text-anchor="middle" x="1818" y="-99.8" font-family="Times,serif" font-size="14.00">RoleManagementComponent</text>
</g>
<!-- RoleManagementComponent&#45;&gt;AdminModule -->
<g id="edge25" class="edge">
<title>RoleManagementComponent&#45;&gt;AdminModule</title>
<path fill="none" stroke="black" d="M1818,-122.3C1818,-140.27 1818,-165 1818,-165 1818,-165 3017.65,-165 3017.65,-165"/>
<polygon fill="black" stroke="black" points="3017.65,-168.5 3027.65,-165 3017.65,-161.5 3017.65,-168.5"/>
</g>
<!-- SampleViewComponent -->
<g id="node26" class="node">
<title>SampleViewComponent</title>
<polygon fill="#ffffb3" stroke="black" points="1709.64,-122 1556.36,-122 1556.36,-86 1709.64,-86 1709.64,-122"/>
<text text-anchor="middle" x="1633" y="-99.8" font-family="Times,serif" font-size="14.00">SampleViewComponent</text>
</g>
<!-- SampleViewComponent&#45;&gt;AdminModule -->
<g id="edge26" class="edge">
<title>SampleViewComponent&#45;&gt;AdminModule</title>
<path fill="none" stroke="black" d="M1633,-122.22C1633,-140.83 1633,-167 1633,-167 1633,-167 3017.71,-167 3017.71,-167"/>
<polygon fill="black" stroke="black" points="3017.71,-170.5 3027.71,-167 3017.71,-163.5 3017.71,-170.5"/>
</g>
<!-- SettingsComponent -->
<g id="node27" class="node">
<title>SettingsComponent</title>
<polygon fill="#ffffb3" stroke="black" points="1538.45,-122 1411.55,-122 1411.55,-86 1538.45,-86 1538.45,-122"/>
<text text-anchor="middle" x="1475" y="-99.8" font-family="Times,serif" font-size="14.00">SettingsComponent</text>
</g>
<!-- SettingsComponent&#45;&gt;AdminModule -->
<g id="edge27" class="edge">
<title>SettingsComponent&#45;&gt;AdminModule</title>
<path fill="none" stroke="black" d="M1475,-122.11C1475,-141.34 1475,-169 1475,-169 1475,-169 3017.74,-169 3017.74,-169"/>
<polygon fill="black" stroke="black" points="3017.74,-172.5 3027.74,-169 3017.74,-165.5 3017.74,-172.5"/>
</g>
<!-- SignupManagementComponent -->
<g id="node28" class="node">
<title>SignupManagementComponent</title>
<polygon fill="#ffffb3" stroke="black" points="1394.09,-122 1199.91,-122 1199.91,-86 1394.09,-86 1394.09,-122"/>
<text text-anchor="middle" x="1297" y="-99.8" font-family="Times,serif" font-size="14.00">SignupManagementComponent</text>
</g>
<!-- SignupManagementComponent&#45;&gt;AdminModule -->
<g id="edge28" class="edge">
<title>SignupManagementComponent&#45;&gt;AdminModule</title>
<path fill="none" stroke="black" d="M1297,-122.31C1297,-142.15 1297,-171 1297,-171 1297,-171 3017.53,-171 3017.53,-171"/>
<polygon fill="black" stroke="black" points="3017.53,-174.5 3027.53,-171 3017.53,-167.5 3017.53,-174.5"/>
</g>
<!-- TermsConditionComponent -->
<g id="node29" class="node">
<title>TermsConditionComponent</title>
<polygon fill="#ffffb3" stroke="black" points="1181.6,-122 1008.4,-122 1008.4,-86 1181.6,-86 1181.6,-122"/>
<text text-anchor="middle" x="1095" y="-99.8" font-family="Times,serif" font-size="14.00">TermsConditionComponent</text>
</g>
<!-- TermsConditionComponent&#45;&gt;AdminModule -->
<g id="edge29" class="edge">
<title>TermsConditionComponent&#45;&gt;AdminModule</title>
<path fill="none" stroke="black" d="M1095,-122.13C1095,-142.57 1095,-173 1095,-173 1095,-173 3017.51,-173 3017.51,-173"/>
<polygon fill="black" stroke="black" points="3017.51,-176.5 3027.51,-173 3017.51,-169.5 3017.51,-176.5"/>
</g>
<!-- VideosComponent -->
<g id="node30" class="node">
<title>VideosComponent</title>
<polygon fill="#ffffb3" stroke="black" points="990.49,-122 869.51,-122 869.51,-86 990.49,-86 990.49,-122"/>
<text text-anchor="middle" x="930" y="-99.8" font-family="Times,serif" font-size="14.00">VideosComponent</text>
</g>
<!-- VideosComponent&#45;&gt;AdminModule -->
<g id="edge30" class="edge">
<title>VideosComponent&#45;&gt;AdminModule</title>
<path fill="none" stroke="black" d="M930,-122.28C930,-143.32 930,-175 930,-175 930,-175 3017.61,-175 3017.61,-175"/>
<polygon fill="black" stroke="black" points="3017.61,-178.5 3027.61,-175 3017.61,-171.5 3017.61,-178.5"/>
</g>
<!-- ViewAdminEventComponent -->
<g id="node31" class="node">
<title>ViewAdminEventComponent</title>
<polygon fill="#ffffb3" stroke="black" points="851.7,-122 668.3,-122 668.3,-86 851.7,-86 851.7,-122"/>
<text text-anchor="middle" x="760" y="-99.8" font-family="Times,serif" font-size="14.00">ViewAdminEventComponent</text>
</g>
<!-- ViewAdminEventComponent&#45;&gt;AdminModule -->
<g id="edge31" class="edge">
<title>ViewAdminEventComponent&#45;&gt;AdminModule</title>
<path fill="none" stroke="black" d="M760,-122.04C760,-143.66 760,-177 760,-177 760,-177 3017.53,-177 3017.53,-177"/>
<polygon fill="black" stroke="black" points="3017.53,-180.5 3027.53,-177 3017.53,-173.5 3017.53,-180.5"/>
</g>
<!-- WebImagesComponent -->
<g id="node32" class="node">
<title>WebImagesComponent</title>
<polygon fill="#ffffb3" stroke="black" points="650.19,-122 501.81,-122 501.81,-86 650.19,-86 650.19,-122"/>
<text text-anchor="middle" x="576" y="-99.8" font-family="Times,serif" font-size="14.00">WebImagesComponent</text>
</g>
<!-- WebImagesComponent&#45;&gt;AdminModule -->
<g id="edge32" class="edge">
<title>WebImagesComponent&#45;&gt;AdminModule</title>
<path fill="none" stroke="black" d="M576,-122.16C576,-144.35 576,-179 576,-179 576,-179 3017.6,-179 3017.6,-179"/>
<polygon fill="black" stroke="black" points="3017.6,-182.5 3027.6,-179 3017.6,-175.5 3017.6,-182.5"/>
</g>
<!-- CommonSvgMsgComponent -->
<g id="node34" class="node">
<title>CommonSvgMsgComponent</title>
<polygon fill="#8dd3c7" stroke="black" points="478.12,-122 475.12,-126 454.12,-126 451.12,-122 297.88,-122 297.88,-86 478.12,-86 478.12,-122"/>
<text text-anchor="middle" x="388" y="-99.8" font-family="Times,serif" font-size="14.00">CommonSvgMsgComponent</text>
</g>
<!-- CommonSvgMsgComponent&#45;&gt;AdminModule -->
<g id="edge33" class="edge">
<title>CommonSvgMsgComponent&#45;&gt;AdminModule</title>
<path fill="none" stroke="black" d="M388,-122.09C388,-145.13 388,-182 388,-182 388,-182 3017.74,-182 3017.74,-182"/>
<polygon fill="black" stroke="black" points="3017.74,-185.5 3027.74,-182 3017.74,-178.5 3017.74,-185.5"/>
</g>
<!-- GifLoaderComponent -->
<g id="node35" class="node">
<title>GifLoaderComponent</title>
<polygon fill="#8dd3c7" stroke="black" points="279.63,-122 276.63,-126 255.63,-126 252.63,-122 140.37,-122 140.37,-86 279.63,-86 279.63,-122"/>
<text text-anchor="middle" x="210" y="-99.8" font-family="Times,serif" font-size="14.00">GifLoaderComponent</text>
</g>
<!-- GifLoaderComponent&#45;&gt;AdminModule -->
<g id="edge34" class="edge">
<title>GifLoaderComponent&#45;&gt;AdminModule</title>
<path fill="none" stroke="black" d="M210,-122.32C210,-145.66 210,-183 210,-183 210,-183 3017.54,-183 3017.54,-183"/>
<polygon fill="black" stroke="black" points="3017.54,-186.5 3027.54,-183 3017.54,-179.5 3017.54,-186.5"/>
</g>
<!-- SharedModule -->
<g id="node36" class="node">
<title>SharedModule</title>
<polygon fill="#8dd3c7" stroke="black" points="122.42,-122 119.42,-126 98.42,-126 95.42,-122 23.58,-122 23.58,-86 122.42,-86 122.42,-122"/>
<text text-anchor="middle" x="73" y="-99.8" font-family="Times,serif" font-size="14.00">SharedModule</text>
</g>
<!-- SharedModule&#45;&gt;AdminModule -->
<g id="edge35" class="edge">
<title>SharedModule&#45;&gt;AdminModule</title>
<path fill="none" stroke="black" d="M73,-122.38C73,-146.28 73,-185 73,-185 73,-185 3017.68,-185 3017.68,-185"/>
<polygon fill="black" stroke="black" points="3017.68,-188.5 3027.68,-185 3017.68,-181.5 3017.68,-188.5"/>
</g>
</g>
</svg>
